# MagicaVoxel @ Ephtracy

# group
o 

# material
mtllib computer.mtl
usemtl palette

# normals
vn -1 0 0
vn 1 0 0
vn 0 0 1
vn 0 0 -1
vn 0 -1 0
vn 0 1 0

# texcoords
vt 0.306641 0.5
vt 0.775391 0.5
vt 0.806641 0.5
vt 0.861328 0.5
vt 0.958984 0.5
vt 0.978516 0.5
vt 0.982422 0.5
vt 0.994141 0.5

# verts
v 0 2 0
v 0 2 -4
v 0 6 0
v 0 6 -4
v 0.6 4.6 -0.2
v 0.6 4.6 -0.3
v 0.6 4.7 -0.2
v 0.6 4.7 -0.3
v 0.6 5.2 -0.2
v 0.6 5.2 -0.3
v 0.6 5.3 -0.2
v 0.6 5.3 -0.3
v 0.7 4.7 -0.2
v 0.7 4.7 -0.3
v 0.7 4.8 -0.2
v 0.7 4.8 -0.3
v 0.7 5.1 -0.2
v 0.7 5.1 -0.3
v 0.7 5.2 -0.2
v 0.7 5.2 -0.3
v 0.8 2.4 0
v 0.8 2.4 -0.1
v 0.8 2.6 -0.1
v 0.8 2.8 0
v 0.8 2.8 -0.1
v 0.8 4.8 -0.2
v 0.8 4.8 -0.3
v 0.8 4.9 -0.2
v 0.8 4.9 -0.3
v 0.8 5 -0.2
v 0.8 5 -0.3
v 0.8 5.1 -0.2
v 0.8 5.1 -0.3
v 0.9 4.5 -0.2
v 0.9 4.5 -0.3
v 0.9 4.6 -0.2
v 0.9 4.6 -0.3
v 0.9 4.9 -0.2
v 0.9 4.9 -0.3
v 0.9 5 -0.2
v 0.9 5 -0.3
v 2.1 3 0
v 2.1 3 -0.1
v 2.1 3.1 0
v 2.1 3.1 -0.1
v 3.3 2.5 -0.2
v 3.3 2.5 -0.3
v 3.3 3 -0.2
v 3.3 3 -0.3
v 3.5 3.4 0
v 3.5 3.4 -0.3
v 3.5 5.4 -0.3
v 3.5 5.4 -0.4
v 3.5 5.5 0
v 3.5 5.5 -0.4
v 3.7 2.5 -0.1
v 3.7 2.5 -0.2
v 3.7 3.1 -0.1
v 3.7 3.1 -0.2
v 3.8 2.5 0
v 3.8 2.5 -0.1
v 3.8 3.2 0
v 3.8 3.2 -0.1
v 0.3 2.4 0
v 0.3 2.4 -0.1
v 0.3 2.6 -0.1
v 0.3 2.8 0
v 0.3 2.8 -0.1
v 0.3 3 0
v 0.3 3 -0.1
v 0.3 3.1 0
v 0.3 3.1 -0.1
v 0.3 3.4 0
v 0.3 3.4 -0.3
v 0.3 5.4 -0.3
v 0.3 5.4 -0.4
v 0.3 5.5 0
v 0.3 5.5 -0.4
v 0.7 4.6 -0.2
v 0.7 4.6 -0.3
v 0.7 4.7 -0.2
v 0.7 4.7 -0.3
v 0.7 5.2 -0.2
v 0.7 5.2 -0.3
v 0.7 5.3 -0.2
v 0.7 5.3 -0.3
v 0.8 4.7 -0.2
v 0.8 4.7 -0.3
v 0.8 4.8 -0.2
v 0.8 4.8 -0.3
v 0.8 5.1 -0.2
v 0.8 5.1 -0.3
v 0.8 5.2 -0.2
v 0.8 5.2 -0.3
v 0.9 4.8 -0.2
v 0.9 4.8 -0.3
v 0.9 4.9 -0.2
v 0.9 4.9 -0.3
v 0.9 5 -0.2
v 0.9 5 -0.3
v 0.9 5.1 -0.2
v 0.9 5.1 -0.3
v 1 4.9 -0.2
v 1 4.9 -0.3
v 1 5 -0.2
v 1 5 -0.3
v 1.8 4.5 -0.2
v 1.8 4.5 -0.3
v 1.8 4.6 -0.2
v 1.8 4.6 -0.3
v 2.9 2.5 0
v 2.9 2.5 -0.1
v 2.9 3.2 0
v 2.9 3.2 -0.1
v 3.1 2.5 -0.1
v 3.1 2.5 -0.2
v 3.1 3.1 -0.1
v 3.1 3.1 -0.2
v 3.2 2.5 -0.2
v 3.2 2.5 -0.3
v 3.2 3 -0.2
v 3.2 3 -0.3
v 4 2 0
v 4 2 -4
v 4 6 0
v 4 6 -4
v 0 2 0
v 0 6 0
v 0.3 2.4 0
v 0.3 2.8 0
v 0.3 3 0
v 0.3 3.1 0
v 0.3 3.4 0
v 0.3 5.5 0
v 0.8 2.4 0
v 0.8 2.8 0
v 2.1 3 0
v 2.1 3.1 0
v 2.9 2.5 0
v 2.9 3.2 0
v 3.5 3.4 0
v 3.5 5.5 0
v 3.8 2.5 0
v 3.8 3.2 0
v 4 2 0
v 4 6 0
v 0.3 2.4 -0.1
v 0.3 2.6 -0.1
v 0.3 2.8 -0.1
v 0.3 3 -0.1
v 0.3 3.1 -0.1
v 0.4 2.5 -0.1
v 0.4 2.6 -0.1
v 0.4 3 -0.1
v 0.4 3.1 -0.1
v 0.5 3 -0.1
v 0.5 3.1 -0.1
v 0.7 2.5 -0.1
v 0.7 2.6 -0.1
v 0.8 2.4 -0.1
v 0.8 2.6 -0.1
v 0.8 2.8 -0.1
v 1 3 -0.1
v 1 3.1 -0.1
v 1.1 3 -0.1
v 1.1 3.1 -0.1
v 1.7 3 -0.1
v 1.7 3.1 -0.1
v 1.8 3 -0.1
v 1.8 3.1 -0.1
v 2.1 3 -0.1
v 2.1 3.1 -0.1
v 2.9 2.5 -0.1
v 2.9 3.2 -0.1
v 3.1 2.5 -0.1
v 3.1 3.1 -0.1
v 3.7 2.5 -0.1
v 3.7 3.1 -0.1
v 3.8 2.5 -0.1
v 3.8 3.2 -0.1
v 0.6 4.6 -0.2
v 0.6 4.7 -0.2
v 0.6 5.2 -0.2
v 0.6 5.3 -0.2
v 0.7 4.6 -0.2
v 0.7 4.7 -0.2
v 0.7 4.8 -0.2
v 0.7 5.1 -0.2
v 0.7 5.2 -0.2
v 0.7 5.3 -0.2
v 0.8 4.7 -0.2
v 0.8 4.8 -0.2
v 0.8 4.9 -0.2
v 0.8 5 -0.2
v 0.8 5.1 -0.2
v 0.8 5.2 -0.2
v 0.9 4.5 -0.2
v 0.9 4.6 -0.2
v 0.9 4.8 -0.2
v 0.9 4.9 -0.2
v 0.9 5 -0.2
v 0.9 5.1 -0.2
v 1 4.9 -0.2
v 1 5 -0.2
v 1.8 4.5 -0.2
v 1.8 4.6 -0.2
v 3.1 2.5 -0.2
v 3.1 3.1 -0.2
v 3.2 2.5 -0.2
v 3.2 3 -0.2
v 3.3 2.5 -0.2
v 3.3 3 -0.2
v 3.7 2.5 -0.2
v 3.7 3.1 -0.2
v 0.3 3.4 -0.3
v 0.3 5.4 -0.3
v 0.6 4.6 -0.3
v 0.6 4.7 -0.3
v 0.6 5.2 -0.3
v 0.6 5.3 -0.3
v 0.7 4.6 -0.3
v 0.7 4.7 -0.3
v 0.7 4.8 -0.3
v 0.7 5.1 -0.3
v 0.7 5.2 -0.3
v 0.7 5.3 -0.3
v 0.8 4.7 -0.3
v 0.8 4.8 -0.3
v 0.8 4.9 -0.3
v 0.8 5 -0.3
v 0.8 5.1 -0.3
v 0.8 5.2 -0.3
v 0.9 4.5 -0.3
v 0.9 4.6 -0.3
v 0.9 4.8 -0.3
v 0.9 4.9 -0.3
v 0.9 5 -0.3
v 0.9 5.1 -0.3
v 1 4.9 -0.3
v 1 5 -0.3
v 1.8 4.5 -0.3
v 1.8 4.6 -0.3
v 3.2 2.5 -0.3
v 3.2 3 -0.3
v 3.3 2.5 -0.3
v 3.3 3 -0.3
v 3.5 3.4 -0.3
v 3.5 5.4 -0.3
v 0.3 5.4 -0.4
v 0.3 5.5 -0.4
v 3.5 5.4 -0.4
v 3.5 5.5 -0.4
v 0 2 -4
v 0 6 -4
v 4 2 -4
v 4 6 -4
v 0 2 0
v 4 2 0
v 0 2 -4
v 4 2 -4
v 0.3 2.8 0
v 0.8 2.8 0
v 0.3 2.8 -0.1
v 0.8 2.8 -0.1
v 3.2 3 -0.2
v 3.3 3 -0.2
v 3.2 3 -0.3
v 3.3 3 -0.3
v 0.3 3.1 0
v 2.1 3.1 0
v 0.3 3.1 -0.1
v 0.4 3.1 -0.1
v 0.5 3.1 -0.1
v 1 3.1 -0.1
v 1.1 3.1 -0.1
v 1.7 3.1 -0.1
v 1.8 3.1 -0.1
v 2.1 3.1 -0.1
v 3.1 3.1 -0.1
v 3.7 3.1 -0.1
v 3.1 3.1 -0.2
v 3.7 3.1 -0.2
v 2.9 3.2 0
v 3.8 3.2 0
v 2.9 3.2 -0.1
v 3.8 3.2 -0.1
v 0.9 4.5 -0.2
v 1.8 4.5 -0.2
v 0.9 4.5 -0.3
v 1.8 4.5 -0.3
v 0.6 4.6 -0.2
v 0.7 4.6 -0.2
v 0.6 4.6 -0.3
v 0.7 4.6 -0.3
v 0.7 4.7 -0.2
v 0.8 4.7 -0.2
v 0.7 4.7 -0.3
v 0.8 4.7 -0.3
v 0.8 4.8 -0.2
v 0.9 4.8 -0.2
v 0.8 4.8 -0.3
v 0.9 4.8 -0.3
v 0.9 4.9 -0.2
v 1 4.9 -0.2
v 0.9 4.9 -0.3
v 1 4.9 -0.3
v 0.8 5 -0.2
v 0.9 5 -0.2
v 0.8 5 -0.3
v 0.9 5 -0.3
v 0.7 5.1 -0.2
v 0.8 5.1 -0.2
v 0.7 5.1 -0.3
v 0.8 5.1 -0.3
v 0.6 5.2 -0.2
v 0.7 5.2 -0.2
v 0.6 5.2 -0.3
v 0.7 5.2 -0.3
v 0.3 5.5 0
v 3.5 5.5 0
v 0.3 5.5 -0.4
v 3.5 5.5 -0.4
v 0.3 2.4 0
v 0.8 2.4 0
v 0.3 2.4 -0.1
v 0.8 2.4 -0.1
v 2.9 2.5 0
v 3.8 2.5 0
v 2.9 2.5 -0.1
v 3.1 2.5 -0.1
v 3.7 2.5 -0.1
v 3.8 2.5 -0.1
v 3.1 2.5 -0.2
v 3.2 2.5 -0.2
v 3.3 2.5 -0.2
v 3.7 2.5 -0.2
v 3.2 2.5 -0.3
v 3.3 2.5 -0.3
v 0.3 3 0
v 2.1 3 0
v 0.3 3 -0.1
v 0.4 3 -0.1
v 0.5 3 -0.1
v 1 3 -0.1
v 1.1 3 -0.1
v 1.7 3 -0.1
v 1.8 3 -0.1
v 2.1 3 -0.1
v 0.3 3.4 0
v 3.5 3.4 0
v 0.3 3.4 -0.3
v 3.5 3.4 -0.3
v 0.9 4.6 -0.2
v 1.8 4.6 -0.2
v 0.9 4.6 -0.3
v 1.8 4.6 -0.3
v 0.6 4.7 -0.2
v 0.7 4.7 -0.2
v 0.6 4.7 -0.3
v 0.7 4.7 -0.3
v 0.7 4.8 -0.2
v 0.8 4.8 -0.2
v 0.7 4.8 -0.3
v 0.8 4.8 -0.3
v 0.8 4.9 -0.2
v 0.9 4.9 -0.2
v 0.8 4.9 -0.3
v 0.9 4.9 -0.3
v 0.9 5 -0.2
v 1 5 -0.2
v 0.9 5 -0.3
v 1 5 -0.3
v 0.8 5.1 -0.2
v 0.9 5.1 -0.2
v 0.8 5.1 -0.3
v 0.9 5.1 -0.3
v 0.7 5.2 -0.2
v 0.8 5.2 -0.2
v 0.7 5.2 -0.3
v 0.8 5.2 -0.3
v 0.6 5.3 -0.2
v 0.7 5.3 -0.2
v 0.6 5.3 -0.3
v 0.7 5.3 -0.3
v 0.3 5.4 -0.3
v 3.5 5.4 -0.3
v 0.3 5.4 -0.4
v 3.5 5.4 -0.4
v 0 6 0
v 4 6 0
v 0 6 -4
v 4 6 -4

# faces
f 3/1/1 2/1/1 1/1/1
f 4/1/1 2/1/1 3/1/1
f 7/5/1 6/5/1 5/5/1
f 8/5/1 6/5/1 7/5/1
f 11/5/1 10/5/1 9/5/1
f 12/5/1 10/5/1 11/5/1
f 15/5/1 14/5/1 13/5/1
f 16/5/1 14/5/1 15/5/1
f 19/5/1 18/5/1 17/5/1
f 20/5/1 18/5/1 19/5/1
f 23/1/1 22/1/1 21/1/1
f 24/1/1 23/1/1 21/1/1
f 25/1/1 23/1/1 24/1/1
f 28/5/1 27/5/1 26/5/1
f 29/5/1 27/5/1 28/5/1
f 32/5/1 31/5/1 30/5/1
f 33/5/1 31/5/1 32/5/1
f 36/5/1 35/5/1 34/5/1
f 37/5/1 35/5/1 36/5/1
f 40/5/1 39/5/1 38/5/1
f 41/5/1 39/5/1 40/5/1
f 44/1/1 43/1/1 42/1/1
f 45/1/1 43/1/1 44/1/1
f 48/4/1 47/4/1 46/4/1
f 49/4/1 47/4/1 48/4/1
f 52/1/1 51/1/1 50/1/1
f 54/1/1 52/1/1 50/1/1
f 54/1/1 53/1/1 52/1/1
f 55/1/1 53/1/1 54/1/1
f 58/2/1 57/2/1 56/2/1
f 59/2/1 57/2/1 58/2/1
f 62/1/1 61/1/1 60/1/1
f 63/1/1 61/1/1 62/1/1
f 64/1/2 65/1/2 66/1/2
f 64/1/2 66/1/2 67/1/2
f 67/1/2 66/1/2 68/1/2
f 69/1/2 70/1/2 71/1/2
f 71/1/2 70/1/2 72/1/2
f 73/1/2 74/1/2 75/1/2
f 73/1/2 75/1/2 77/1/2
f 75/1/2 76/1/2 77/1/2
f 77/1/2 76/1/2 78/1/2
f 79/5/2 80/5/2 81/5/2
f 81/5/2 80/5/2 82/5/2
f 83/5/2 84/5/2 85/5/2
f 85/5/2 84/5/2 86/5/2
f 87/5/2 88/5/2 89/5/2
f 89/5/2 88/5/2 90/5/2
f 91/5/2 92/5/2 93/5/2
f 93/5/2 92/5/2 94/5/2
f 95/5/2 96/5/2 97/5/2
f 97/5/2 96/5/2 98/5/2
f 99/5/2 100/5/2 101/5/2
f 101/5/2 100/5/2 102/5/2
f 103/5/2 104/5/2 105/5/2
f 105/5/2 104/5/2 106/5/2
f 107/5/2 108/5/2 109/5/2
f 109/5/2 108/5/2 110/5/2
f 111/1/2 112/1/2 113/1/2
f 113/1/2 112/1/2 114/1/2
f 115/2/2 116/2/2 117/2/2
f 117/2/2 116/2/2 118/2/2
f 119/4/2 120/4/2 121/4/2
f 121/4/2 120/4/2 122/4/2
f 123/1/2 124/1/2 125/1/2
f 125/1/2 124/1/2 126/1/2
f 129/1/3 128/1/3 127/1/3
f 130/1/3 128/1/3 129/1/3
f 131/1/3 128/1/3 130/1/3
f 132/1/3 128/1/3 131/1/3
f 133/1/3 128/1/3 132/1/3
f 134/1/3 128/1/3 133/1/3
f 135/1/3 129/1/3 127/1/3
f 136/1/3 131/1/3 130/1/3
f 137/1/3 131/1/3 136/1/3
f 137/1/3 136/1/3 135/1/3
f 138/1/3 133/1/3 132/1/3
f 139/1/3 137/1/3 135/1/3
f 139/1/3 138/1/3 137/1/3
f 140/1/3 133/1/3 138/1/3
f 140/1/3 138/1/3 139/1/3
f 141/1/3 133/1/3 140/1/3
f 142/1/3 128/1/3 134/1/3
f 143/1/3 139/1/3 135/1/3
f 144/1/3 141/1/3 140/1/3
f 144/1/3 142/1/3 141/1/3
f 145/1/3 143/1/3 135/1/3
f 145/1/3 144/1/3 143/1/3
f 145/1/3 135/1/3 127/1/3
f 146/1/3 142/1/3 144/1/3
f 146/1/3 144/1/3 145/1/3
f 146/1/3 128/1/3 142/1/3
f 152/6/3 148/6/3 147/6/3
f 153/7/3 149/7/3 148/7/3
f 153/6/3 148/6/3 152/6/3
f 154/7/3 151/7/3 150/7/3
f 155/7/3 151/7/3 154/7/3
f 156/6/3 155/6/3 154/6/3
f 157/6/3 155/6/3 156/6/3
f 158/6/3 152/6/3 147/6/3
f 158/7/3 153/7/3 152/7/3
f 159/7/3 149/7/3 153/7/3
f 159/7/3 153/7/3 158/7/3
f 160/6/3 158/6/3 147/6/3
f 160/6/3 159/6/3 158/6/3
f 161/7/3 149/7/3 159/7/3
f 161/6/3 159/6/3 160/6/3
f 162/7/3 149/7/3 161/7/3
f 163/7/3 157/7/3 156/7/3
f 164/7/3 157/7/3 163/7/3
f 165/6/3 164/6/3 163/6/3
f 166/6/3 164/6/3 165/6/3
f 167/7/3 166/7/3 165/7/3
f 168/7/3 166/7/3 167/7/3
f 169/6/3 168/6/3 167/6/3
f 170/6/3 168/6/3 169/6/3
f 171/7/3 170/7/3 169/7/3
f 172/7/3 170/7/3 171/7/3
f 175/2/3 174/2/3 173/2/3
f 176/2/3 174/2/3 175/2/3
f 178/2/3 174/2/3 176/2/3
f 179/2/3 178/2/3 177/2/3
f 180/2/3 174/2/3 178/2/3
f 180/2/3 178/2/3 179/2/3
f 185/5/3 182/5/3 181/5/3
f 186/5/3 182/5/3 185/5/3
f 189/5/3 184/5/3 183/5/3
f 190/5/3 184/5/3 189/5/3
f 191/5/3 187/5/3 186/5/3
f 192/5/3 187/5/3 191/5/3
f 195/5/3 189/5/3 188/5/3
f 196/5/3 189/5/3 195/5/3
f 199/5/3 193/5/3 192/5/3
f 200/5/3 193/5/3 199/5/3
f 201/5/3 195/5/3 194/5/3
f 202/5/3 195/5/3 201/5/3
f 203/5/3 201/5/3 200/5/3
f 204/5/3 201/5/3 203/5/3
f 205/5/3 198/5/3 197/5/3
f 206/5/3 198/5/3 205/5/3
f 209/4/3 208/4/3 207/4/3
f 210/4/3 208/4/3 209/4/3
f 212/4/3 208/4/3 210/4/3
f 213/4/3 212/4/3 211/4/3
f 214/4/3 208/4/3 212/4/3
f 214/4/3 212/4/3 213/4/3
f 217/8/3 216/8/3 215/8/3
f 218/8/3 216/8/3 217/8/3
f 219/8/3 216/8/3 218/8/3
f 220/8/3 216/8/3 219/8/3
f 221/8/3 217/8/3 215/8/3
f 222/8/3 219/8/3 218/8/3
f 223/8/3 219/8/3 222/8/3
f 224/8/3 219/8/3 223/8/3
f 225/8/3 219/8/3 224/8/3
f 226/8/3 216/8/3 220/8/3
f 227/8/3 222/8/3 221/8/3
f 228/8/3 224/8/3 223/8/3
f 229/8/3 224/8/3 228/8/3
f 230/8/3 224/8/3 229/8/3
f 231/8/3 224/8/3 230/8/3
f 232/8/3 226/8/3 225/8/3
f 233/8/3 221/8/3 215/8/3
f 233/8/3 227/8/3 221/8/3
f 233/8/3 228/8/3 227/8/3
f 234/8/3 228/8/3 233/8/3
f 235/8/3 228/8/3 234/8/3
f 236/8/3 230/8/3 229/8/3
f 237/8/3 230/8/3 236/8/3
f 238/8/3 232/8/3 231/8/3
f 239/8/3 235/8/3 234/8/3
f 239/8/3 236/8/3 235/8/3
f 240/8/3 238/8/3 237/8/3
f 241/8/3 233/8/3 215/8/3
f 242/8/3 239/8/3 234/8/3
f 242/8/3 240/8/3 239/8/3
f 245/3/3 244/3/3 243/3/3
f 246/3/3 244/3/3 245/3/3
f 247/8/3 241/8/3 215/8/3
f 247/8/3 242/8/3 241/8/3
f 248/8/3 226/8/3 232/8/3
f 248/8/3 242/8/3 247/8/3
f 248/8/3 216/8/3 226/8/3
f 248/8/3 240/8/3 242/8/3
f 248/8/3 232/8/3 238/8/3
f 248/8/3 238/8/3 240/8/3
f 251/1/3 250/1/3 249/1/3
f 252/1/3 250/1/3 251/1/3
f 253/1/4 254/1/4 255/1/4
f 255/1/4 254/1/4 256/1/4
f 259/1/5 258/1/5 257/1/5
f 260/1/5 258/1/5 259/1/5
f 263/1/5 262/1/5 261/1/5
f 264/1/5 262/1/5 263/1/5
f 267/4/5 266/4/5 265/4/5
f 268/4/5 266/4/5 267/4/5
f 271/1/5 270/1/5 269/1/5
f 272/1/5 270/1/5 271/1/5
f 273/1/5 270/1/5 272/1/5
f 274/1/5 270/1/5 273/1/5
f 275/1/5 270/1/5 274/1/5
f 276/1/5 270/1/5 275/1/5
f 277/1/5 270/1/5 276/1/5
f 278/1/5 270/1/5 277/1/5
f 281/2/5 280/2/5 279/2/5
f 282/2/5 280/2/5 281/2/5
f 285/1/5 284/1/5 283/1/5
f 286/1/5 284/1/5 285/1/5
f 289/5/5 288/5/5 287/5/5
f 290/5/5 288/5/5 289/5/5
f 293/5/5 292/5/5 291/5/5
f 294/5/5 292/5/5 293/5/5
f 297/5/5 296/5/5 295/5/5
f 298/5/5 296/5/5 297/5/5
f 301/5/5 300/5/5 299/5/5
f 302/5/5 300/5/5 301/5/5
f 305/5/5 304/5/5 303/5/5
f 306/5/5 304/5/5 305/5/5
f 309/5/5 308/5/5 307/5/5
f 310/5/5 308/5/5 309/5/5
f 313/5/5 312/5/5 311/5/5
f 314/5/5 312/5/5 313/5/5
f 317/5/5 316/5/5 315/5/5
f 318/5/5 316/5/5 317/5/5
f 321/1/5 320/1/5 319/1/5
f 322/1/5 320/1/5 321/1/5
f 323/1/6 324/1/6 325/1/6
f 325/1/6 324/1/6 326/1/6
f 327/1/6 328/1/6 329/1/6
f 329/1/6 328/1/6 330/1/6
f 330/1/6 328/1/6 331/1/6
f 331/1/6 328/1/6 332/1/6
f 330/1/6 331/1/6 333/1/6
f 333/1/6 331/1/6 334/1/6
f 334/1/6 331/1/6 335/1/6
f 335/1/6 331/1/6 336/1/6
f 334/1/6 335/1/6 337/1/6
f 337/1/6 335/1/6 338/1/6
f 339/1/6 340/1/6 341/1/6
f 341/1/6 340/1/6 342/1/6
f 342/1/6 340/1/6 343/1/6
f 343/1/6 340/1/6 344/1/6
f 344/1/6 340/1/6 345/1/6
f 345/1/6 340/1/6 346/1/6
f 346/1/6 340/1/6 347/1/6
f 347/1/6 340/1/6 348/1/6
f 349/1/6 350/1/6 351/1/6
f 351/1/6 350/1/6 352/1/6
f 353/5/6 354/5/6 355/5/6
f 355/5/6 354/5/6 356/5/6
f 357/5/6 358/5/6 359/5/6
f 359/5/6 358/5/6 360/5/6
f 361/5/6 362/5/6 363/5/6
f 363/5/6 362/5/6 364/5/6
f 365/5/6 366/5/6 367/5/6
f 367/5/6 366/5/6 368/5/6
f 369/5/6 370/5/6 371/5/6
f 371/5/6 370/5/6 372/5/6
f 373/5/6 374/5/6 375/5/6
f 375/5/6 374/5/6 376/5/6
f 377/5/6 378/5/6 379/5/6
f 379/5/6 378/5/6 380/5/6
f 381/5/6 382/5/6 383/5/6
f 383/5/6 382/5/6 384/5/6
f 385/8/6 386/8/6 387/8/6
f 387/8/6 386/8/6 388/8/6
f 389/1/6 390/1/6 391/1/6
f 391/1/6 390/1/6 392/1/6
