# MagicaVoxel @ Ephtracy

# group
o 

# material
mtllib iftile [greaterequal].mtl
usemtl palette

# normals
vn -1 0 0
vn 1 0 0
vn 0 0 1
vn 0 0 -1
vn 0 -1 0
vn 0 1 0

# texcoords
vt 0.400391 0.5
vt 0.404297 0.5
vt 0.587891 0.5
vt 0.716797 0.5

# verts
v 1.4 2 -1
v 1.4 2 -3.2
v 1.4 2.1 -1
v 1.4 2.1 -3.2
v 1.6 2.1 -1.6
v 1.6 2.1 -1.8
v 1.6 2.1 -2.2
v 1.6 2.1 -2.8
v 1.6 2.2 -1.6
v 1.6 2.2 -1.8
v 1.6 2.2 -2.2
v 1.6 2.2 -2.8
v 1.6 2.3 -1.6
v 1.6 2.3 -1.8
v 1.6 2.3 -2.2
v 1.6 2.3 -2.8
v 2 2.1 -1
v 2 2.1 -1.2
v 2 2.1 -2.4
v 2 2.1 -2.6
v 2 2.1 -3
v 2 2.1 -3.2
v 2 2.2 -1
v 2 2.2 -1.2
v 2 2.2 -2.4
v 2 2.2 -2.6
v 2 2.2 -3
v 2 2.2 -3.2
v 2 2.3 -2.4
v 2 2.3 -2.6
v 2.5 2.1 -1.4
v 2.5 2.1 -1.7
v 2.5 2.2 -1.4
v 2.5 2.2 -1.7
v 2.5 2.3 -1.4
v 2.5 2.3 -1.7
v 2.6 2.1 -1.7
v 2.6 2.1 -1.8
v 2.6 2.1 -2.2
v 2.6 2.1 -2.8
v 2.6 2.2 -1.7
v 2.6 2.2 -1.8
v 2.6 2.2 -2.2
v 2.6 2.2 -2.8
v 2.6 2.3 -1.7
v 2.6 2.3 -1.8
v 2.6 2.3 -2.2
v 2.6 2.3 -2.8
v 2.7 2.1 -1.8
v 2.7 2.1 -1.9
v 2.7 2.2 -1.8
v 2.7 2.2 -1.9
v 2.7 2.3 -1.8
v 2.7 2.3 -1.9
v 2.8 2.1 -1.9
v 2.8 2.1 -2
v 2.8 2.2 -1.9
v 2.8 2.2 -2
v 2.8 2.3 -1.9
v 2.8 2.3 -2
v 2.9 2.1 -1.7
v 2.9 2.1 -1.8
v 2.9 2.2 -1.7
v 2.9 2.2 -1.8
v 2.9 2.3 -1.7
v 2.9 2.3 -1.8
v 3 2.1 -1.6
v 3 2.1 -1.7
v 3 2.1 -2.2
v 3 2.1 -2.8
v 3 2.2 -1.6
v 3 2.2 -1.7
v 3 2.2 -2.2
v 3 2.2 -2.8
v 3 2.3 -1.6
v 3 2.3 -1.7
v 3 2.3 -2.2
v 3 2.3 -2.8
v 3.1 2.1 -1.4
v 3.1 2.1 -1.6
v 3.1 2.2 -1.4
v 3.1 2.2 -1.6
v 3.1 2.3 -1.4
v 3.1 2.3 -1.6
v 3.2 2.1 -1.8
v 3.2 2.1 -2.2
v 3.2 2.2 -1.8
v 3.2 2.2 -2.2
v 1.8 2.1 -2.4
v 1.8 2.1 -2.8
v 1.8 2.2 -2.4
v 1.8 2.2 -2.8
v 1.8 2.3 -2.4
v 1.8 2.3 -2.8
v 2.2 2.1 -2.4
v 2.2 2.1 -2.6
v 2.2 2.2 -2.4
v 2.2 2.2 -2.6
v 2.2 2.3 -2.4
v 2.2 2.3 -2.6
v 2.4 2.1 -1.6
v 2.4 2.1 -1.8
v 2.4 2.1 -2.2
v 2.4 2.1 -2.4
v 2.4 2.2 -1.6
v 2.4 2.2 -1.8
v 2.4 2.2 -2.2
v 2.4 2.2 -2.4
v 2.4 2.3 -1.6
v 2.4 2.3 -1.8
v 2.4 2.3 -2.2
v 2.4 2.3 -2.4
v 2.6 2.1 -1
v 2.6 2.1 -1.2
v 2.6 2.1 -1.4
v 2.6 2.1 -1.6
v 2.6 2.1 -3
v 2.6 2.1 -3.2
v 2.6 2.2 -1
v 2.6 2.2 -1.2
v 2.6 2.2 -1.4
v 2.6 2.2 -1.6
v 2.6 2.2 -3
v 2.6 2.2 -3.2
v 2.6 2.3 -1.4
v 2.6 2.3 -1.6
v 2.7 2.1 -1.6
v 2.7 2.1 -1.7
v 2.7 2.2 -1.6
v 2.7 2.2 -1.7
v 2.7 2.3 -1.6
v 2.7 2.3 -1.7
v 2.8 2.1 -1.7
v 2.8 2.1 -1.8
v 2.8 2.1 -2.2
v 2.8 2.1 -2.8
v 2.8 2.2 -1.7
v 2.8 2.2 -1.8
v 2.8 2.2 -2.2
v 2.8 2.2 -2.8
v 2.8 2.3 -1.7
v 2.8 2.3 -1.8
v 2.8 2.3 -2.2
v 2.8 2.3 -2.8
v 2.9 2.1 -1.9
v 2.9 2.1 -2
v 2.9 2.2 -1.9
v 2.9 2.2 -2
v 2.9 2.3 -1.9
v 2.9 2.3 -2
v 3 2.1 -1.8
v 3 2.1 -1.9
v 3 2.2 -1.8
v 3 2.2 -1.9
v 3 2.3 -1.8
v 3 2.3 -1.9
v 3.1 2.1 -1.7
v 3.1 2.1 -1.8
v 3.1 2.2 -1.7
v 3.1 2.2 -1.8
v 3.1 2.3 -1.7
v 3.1 2.3 -1.8
v 3.2 2.1 -1.4
v 3.2 2.1 -1.7
v 3.2 2.1 -2.4
v 3.2 2.1 -2.8
v 3.2 2.2 -1.4
v 3.2 2.2 -1.7
v 3.2 2.2 -2.2
v 3.2 2.2 -2.4
v 3.2 2.2 -2.8
v 3.2 2.3 -1.4
v 3.2 2.3 -1.7
v 3.2 2.3 -2.2
v 3.2 2.3 -2.8
v 3.4 2 -1
v 3.4 2 -1.8
v 3.4 2 -2.4
v 3.4 2 -3.2
v 3.4 2.1 -1
v 3.4 2.1 -1.8
v 3.4 2.1 -2.4
v 3.4 2.1 -3.2
v 3.4 2.2 -1.8
v 3.4 2.2 -2.4
v 1.4 2 -1
v 1.4 2.1 -1
v 2 2 -1
v 2 2.1 -1
v 2 2.2 -1
v 2.6 2 -1
v 2.6 2.1 -1
v 2.6 2.2 -1
v 3.4 2 -1
v 3.4 2.1 -1
v 2.5 2.1 -1.4
v 2.5 2.2 -1.4
v 2.5 2.3 -1.4
v 2.6 2.1 -1.4
v 2.6 2.2 -1.4
v 2.6 2.3 -1.4
v 3.1 2.1 -1.4
v 3.1 2.2 -1.4
v 3.1 2.3 -1.4
v 3.2 2.1 -1.4
v 3.2 2.2 -1.4
v 3.2 2.3 -1.4
v 1.6 2.1 -1.6
v 1.6 2.2 -1.6
v 1.6 2.3 -1.6
v 2.4 2.1 -1.6
v 2.4 2.2 -1.6
v 2.4 2.3 -1.6
v 2.6 2.1 -1.6
v 2.6 2.2 -1.6
v 2.6 2.3 -1.6
v 2.7 2.1 -1.6
v 2.7 2.2 -1.6
v 2.7 2.3 -1.6
v 3 2.1 -1.6
v 3 2.2 -1.6
v 3 2.3 -1.6
v 3.1 2.1 -1.6
v 3.1 2.2 -1.6
v 3.1 2.3 -1.6
v 2.7 2.1 -1.7
v 2.7 2.2 -1.7
v 2.7 2.3 -1.7
v 2.8 2.1 -1.7
v 2.8 2.2 -1.7
v 2.8 2.3 -1.7
v 2.9 2.1 -1.7
v 2.9 2.2 -1.7
v 2.9 2.3 -1.7
v 3 2.1 -1.7
v 3 2.2 -1.7
v 3 2.3 -1.7
v 2.8 2.1 -1.8
v 2.8 2.2 -1.8
v 2.8 2.3 -1.8
v 2.9 2.1 -1.8
v 2.9 2.2 -1.8
v 2.9 2.3 -1.8
v 3.2 2.1 -1.8
v 3.2 2.2 -1.8
v 3.4 2.1 -1.8
v 3.4 2.2 -1.8
v 1.6 2.1 -2.2
v 1.6 2.2 -2.2
v 1.6 2.3 -2.2
v 2.4 2.1 -2.2
v 2.4 2.2 -2.2
v 2.4 2.3 -2.2
v 2.6 2.1 -2.2
v 2.6 2.2 -2.2
v 2.6 2.3 -2.2
v 2.8 2.1 -2.2
v 2.8 2.2 -2.2
v 2.8 2.3 -2.2
v 3 2.1 -2.2
v 3 2.2 -2.2
v 3 2.3 -2.2
v 3.2 2.1 -2.2
v 3.2 2.2 -2.2
v 3.2 2.3 -2.2
v 2 2.1 -3
v 2 2.2 -3
v 2.6 2.1 -3
v 2.6 2.2 -3
v 2 2.1 -1.2
v 2 2.2 -1.2
v 2.6 2.1 -1.2
v 2.6 2.2 -1.2
v 2.5 2.1 -1.7
v 2.5 2.2 -1.7
v 2.5 2.3 -1.7
v 2.6 2.1 -1.7
v 2.6 2.2 -1.7
v 2.6 2.3 -1.7
v 3.1 2.1 -1.7
v 3.1 2.2 -1.7
v 3.1 2.3 -1.7
v 3.2 2.1 -1.7
v 3.2 2.2 -1.7
v 3.2 2.3 -1.7
v 1.6 2.1 -1.8
v 1.6 2.2 -1.8
v 1.6 2.3 -1.8
v 2.4 2.1 -1.8
v 2.4 2.2 -1.8
v 2.4 2.3 -1.8
v 2.6 2.1 -1.8
v 2.6 2.2 -1.8
v 2.6 2.3 -1.8
v 2.7 2.1 -1.8
v 2.7 2.2 -1.8
v 2.7 2.3 -1.8
v 3 2.1 -1.8
v 3 2.2 -1.8
v 3 2.3 -1.8
v 3.1 2.1 -1.8
v 3.1 2.2 -1.8
v 3.1 2.3 -1.8
v 2.7 2.1 -1.9
v 2.7 2.2 -1.9
v 2.7 2.3 -1.9
v 2.8 2.1 -1.9
v 2.8 2.2 -1.9
v 2.8 2.3 -1.9
v 2.9 2.1 -1.9
v 2.9 2.2 -1.9
v 2.9 2.3 -1.9
v 3 2.1 -1.9
v 3 2.2 -1.9
v 3 2.3 -1.9
v 2.8 2.1 -2
v 2.8 2.2 -2
v 2.8 2.3 -2
v 2.9 2.1 -2
v 2.9 2.2 -2
v 2.9 2.3 -2
v 1.8 2.1 -2.4
v 1.8 2.2 -2.4
v 1.8 2.3 -2.4
v 2 2.1 -2.4
v 2 2.2 -2.4
v 2 2.3 -2.4
v 2.2 2.1 -2.4
v 2.2 2.2 -2.4
v 2.2 2.3 -2.4
v 2.4 2.1 -2.4
v 2.4 2.2 -2.4
v 2.4 2.3 -2.4
v 3.2 2.1 -2.4
v 3.2 2.2 -2.4
v 3.4 2.1 -2.4
v 3.4 2.2 -2.4
v 2 2.1 -2.6
v 2 2.2 -2.6
v 2 2.3 -2.6
v 2.2 2.1 -2.6
v 2.2 2.2 -2.6
v 2.2 2.3 -2.6
v 1.6 2.1 -2.8
v 1.6 2.2 -2.8
v 1.6 2.3 -2.8
v 1.8 2.1 -2.8
v 1.8 2.2 -2.8
v 1.8 2.3 -2.8
v 2.6 2.1 -2.8
v 2.6 2.2 -2.8
v 2.6 2.3 -2.8
v 2.8 2.1 -2.8
v 2.8 2.2 -2.8
v 2.8 2.3 -2.8
v 3 2.1 -2.8
v 3 2.2 -2.8
v 3 2.3 -2.8
v 3.2 2.1 -2.8
v 3.2 2.2 -2.8
v 3.2 2.3 -2.8
v 1.4 2 -3.2
v 1.4 2.1 -3.2
v 2 2 -3.2
v 2 2.1 -3.2
v 2 2.2 -3.2
v 2.6 2 -3.2
v 2.6 2.1 -3.2
v 2.6 2.2 -3.2
v 3.4 2 -3.2
v 3.4 2.1 -3.2
v 1.4 2 -1
v 2 2 -1
v 2.6 2 -1
v 3.4 2 -1
v 2 2 -1.2
v 2.6 2 -1.2
v 3.2 2 -1.8
v 3.4 2 -1.8
v 3.2 2 -2.4
v 3.4 2 -2.4
v 2 2 -3
v 2.6 2 -3
v 1.4 2 -3.2
v 2 2 -3.2
v 2.6 2 -3.2
v 3.4 2 -3.2
v 1.4 2.1 -1
v 2 2.1 -1
v 2.6 2.1 -1
v 3.4 2.1 -1
v 2 2.1 -1.2
v 2.6 2.1 -1.2
v 2.5 2.1 -1.4
v 2.6 2.1 -1.4
v 3.1 2.1 -1.4
v 3.2 2.1 -1.4
v 1.6 2.1 -1.6
v 2.4 2.1 -1.6
v 2.6 2.1 -1.6
v 2.7 2.1 -1.6
v 3 2.1 -1.6
v 3.1 2.1 -1.6
v 2.5 2.1 -1.7
v 2.6 2.1 -1.7
v 2.7 2.1 -1.7
v 2.8 2.1 -1.7
v 2.9 2.1 -1.7
v 3 2.1 -1.7
v 3.1 2.1 -1.7
v 3.2 2.1 -1.7
v 1.6 2.1 -1.8
v 2.4 2.1 -1.8
v 2.6 2.1 -1.8
v 2.7 2.1 -1.8
v 2.8 2.1 -1.8
v 2.9 2.1 -1.8
v 3 2.1 -1.8
v 3.1 2.1 -1.8
v 3.2 2.1 -1.8
v 3.4 2.1 -1.8
v 2.7 2.1 -1.9
v 2.8 2.1 -1.9
v 2.9 2.1 -1.9
v 3 2.1 -1.9
v 2.8 2.1 -2
v 2.9 2.1 -2
v 1.6 2.1 -2.2
v 2.4 2.1 -2.2
v 2.6 2.1 -2.2
v 2.8 2.1 -2.2
v 3 2.1 -2.2
v 3.2 2.1 -2.2
v 1.8 2.1 -2.4
v 2 2.1 -2.4
v 2.2 2.1 -2.4
v 2.4 2.1 -2.4
v 3.2 2.1 -2.4
v 3.4 2.1 -2.4
v 2 2.1 -2.6
v 2.2 2.1 -2.6
v 1.6 2.1 -2.8
v 1.8 2.1 -2.8
v 2.6 2.1 -2.8
v 2.8 2.1 -2.8
v 3 2.1 -2.8
v 3.2 2.1 -2.8
v 2 2.1 -3
v 2.6 2.1 -3
v 1.4 2.1 -3.2
v 2 2.1 -3.2
v 2.6 2.1 -3.2
v 3.4 2.1 -3.2
v 2 2.2 -1
v 2.6 2.2 -1
v 2 2.2 -1.2
v 2.6 2.2 -1.2
v 3.2 2.2 -1.8
v 3.4 2.2 -1.8
v 3.2 2.2 -2.2
v 3.2 2.2 -2.4
v 3.4 2.2 -2.4
v 2 2.2 -3
v 2.6 2.2 -3
v 2 2.2 -3.2
v 2.6 2.2 -3.2
v 2.5 2.3 -1.4
v 2.6 2.3 -1.4
v 3.1 2.3 -1.4
v 3.2 2.3 -1.4
v 1.6 2.3 -1.6
v 2.4 2.3 -1.6
v 2.6 2.3 -1.6
v 2.7 2.3 -1.6
v 3 2.3 -1.6
v 3.1 2.3 -1.6
v 2.5 2.3 -1.7
v 2.6 2.3 -1.7
v 2.7 2.3 -1.7
v 2.8 2.3 -1.7
v 2.9 2.3 -1.7
v 3 2.3 -1.7
v 3.1 2.3 -1.7
v 3.2 2.3 -1.7
v 1.6 2.3 -1.8
v 2.4 2.3 -1.8
v 2.6 2.3 -1.8
v 2.7 2.3 -1.8
v 2.8 2.3 -1.8
v 2.9 2.3 -1.8
v 3 2.3 -1.8
v 3.1 2.3 -1.8
v 2.7 2.3 -1.9
v 2.8 2.3 -1.9
v 2.9 2.3 -1.9
v 3 2.3 -1.9
v 2.8 2.3 -2
v 2.9 2.3 -2
v 1.6 2.3 -2.2
v 2.4 2.3 -2.2
v 2.6 2.3 -2.2
v 2.8 2.3 -2.2
v 3 2.3 -2.2
v 3.2 2.3 -2.2
v 1.8 2.3 -2.4
v 2 2.3 -2.4
v 2.2 2.3 -2.4
v 2.4 2.3 -2.4
v 2 2.3 -2.6
v 2.2 2.3 -2.6
v 1.6 2.3 -2.8
v 1.8 2.3 -2.8
v 2.6 2.3 -2.8
v 2.8 2.3 -2.8
v 3 2.3 -2.8
v 3.2 2.3 -2.8

# faces
f 3/3/1 2/3/1 1/3/1
f 4/3/1 2/3/1 3/3/1
f 9/3/1 6/3/1 5/3/1
f 10/3/1 6/3/1 9/3/1
f 11/3/1 8/3/1 7/3/1
f 12/3/1 8/3/1 11/3/1
f 13/4/1 10/4/1 9/4/1
f 14/4/1 10/4/1 13/4/1
f 15/4/1 12/4/1 11/4/1
f 16/4/1 12/4/1 15/4/1
f 23/1/1 18/1/1 17/1/1
f 24/1/1 18/1/1 23/1/1
f 25/3/1 20/3/1 19/3/1
f 26/3/1 20/3/1 25/3/1
f 27/2/1 22/2/1 21/2/1
f 28/2/1 22/2/1 27/2/1
f 29/4/1 26/4/1 25/4/1
f 30/4/1 26/4/1 29/4/1
f 33/3/1 32/3/1 31/3/1
f 34/3/1 32/3/1 33/3/1
f 35/4/1 34/4/1 33/4/1
f 36/4/1 34/4/1 35/4/1
f 41/3/1 38/3/1 37/3/1
f 42/3/1 38/3/1 41/3/1
f 43/3/1 40/3/1 39/3/1
f 44/3/1 40/3/1 43/3/1
f 45/4/1 42/4/1 41/4/1
f 46/4/1 42/4/1 45/4/1
f 47/4/1 44/4/1 43/4/1
f 48/4/1 44/4/1 47/4/1
f 51/3/1 50/3/1 49/3/1
f 52/3/1 50/3/1 51/3/1
f 53/4/1 52/4/1 51/4/1
f 54/4/1 52/4/1 53/4/1
f 57/3/1 56/3/1 55/3/1
f 58/3/1 56/3/1 57/3/1
f 59/4/1 58/4/1 57/4/1
f 60/4/1 58/4/1 59/4/1
f 63/3/1 62/3/1 61/3/1
f 64/3/1 62/3/1 63/3/1
f 65/4/1 64/4/1 63/4/1
f 66/4/1 64/4/1 65/4/1
f 71/3/1 68/3/1 67/3/1
f 72/3/1 68/3/1 71/3/1
f 73/3/1 70/3/1 69/3/1
f 74/3/1 70/3/1 73/3/1
f 75/4/1 72/4/1 71/4/1
f 76/4/1 72/4/1 75/4/1
f 77/4/1 74/4/1 73/4/1
f 78/4/1 74/4/1 77/4/1
f 81/3/1 80/3/1 79/3/1
f 82/3/1 80/3/1 81/3/1
f 83/4/1 82/4/1 81/4/1
f 84/4/1 82/4/1 83/4/1
f 87/1/1 86/1/1 85/1/1
f 88/1/1 86/1/1 87/1/1
f 89/3/2 90/3/2 91/3/2
f 91/3/2 90/3/2 92/3/2
f 91/4/2 92/4/2 93/4/2
f 93/4/2 92/4/2 94/4/2
f 95/3/2 96/3/2 97/3/2
f 97/3/2 96/3/2 98/3/2
f 97/4/2 98/4/2 99/4/2
f 99/4/2 98/4/2 100/4/2
f 101/3/2 102/3/2 105/3/2
f 105/3/2 102/3/2 106/3/2
f 103/3/2 104/3/2 107/3/2
f 107/3/2 104/3/2 108/3/2
f 105/4/2 106/4/2 109/4/2
f 109/4/2 106/4/2 110/4/2
f 107/4/2 108/4/2 111/4/2
f 111/4/2 108/4/2 112/4/2
f 113/1/2 114/1/2 119/1/2
f 119/1/2 114/1/2 120/1/2
f 115/3/2 116/3/2 121/3/2
f 121/3/2 116/3/2 122/3/2
f 117/2/2 118/2/2 123/2/2
f 123/2/2 118/2/2 124/2/2
f 121/4/2 122/4/2 125/4/2
f 125/4/2 122/4/2 126/4/2
f 127/3/2 128/3/2 129/3/2
f 129/3/2 128/3/2 130/3/2
f 129/4/2 130/4/2 131/4/2
f 131/4/2 130/4/2 132/4/2
f 133/3/2 134/3/2 137/3/2
f 137/3/2 134/3/2 138/3/2
f 135/3/2 136/3/2 139/3/2
f 139/3/2 136/3/2 140/3/2
f 137/4/2 138/4/2 141/4/2
f 141/4/2 138/4/2 142/4/2
f 139/4/2 140/4/2 143/4/2
f 143/4/2 140/4/2 144/4/2
f 145/3/2 146/3/2 147/3/2
f 147/3/2 146/3/2 148/3/2
f 147/4/2 148/4/2 149/4/2
f 149/4/2 148/4/2 150/4/2
f 151/3/2 152/3/2 153/3/2
f 153/3/2 152/3/2 154/3/2
f 153/4/2 154/4/2 155/4/2
f 155/4/2 154/4/2 156/4/2
f 157/3/2 158/3/2 159/3/2
f 159/3/2 158/3/2 160/3/2
f 159/4/2 160/4/2 161/4/2
f 161/4/2 160/4/2 162/4/2
f 163/3/2 164/3/2 167/3/2
f 167/3/2 164/3/2 168/3/2
f 165/3/2 166/3/2 170/3/2
f 170/3/2 166/3/2 171/3/2
f 167/4/2 168/4/2 172/4/2
f 172/4/2 168/4/2 173/4/2
f 169/4/2 170/4/2 174/4/2
f 170/4/2 171/4/2 174/4/2
f 174/4/2 171/4/2 175/4/2
f 176/3/2 177/3/2 180/3/2
f 177/1/2 178/1/2 181/1/2
f 180/3/2 177/3/2 181/3/2
f 178/3/2 179/3/2 182/3/2
f 181/1/2 178/1/2 182/1/2
f 182/3/2 179/3/2 183/3/2
f 181/1/2 182/1/2 184/1/2
f 184/1/2 182/1/2 185/1/2
f 188/3/3 187/3/3 186/3/3
f 189/3/3 187/3/3 188/3/3
f 191/1/3 189/1/3 188/1/3
f 191/1/3 190/1/3 189/1/3
f 192/1/3 190/1/3 191/1/3
f 193/1/3 190/1/3 192/1/3
f 194/3/3 192/3/3 191/3/3
f 195/3/3 192/3/3 194/3/3
f 199/3/3 197/3/3 196/3/3
f 200/4/3 198/4/3 197/4/3
f 200/3/3 197/3/3 199/3/3
f 201/4/3 198/4/3 200/4/3
f 205/3/3 203/3/3 202/3/3
f 206/4/3 204/4/3 203/4/3
f 206/3/3 203/3/3 205/3/3
f 207/4/3 204/4/3 206/4/3
f 211/3/3 209/3/3 208/3/3
f 212/4/3 210/4/3 209/4/3
f 212/3/3 209/3/3 211/3/3
f 213/4/3 210/4/3 212/4/3
f 217/3/3 215/3/3 214/3/3
f 218/4/3 216/4/3 215/4/3
f 218/3/3 215/3/3 217/3/3
f 219/4/3 216/4/3 218/4/3
f 223/3/3 221/3/3 220/3/3
f 224/4/3 222/4/3 221/4/3
f 224/3/3 221/3/3 223/3/3
f 225/4/3 222/4/3 224/4/3
f 229/3/3 227/3/3 226/3/3
f 230/4/3 228/4/3 227/4/3
f 230/3/3 227/3/3 229/3/3
f 231/4/3 228/4/3 230/4/3
f 235/3/3 233/3/3 232/3/3
f 236/4/3 234/4/3 233/4/3
f 236/3/3 233/3/3 235/3/3
f 237/4/3 234/4/3 236/4/3
f 241/3/3 239/3/3 238/3/3
f 242/4/3 240/4/3 239/4/3
f 242/3/3 239/3/3 241/3/3
f 243/4/3 240/4/3 242/4/3
f 246/1/3 245/1/3 244/1/3
f 247/1/3 245/1/3 246/1/3
f 251/3/3 249/3/3 248/3/3
f 252/4/3 250/4/3 249/4/3
f 252/3/3 249/3/3 251/3/3
f 253/4/3 250/4/3 252/4/3
f 257/3/3 255/3/3 254/3/3
f 258/4/3 256/4/3 255/4/3
f 258/3/3 255/3/3 257/3/3
f 259/4/3 256/4/3 258/4/3
f 263/3/3 261/3/3 260/3/3
f 264/4/3 262/4/3 261/4/3
f 264/3/3 261/3/3 263/3/3
f 265/4/3 262/4/3 264/4/3
f 268/2/3 267/2/3 266/2/3
f 269/2/3 267/2/3 268/2/3
f 270/1/4 271/1/4 272/1/4
f 272/1/4 271/1/4 273/1/4
f 274/3/4 275/3/4 277/3/4
f 275/4/4 276/4/4 278/4/4
f 277/3/4 275/3/4 278/3/4
f 278/4/4 276/4/4 279/4/4
f 280/3/4 281/3/4 283/3/4
f 281/4/4 282/4/4 284/4/4
f 283/3/4 281/3/4 284/3/4
f 284/4/4 282/4/4 285/4/4
f 286/3/4 287/3/4 289/3/4
f 287/4/4 288/4/4 290/4/4
f 289/3/4 287/3/4 290/3/4
f 290/4/4 288/4/4 291/4/4
f 292/3/4 293/3/4 295/3/4
f 293/4/4 294/4/4 296/4/4
f 295/3/4 293/3/4 296/3/4
f 296/4/4 294/4/4 297/4/4
f 298/3/4 299/3/4 301/3/4
f 299/4/4 300/4/4 302/4/4
f 301/3/4 299/3/4 302/3/4
f 302/4/4 300/4/4 303/4/4
f 304/3/4 305/3/4 307/3/4
f 305/4/4 306/4/4 308/4/4
f 307/3/4 305/3/4 308/3/4
f 308/4/4 306/4/4 309/4/4
f 310/3/4 311/3/4 313/3/4
f 311/4/4 312/4/4 314/4/4
f 313/3/4 311/3/4 314/3/4
f 314/4/4 312/4/4 315/4/4
f 316/3/4 317/3/4 319/3/4
f 317/4/4 318/4/4 320/4/4
f 319/3/4 317/3/4 320/3/4
f 320/4/4 318/4/4 321/4/4
f 322/3/4 323/3/4 325/3/4
f 323/4/4 324/4/4 326/4/4
f 325/3/4 323/3/4 326/3/4
f 326/4/4 324/4/4 327/4/4
f 328/3/4 329/3/4 331/3/4
f 329/4/4 330/4/4 332/4/4
f 331/3/4 329/3/4 332/3/4
f 332/4/4 330/4/4 333/4/4
f 334/1/4 335/1/4 336/1/4
f 336/1/4 335/1/4 337/1/4
f 338/3/4 339/3/4 341/3/4
f 339/4/4 340/4/4 342/4/4
f 341/3/4 339/3/4 342/3/4
f 342/4/4 340/4/4 343/4/4
f 344/3/4 345/3/4 347/3/4
f 345/4/4 346/4/4 348/4/4
f 347/3/4 345/3/4 348/3/4
f 348/4/4 346/4/4 349/4/4
f 350/3/4 351/3/4 353/3/4
f 351/4/4 352/4/4 354/4/4
f 353/3/4 351/3/4 354/3/4
f 354/4/4 352/4/4 355/4/4
f 356/3/4 357/3/4 359/3/4
f 357/4/4 358/4/4 360/4/4
f 359/3/4 357/3/4 360/3/4
f 360/4/4 358/4/4 361/4/4
f 362/3/4 363/3/4 364/3/4
f 364/3/4 363/3/4 365/3/4
f 364/2/4 365/2/4 367/2/4
f 365/2/4 366/2/4 367/2/4
f 367/2/4 366/2/4 368/2/4
f 368/2/4 366/2/4 369/2/4
f 367/3/4 368/3/4 370/3/4
f 370/3/4 368/3/4 371/3/4
f 376/3/5 373/3/5 372/3/5
f 376/1/5 374/1/5 373/1/5
f 377/3/5 375/3/5 374/3/5
f 377/1/5 374/1/5 376/1/5
f 378/3/5 377/3/5 376/3/5
f 378/3/5 375/3/5 377/3/5
f 379/3/5 375/3/5 378/3/5
f 380/3/5 378/3/5 376/3/5
f 380/1/5 379/1/5 378/1/5
f 381/1/5 379/1/5 380/1/5
f 382/3/5 376/3/5 372/3/5
f 382/3/5 380/3/5 376/3/5
f 382/3/5 381/3/5 380/3/5
f 383/3/5 381/3/5 382/3/5
f 384/3/5 382/3/5 372/3/5
f 385/2/5 383/2/5 382/2/5
f 385/3/5 382/3/5 384/3/5
f 386/3/5 381/3/5 383/3/5
f 386/2/5 383/2/5 385/2/5
f 387/3/5 381/3/5 386/3/5
f 388/3/6 389/3/6 392/3/6
f 390/3/6 391/3/6 393/3/6
f 392/3/6 393/3/6 394/3/6
f 393/3/6 391/3/6 395/3/6
f 394/3/6 393/3/6 395/3/6
f 395/3/6 391/3/6 396/3/6
f 396/3/6 391/3/6 397/3/6
f 388/3/6 392/3/6 398/3/6
f 392/3/6 394/3/6 398/3/6
f 398/3/6 394/3/6 399/3/6
f 395/3/6 396/3/6 400/3/6
f 400/3/6 396/3/6 401/3/6
f 401/3/6 396/3/6 402/3/6
f 402/3/6 396/3/6 403/3/6
f 399/3/6 394/3/6 404/3/6
f 401/3/6 402/3/6 406/3/6
f 406/3/6 402/3/6 407/3/6
f 407/3/6 402/3/6 408/3/6
f 408/3/6 402/3/6 409/3/6
f 397/3/6 391/3/6 411/3/6
f 388/3/6 398/3/6 412/3/6
f 404/3/6 405/3/6 413/3/6
f 399/3/6 404/3/6 413/3/6
f 413/3/6 405/3/6 414/3/6
f 407/3/6 408/3/6 416/3/6
f 416/3/6 408/3/6 417/3/6
f 410/3/6 411/3/6 419/3/6
f 411/3/6 391/3/6 420/3/6
f 419/3/6 411/3/6 420/3/6
f 420/3/6 391/3/6 421/3/6
f 414/3/6 415/3/6 422/3/6
f 412/3/6 413/3/6 422/3/6
f 413/3/6 414/3/6 422/3/6
f 419/3/6 420/3/6 425/3/6
f 418/3/6 419/3/6 425/3/6
f 422/3/6 423/3/6 426/3/6
f 424/3/6 425/3/6 427/3/6
f 422/3/6 426/3/6 428/3/6
f 426/3/6 427/3/6 428/3/6
f 412/3/6 422/3/6 428/3/6
f 388/3/6 412/3/6 428/3/6
f 428/3/6 427/3/6 429/3/6
f 429/3/6 427/3/6 430/3/6
f 430/3/6 427/3/6 431/3/6
f 427/3/6 425/3/6 432/3/6
f 431/3/6 427/3/6 432/3/6
f 425/3/6 420/3/6 432/3/6
f 432/3/6 420/3/6 433/3/6
f 429/3/6 430/3/6 437/3/6
f 434/3/6 435/3/6 440/3/6
f 436/3/6 437/3/6 441/3/6
f 388/3/6 428/3/6 442/3/6
f 434/3/6 440/3/6 443/3/6
f 440/3/6 441/3/6 443/3/6
f 441/3/6 437/3/6 444/3/6
f 437/3/6 430/3/6 444/3/6
f 443/3/6 441/3/6 444/3/6
f 431/3/6 432/3/6 445/3/6
f 445/3/6 432/3/6 446/3/6
f 438/3/6 439/3/6 447/3/6
f 445/3/6 446/3/6 448/3/6
f 446/3/6 447/3/6 448/3/6
f 442/3/6 443/3/6 448/3/6
f 443/3/6 444/3/6 448/3/6
f 444/3/6 445/3/6 448/3/6
f 448/3/6 447/3/6 449/3/6
f 388/3/6 442/3/6 450/3/6
f 442/3/6 448/3/6 450/3/6
f 450/3/6 448/3/6 451/3/6
f 449/3/6 447/3/6 452/3/6
f 447/3/6 439/3/6 453/3/6
f 452/3/6 447/3/6 453/3/6
f 454/1/6 455/1/6 456/1/6
f 456/1/6 455/1/6 457/1/6
f 458/1/6 459/1/6 460/1/6
f 460/1/6 459/1/6 461/1/6
f 461/1/6 459/1/6 462/1/6
f 463/2/6 464/2/6 465/2/6
f 465/2/6 464/2/6 466/2/6
f 467/4/6 468/4/6 473/4/6
f 469/4/6 470/4/6 476/4/6
f 473/4/6 474/4/6 477/4/6
f 467/4/6 473/4/6 477/4/6
f 477/4/6 474/4/6 478/4/6
f 478/4/6 474/4/6 479/4/6
f 475/4/6 476/4/6 482/4/6
f 476/4/6 470/4/6 483/4/6
f 482/4/6 476/4/6 483/4/6
f 483/4/6 470/4/6 484/4/6
f 471/4/6 472/4/6 485/4/6
f 485/4/6 472/4/6 486/4/6
f 479/4/6 480/4/6 487/4/6
f 478/4/6 479/4/6 487/4/6
f 487/4/6 480/4/6 488/4/6
f 488/4/6 480/4/6 489/4/6
f 481/4/6 482/4/6 490/4/6
f 482/4/6 483/4/6 490/4/6
f 490/4/6 483/4/6 491/4/6
f 491/4/6 483/4/6 492/4/6
f 488/4/6 489/4/6 493/4/6
f 490/4/6 491/4/6 493/4/6
f 489/4/6 490/4/6 493/4/6
f 493/4/6 491/4/6 494/4/6
f 494/4/6 491/4/6 495/4/6
f 495/4/6 491/4/6 496/4/6
f 494/4/6 495/4/6 497/4/6
f 497/4/6 495/4/6 498/4/6
f 499/4/6 500/4/6 505/4/6
f 505/4/6 500/4/6 506/4/6
f 506/4/6 500/4/6 507/4/6
f 507/4/6 500/4/6 508/4/6
f 506/4/6 507/4/6 509/4/6
f 509/4/6 507/4/6 510/4/6
f 499/4/6 505/4/6 511/4/6
f 511/4/6 505/4/6 512/4/6
f 501/4/6 502/4/6 513/4/6
f 513/4/6 502/4/6 514/4/6
f 503/4/6 504/4/6 515/4/6
f 515/4/6 504/4/6 516/4/6
