# MagicaVoxel @ Ephtracy

# group
o 

# material
mtllib switchtile [off].mtl
usemtl palette

# normals
vn -1 0 0
vn 1 0 0
vn 0 0 1
vn 0 0 -1
vn 0 -1 0
vn 0 1 0

# texcoords
vt 0.369141 0.5
vt 0.400391 0.5
vt 0.404297 0.5
vt 0.587891 0.5
vt 0.974609 0.5
vt 0.978516 0.5
vt 0.986328 0.5

# verts
v 1.4 2 -1
v 1.4 2 -1.8
v 1.4 2 -2.4
v 1.4 2 -3.2
v 1.4 2.1 -1
v 1.4 2.1 -1.8
v 1.4 2.1 -2.4
v 1.4 2.1 -3.2
v 1.4 2.2 -1.8
v 1.4 2.2 -2.4
v 2 2.1 -1
v 2 2.1 -1.2
v 2 2.1 -3
v 2 2.1 -3.2
v 2 2.2 -1
v 2 2.2 -1.2
v 2 2.2 -3
v 2 2.2 -3.2
v 2.1 2.1 -1.5
v 2.1 2.1 -1.7
v 2.1 2.1 -1.8
v 2.1 2.1 -2.1
v 2.1 2.1 -2.2
v 2.1 2.1 -2.4
v 2.1 2.1 -2.5
v 2.1 2.1 -2.6
v 2.1 2.1 -2.7
v 2.1 2.2 -1.5
v 2.1 2.2 -1.7
v 2.1 2.2 -1.8
v 2.1 2.2 -2.1
v 2.1 2.2 -2.2
v 2.1 2.2 -2.4
v 2.1 2.2 -2.5
v 2.1 2.2 -2.6
v 2.1 2.2 -2.7
v 2.2 2.9 -2.7
v 2.2 2.9 -2.9
v 2.2 3.1 -2.7
v 2.2 3.1 -2.9
v 2.3 2.2 -1.8
v 2.3 2.2 -1.9
v 2.3 2.2 -2
v 2.3 2.2 -2.1
v 2.3 2.2 -2.3
v 2.3 2.3 -1.8
v 2.3 2.3 -1.9
v 2.3 2.3 -2.3
v 2.3 2.3 -2.4
v 2.3 2.4 -1.9
v 2.3 2.4 -2
v 2.3 2.4 -2.4
v 2.3 2.4 -2.5
v 2.3 2.5 -2
v 2.3 2.5 -2.1
v 2.3 2.5 -2.5
v 2.3 2.5 -2.6
v 2.3 2.6 -2.1
v 2.3 2.6 -2.2
v 2.3 2.6 -2.6
v 2.3 2.6 -2.7
v 2.3 2.7 -2.2
v 2.3 2.7 -2.3
v 2.3 2.7 -2.7
v 2.3 2.7 -2.8
v 2.3 2.8 -2.3
v 2.3 2.8 -2.4
v 2.3 2.8 -2.9
v 2.3 2.8 -3
v 2.3 2.9 -2.4
v 2.3 2.9 -2.5
v 2.3 2.9 -2.7
v 2.3 2.9 -2.8
v 2.3 2.9 -2.9
v 2.3 2.9 -3
v 2.3 2.9 -3.1
v 2.3 3 -2.5
v 2.3 3 -2.6
v 2.3 3.1 -2.6
v 2.3 3.1 -2.7
v 2.3 3.1 -2.9
v 2.3 3.2 -2.7
v 2.3 3.2 -2.8
v 2.3 3.2 -3
v 2.3 3.2 -3.1
v 2.3 3.3 -2.8
v 2.3 3.3 -3
v 2.4 3 -3.1
v 2.4 3 -3.2
v 2.4 3.1 -3.1
v 2.4 3.1 -3.2
v 2.4 3.2 -3
v 2.4 3.2 -3.1
v 2.4 3.3 -3
v 2.4 3.3 -3.1
v 2.5 2.8 -2.8
v 2.5 2.8 -2.9
v 2.5 2.9 -2.8
v 2.5 2.9 -2.9
v 3.2 2.1 -1.8
v 3.2 2.1 -2.4
v 3.2 2.2 -1.8
v 3.2 2.2 -2.4
v 1.6 2.1 -1.8
v 1.6 2.1 -2.4
v 1.6 2.2 -1.8
v 1.6 2.2 -2.4
v 2.5 2.8 -2.9
v 2.5 2.8 -3
v 2.5 2.9 -2.9
v 2.5 2.9 -3
v 2.5 3.2 -2.8
v 2.5 3.2 -3.1
v 2.5 3.3 -2.8
v 2.5 3.3 -3.1
v 2.6 2.1 -1
v 2.6 2.1 -1.2
v 2.6 2.1 -3
v 2.6 2.1 -3.2
v 2.6 2.2 -1
v 2.6 2.2 -1.2
v 2.6 2.2 -1.8
v 2.6 2.2 -1.9
v 2.6 2.2 -2.2
v 2.6 2.2 -2.3
v 2.6 2.2 -3
v 2.6 2.2 -3.2
v 2.6 2.3 -1.8
v 2.6 2.3 -1.9
v 2.6 2.3 -2.3
v 2.6 2.3 -2.4
v 2.6 2.4 -1.9
v 2.6 2.4 -2
v 2.6 2.4 -2.4
v 2.6 2.4 -2.5
v 2.6 2.5 -2
v 2.6 2.5 -2.1
v 2.6 2.5 -2.5
v 2.6 2.5 -2.6
v 2.6 2.6 -2.1
v 2.6 2.6 -2.2
v 2.6 2.6 -2.6
v 2.6 2.6 -2.7
v 2.6 2.7 -2.2
v 2.6 2.7 -2.3
v 2.6 2.7 -2.7
v 2.6 2.7 -2.8
v 2.6 2.8 -2.3
v 2.6 2.8 -2.4
v 2.6 2.8 -2.8
v 2.6 2.8 -2.9
v 2.6 2.9 -2.4
v 2.6 2.9 -2.5
v 2.6 2.9 -2.7
v 2.6 2.9 -2.9
v 2.6 3 -2.5
v 2.6 3 -2.6
v 2.6 3 -2.9
v 2.6 3 -3.1
v 2.6 3 -3.2
v 2.6 3.1 -2.6
v 2.6 3.1 -2.7
v 2.6 3.1 -2.8
v 2.6 3.1 -2.9
v 2.6 3.1 -3.1
v 2.6 3.1 -3.2
v 2.6 3.2 -2.8
v 2.6 3.2 -3.1
v 2.7 2.1 -1.5
v 2.7 2.1 -1.6
v 2.7 2.1 -1.7
v 2.7 2.1 -1.9
v 2.7 2.1 -2.2
v 2.7 2.1 -2.4
v 2.7 2.1 -2.6
v 2.7 2.1 -2.7
v 2.7 2.2 -1.5
v 2.7 2.2 -1.6
v 2.7 2.2 -1.7
v 2.7 2.2 -1.9
v 2.7 2.2 -2.2
v 2.7 2.2 -2.4
v 2.7 2.2 -2.6
v 2.7 2.2 -2.7
v 2.7 2.9 -2.7
v 2.7 2.9 -3.1
v 2.7 3 -2.9
v 2.7 3 -3.1
v 2.7 3.1 -2.8
v 2.7 3.1 -2.9
v 2.7 3.2 -2.7
v 2.7 3.2 -2.8
v 3.4 2 -1
v 3.4 2 -1.8
v 3.4 2 -2.4
v 3.4 2 -3.2
v 3.4 2.1 -1
v 3.4 2.1 -1.8
v 3.4 2.1 -2.4
v 3.4 2.1 -3.2
v 3.4 2.2 -1.8
v 3.4 2.2 -2.4
v 1.4 2 -1
v 1.4 2.1 -1
v 2 2 -1
v 2 2.1 -1
v 2 2.2 -1
v 2.6 2 -1
v 2.6 2.1 -1
v 2.6 2.2 -1
v 3.4 2 -1
v 3.4 2.1 -1
v 2.1 2.1 -1.5
v 2.1 2.2 -1.5
v 2.4 2.1 -1.5
v 2.4 2.2 -1.5
v 2.5 2.1 -1.5
v 2.5 2.2 -1.5
v 2.6 2.1 -1.5
v 2.6 2.2 -1.5
v 2.7 2.1 -1.5
v 2.7 2.2 -1.5
v 1.4 2.1 -1.8
v 1.4 2.2 -1.8
v 1.6 2.1 -1.8
v 1.6 2.2 -1.8
v 2.3 2.2 -1.8
v 2.3 2.3 -1.8
v 2.4 2.2 -1.8
v 2.6 2.2 -1.8
v 2.6 2.3 -1.8
v 3.2 2.1 -1.8
v 3.2 2.2 -1.8
v 3.4 2.1 -1.8
v 3.4 2.2 -1.8
v 2.3 2.3 -1.9
v 2.3 2.4 -1.9
v 2.6 2.3 -1.9
v 2.6 2.4 -1.9
v 2.3 2.4 -2
v 2.3 2.5 -2
v 2.6 2.4 -2
v 2.6 2.5 -2
v 2.3 2.5 -2.1
v 2.3 2.6 -2.1
v 2.6 2.5 -2.1
v 2.6 2.6 -2.1
v 2.3 2.6 -2.2
v 2.3 2.7 -2.2
v 2.6 2.6 -2.2
v 2.6 2.7 -2.2
v 2.3 2.7 -2.3
v 2.3 2.8 -2.3
v 2.6 2.7 -2.3
v 2.6 2.8 -2.3
v 2.3 2.8 -2.4
v 2.3 2.9 -2.4
v 2.6 2.8 -2.4
v 2.6 2.9 -2.4
v 2.3 2.9 -2.5
v 2.3 3 -2.5
v 2.6 2.9 -2.5
v 2.6 3 -2.5
v 2.3 3 -2.6
v 2.3 3.1 -2.6
v 2.6 3 -2.6
v 2.6 3.1 -2.6
v 2.2 2.9 -2.7
v 2.2 3.1 -2.7
v 2.3 2.9 -2.7
v 2.3 3.1 -2.7
v 2.3 3.2 -2.7
v 2.6 2.9 -2.7
v 2.6 3.1 -2.7
v 2.7 2.9 -2.7
v 2.7 3.2 -2.7
v 2.3 3.2 -2.8
v 2.3 3.3 -2.8
v 2.5 3.2 -2.8
v 2.5 3.3 -2.8
v 2.3 2.8 -2.9
v 2.3 2.9 -2.9
v 2.5 2.8 -2.9
v 2.5 2.9 -2.9
v 2 2.1 -3
v 2 2.2 -3
v 2.6 2.1 -3
v 2.6 2.2 -3
v 2 2.1 -1.2
v 2 2.2 -1.2
v 2.6 2.1 -1.2
v 2.6 2.2 -1.2
v 2.3 2.2 -2.3
v 2.3 2.3 -2.3
v 2.5 2.2 -2.3
v 2.6 2.2 -2.3
v 2.6 2.3 -2.3
v 1.4 2.1 -2.4
v 1.4 2.2 -2.4
v 1.6 2.1 -2.4
v 1.6 2.2 -2.4
v 2.3 2.3 -2.4
v 2.3 2.4 -2.4
v 2.6 2.3 -2.4
v 2.6 2.4 -2.4
v 3.2 2.1 -2.4
v 3.2 2.2 -2.4
v 3.4 2.1 -2.4
v 3.4 2.2 -2.4
v 2.3 2.4 -2.5
v 2.3 2.5 -2.5
v 2.6 2.4 -2.5
v 2.6 2.5 -2.5
v 2.3 2.5 -2.6
v 2.3 2.6 -2.6
v 2.6 2.5 -2.6
v 2.6 2.6 -2.6
v 2.1 2.1 -2.7
v 2.1 2.2 -2.7
v 2.2 2.1 -2.7
v 2.2 2.2 -2.7
v 2.3 2.6 -2.7
v 2.3 2.7 -2.7
v 2.4 2.1 -2.7
v 2.4 2.2 -2.7
v 2.5 2.1 -2.7
v 2.5 2.2 -2.7
v 2.6 2.6 -2.7
v 2.6 2.7 -2.7
v 2.7 2.1 -2.7
v 2.7 2.2 -2.7
v 2.3 2.7 -2.8
v 2.3 2.9 -2.8
v 2.5 2.8 -2.8
v 2.5 2.9 -2.8
v 2.6 2.7 -2.8
v 2.6 2.8 -2.8
v 2.6 3.1 -2.8
v 2.6 3.2 -2.8
v 2.7 3.1 -2.8
v 2.7 3.2 -2.8
v 2.2 2.9 -2.9
v 2.2 3.1 -2.9
v 2.3 2.9 -2.9
v 2.3 3.1 -2.9
v 2.5 2.8 -2.9
v 2.5 2.9 -2.9
v 2.6 2.8 -2.9
v 2.6 2.9 -2.9
v 2.6 3 -2.9
v 2.6 3.1 -2.9
v 2.7 3 -2.9
v 2.7 3.1 -2.9
v 2.3 2.8 -3
v 2.3 2.9 -3
v 2.3 3.2 -3
v 2.3 3.3 -3
v 2.4 3.2 -3
v 2.4 3.3 -3
v 2.5 2.8 -3
v 2.5 2.9 -3
v 2.3 2.9 -3.1
v 2.3 3.2 -3.1
v 2.4 3 -3.1
v 2.4 3.1 -3.1
v 2.4 3.2 -3.1
v 2.4 3.3 -3.1
v 2.5 3.2 -3.1
v 2.5 3.3 -3.1
v 2.6 3 -3.1
v 2.6 3.1 -3.1
v 2.6 3.2 -3.1
v 2.7 2.9 -3.1
v 2.7 3 -3.1
v 1.4 2 -3.2
v 1.4 2.1 -3.2
v 2 2 -3.2
v 2 2.1 -3.2
v 2 2.2 -3.2
v 2.4 3 -3.2
v 2.4 3.1 -3.2
v 2.6 2 -3.2
v 2.6 2.1 -3.2
v 2.6 2.2 -3.2
v 2.6 3 -3.2
v 2.6 3.1 -3.2
v 3.4 2 -3.2
v 3.4 2.1 -3.2
v 1.4 2 -1
v 2 2 -1
v 2.6 2 -1
v 3.4 2 -1
v 2 2 -1.2
v 2.6 2 -1.2
v 1.4 2 -1.8
v 1.5 2 -1.8
v 3.2 2 -1.8
v 3.4 2 -1.8
v 1.4 2 -2.4
v 1.5 2 -2.4
v 3.2 2 -2.4
v 3.4 2 -2.4
v 2 2 -3
v 2.6 2 -3
v 1.4 2 -3.2
v 2 2 -3.2
v 2.6 2 -3.2
v 3.4 2 -3.2
v 2.3 2.3 -2.3
v 2.6 2.3 -2.3
v 2.3 2.3 -2.4
v 2.6 2.3 -2.4
v 2.3 2.4 -2.4
v 2.6 2.4 -2.4
v 2.3 2.4 -2.5
v 2.6 2.4 -2.5
v 2.3 2.5 -2.5
v 2.6 2.5 -2.5
v 2.3 2.5 -2.6
v 2.6 2.5 -2.6
v 2.3 2.6 -2.6
v 2.6 2.6 -2.6
v 2.3 2.6 -2.7
v 2.6 2.6 -2.7
v 2.3 2.7 -2.7
v 2.6 2.7 -2.7
v 2.3 2.7 -2.8
v 2.6 2.7 -2.8
v 2.5 2.8 -2.8
v 2.6 2.8 -2.8
v 2.3 2.8 -2.9
v 2.5 2.8 -2.9
v 2.6 2.8 -2.9
v 2.3 2.8 -3
v 2.5 2.8 -3
v 2.2 2.9 -2.7
v 2.3 2.9 -2.7
v 2.6 2.9 -2.7
v 2.7 2.9 -2.7
v 2.3 2.9 -2.8
v 2.5 2.9 -2.8
v 2.2 2.9 -2.9
v 2.3 2.9 -2.9
v 2.5 2.9 -2.9
v 2.6 2.9 -2.9
v 2.3 2.9 -3
v 2.5 2.9 -3
v 2.3 2.9 -3.1
v 2.7 2.9 -3.1
v 2.4 3 -3.1
v 2.6 3 -3.1
v 2.4 3 -3.2
v 2.6 3 -3.2
v 1.4 2.1 -1
v 2 2.1 -1
v 2.6 2.1 -1
v 3.4 2.1 -1
v 2 2.1 -1.2
v 2.6 2.1 -1.2
v 2.1 2.1 -1.5
v 2.4 2.1 -1.5
v 2.5 2.1 -1.5
v 2.6 2.1 -1.5
v 2.7 2.1 -1.5
v 2.7 2.1 -1.6
v 2.1 2.1 -1.7
v 2.7 2.1 -1.7
v 1.4 2.1 -1.8
v 1.6 2.1 -1.8
v 2.1 2.1 -1.8
v 3.2 2.1 -1.8
v 3.4 2.1 -1.8
v 2.7 2.1 -1.9
v 2.1 2.1 -2.1
v 2.1 2.1 -2.2
v 2.7 2.1 -2.2
v 1.4 2.1 -2.4
v 1.6 2.1 -2.4
v 2.1 2.1 -2.4
v 2.7 2.1 -2.4
v 3.2 2.1 -2.4
v 3.4 2.1 -2.4
v 2.1 2.1 -2.5
v 2.1 2.1 -2.6
v 2.7 2.1 -2.6
v 2.1 2.1 -2.7
v 2.2 2.1 -2.7
v 2.4 2.1 -2.7
v 2.5 2.1 -2.7
v 2.7 2.1 -2.7
v 2 2.1 -3
v 2.6 2.1 -3
v 1.4 2.1 -3.2
v 2 2.1 -3.2
v 2.6 2.1 -3.2
v 3.4 2.1 -3.2
v 2 2.2 -1
v 2.6 2.2 -1
v 2 2.2 -1.2
v 2.6 2.2 -1.2
v 2.1 2.2 -1.5
v 2.4 2.2 -1.5
v 2.5 2.2 -1.5
v 2.6 2.2 -1.5
v 2.7 2.2 -1.5
v 2.2 2.2 -1.6
v 2.4 2.2 -1.6
v 2.5 2.2 -1.6
v 2.6 2.2 -1.6
v 2.7 2.2 -1.6
v 2.1 2.2 -1.7
v 2.2 2.2 -1.7
v 2.3 2.2 -1.7
v 2.4 2.2 -1.7
v 2.5 2.2 -1.7
v 2.6 2.2 -1.7
v 2.7 2.2 -1.7
v 1.4 2.2 -1.8
v 1.6 2.2 -1.8
v 2.1 2.2 -1.8
v 2.2 2.2 -1.8
v 2.3 2.2 -1.8
v 2.4 2.2 -1.8
v 2.6 2.2 -1.8
v 3.2 2.2 -1.8
v 3.4 2.2 -1.8
v 2.2 2.2 -1.9
v 2.3 2.2 -1.9
v 2.6 2.2 -1.9
v 2.7 2.2 -1.9
v 2.2 2.2 -2
v 2.3 2.2 -2
v 2.1 2.2 -2.1
v 2.2 2.2 -2.1
v 2.3 2.2 -2.1
v 2.1 2.2 -2.2
v 2.2 2.2 -2.2
v 2.6 2.2 -2.2
v 2.7 2.2 -2.2
v 2.3 2.2 -2.3
v 2.5 2.2 -2.3
v 2.6 2.2 -2.3
v 1.4 2.2 -2.4
v 1.6 2.2 -2.4
v 2.1 2.2 -2.4
v 2.2 2.2 -2.4
v 2.5 2.2 -2.4
v 2.7 2.2 -2.4
v 3.2 2.2 -2.4
v 3.4 2.2 -2.4
v 2.1 2.2 -2.5
v 2.2 2.2 -2.5
v 2.3 2.2 -2.5
v 2.4 2.2 -2.5
v 2.5 2.2 -2.5
v 2.6 2.2 -2.5
v 2.1 2.2 -2.6
v 2.2 2.2 -2.6
v 2.3 2.2 -2.6
v 2.4 2.2 -2.6
v 2.5 2.2 -2.6
v 2.6 2.2 -2.6
v 2.7 2.2 -2.6
v 2.1 2.2 -2.7
v 2.2 2.2 -2.7
v 2.4 2.2 -2.7
v 2.5 2.2 -2.7
v 2.7 2.2 -2.7
v 2 2.2 -3
v 2.6 2.2 -3
v 2 2.2 -3.2
v 2.6 2.2 -3.2
v 2.3 2.3 -1.8
v 2.6 2.3 -1.8
v 2.3 2.3 -1.9
v 2.6 2.3 -1.9
v 2.3 2.4 -1.9
v 2.6 2.4 -1.9
v 2.3 2.4 -2
v 2.6 2.4 -2
v 2.3 2.5 -2
v 2.6 2.5 -2
v 2.3 2.5 -2.1
v 2.6 2.5 -2.1
v 2.3 2.6 -2.1
v 2.6 2.6 -2.1
v 2.3 2.6 -2.2
v 2.6 2.6 -2.2
v 2.3 2.7 -2.2
v 2.6 2.7 -2.2
v 2.3 2.7 -2.3
v 2.6 2.7 -2.3
v 2.3 2.8 -2.3
v 2.6 2.8 -2.3
v 2.3 2.8 -2.4
v 2.6 2.8 -2.4
v 2.3 2.9 -2.4
v 2.6 2.9 -2.4
v 2.3 2.9 -2.5
v 2.6 2.9 -2.5
v 2.3 3 -2.5
v 2.6 3 -2.5
v 2.3 3 -2.6
v 2.6 3 -2.6
v 2.6 3 -2.9
v 2.7 3 -2.9
v 2.6 3 -3.1
v 2.7 3 -3.1
v 2.3 3.1 -2.6
v 2.6 3.1 -2.6
v 2.2 3.1 -2.7
v 2.3 3.1 -2.7
v 2.6 3.1 -2.7
v 2.6 3.1 -2.8
v 2.7 3.1 -2.8
v 2.2 3.1 -2.9
v 2.3 3.1 -2.9
v 2.6 3.1 -2.9
v 2.7 3.1 -2.9
v 2.4 3.1 -3.1
v 2.6 3.1 -3.1
v 2.4 3.1 -3.2
v 2.6 3.1 -3.2
v 2.3 3.2 -2.7
v 2.7 3.2 -2.7
v 2.3 3.2 -2.8
v 2.5 3.2 -2.8
v 2.6 3.2 -2.8
v 2.7 3.2 -2.8
v 2.3 3.2 -3
v 2.4 3.2 -3
v 2.3 3.2 -3.1
v 2.4 3.2 -3.1
v 2.5 3.2 -3.1
v 2.6 3.2 -3.1
v 2.3 3.3 -2.8
v 2.5 3.3 -2.8
v 2.3 3.3 -3
v 2.4 3.3 -3
v 2.4 3.3 -3.1
v 2.5 3.3 -3.1

# faces
f 5/4/1 2/4/1 1/4/1
f 6/2/1 3/2/1 2/2/1
f 6/4/1 2/4/1 5/4/1
f 7/4/1 4/4/1 3/4/1
f 7/2/1 3/2/1 6/2/1
f 8/4/1 4/4/1 7/4/1
f 9/2/1 7/2/1 6/2/1
f 10/2/1 7/2/1 9/2/1
f 15/2/1 12/2/1 11/2/1
f 16/2/1 12/2/1 15/2/1
f 17/3/1 14/3/1 13/3/1
f 18/3/1 14/3/1 17/3/1
f 28/6/1 20/6/1 19/6/1
f 29/7/1 21/7/1 20/7/1
f 29/6/1 20/6/1 28/6/1
f 30/5/1 22/5/1 21/5/1
f 30/7/1 21/7/1 29/7/1
f 31/7/1 23/7/1 22/7/1
f 31/5/1 22/5/1 30/5/1
f 32/6/1 24/6/1 23/6/1
f 32/7/1 23/7/1 31/7/1
f 33/7/1 25/7/1 24/7/1
f 33/6/1 24/6/1 32/6/1
f 34/5/1 26/5/1 25/5/1
f 34/7/1 25/7/1 33/7/1
f 35/7/1 27/7/1 26/7/1
f 35/5/1 26/5/1 34/5/1
f 36/7/1 27/7/1 35/7/1
f 39/7/1 38/7/1 37/7/1
f 40/7/1 38/7/1 39/7/1
f 46/1/1 42/1/1 41/1/1
f 46/1/1 45/1/1 44/1/1
f 46/1/1 44/1/1 43/1/1
f 46/1/1 43/1/1 42/1/1
f 47/1/1 45/1/1 46/1/1
f 48/1/1 45/1/1 47/1/1
f 50/1/1 49/1/1 48/1/1
f 50/1/1 48/1/1 47/1/1
f 51/1/1 49/1/1 50/1/1
f 52/1/1 49/1/1 51/1/1
f 54/1/1 53/1/1 52/1/1
f 54/1/1 52/1/1 51/1/1
f 55/1/1 53/1/1 54/1/1
f 56/1/1 53/1/1 55/1/1
f 58/1/1 57/1/1 56/1/1
f 58/1/1 56/1/1 55/1/1
f 59/1/1 57/1/1 58/1/1
f 60/1/1 57/1/1 59/1/1
f 62/1/1 61/1/1 60/1/1
f 62/1/1 60/1/1 59/1/1
f 63/1/1 61/1/1 62/1/1
f 64/1/1 61/1/1 63/1/1
f 66/1/1 65/1/1 64/1/1
f 66/1/1 64/1/1 63/1/1
f 67/1/1 65/1/1 66/1/1
f 70/1/1 65/1/1 67/1/1
f 71/1/1 65/1/1 70/1/1
f 72/1/1 65/1/1 71/1/1
f 73/1/1 65/1/1 72/1/1
f 74/7/1 69/7/1 68/7/1
f 75/7/1 69/7/1 74/7/1
f 77/1/1 72/1/1 71/1/1
f 78/1/1 72/1/1 77/1/1
f 79/1/1 72/1/1 78/1/1
f 80/1/1 72/1/1 79/1/1
f 81/7/1 76/7/1 75/7/1
f 81/7/1 75/7/1 74/7/1
f 82/7/1 81/7/1 80/7/1
f 83/7/1 81/7/1 82/7/1
f 84/7/1 76/7/1 81/7/1
f 84/7/1 81/7/1 83/7/1
f 85/7/1 76/7/1 84/7/1
f 86/7/1 84/7/1 83/7/1
f 87/7/1 84/7/1 86/7/1
f 90/7/1 89/7/1 88/7/1
f 91/7/1 89/7/1 90/7/1
f 94/7/1 93/7/1 92/7/1
f 95/7/1 93/7/1 94/7/1
f 98/1/1 97/1/1 96/1/1
f 99/1/1 97/1/1 98/1/1
f 102/2/1 101/2/1 100/2/1
f 103/2/1 101/2/1 102/2/1
f 104/2/2 105/2/2 106/2/2
f 106/2/2 105/2/2 107/2/2
f 108/7/2 109/7/2 110/7/2
f 110/7/2 109/7/2 111/7/2
f 112/7/2 113/7/2 114/7/2
f 114/7/2 113/7/2 115/7/2
f 116/2/2 117/2/2 120/2/2
f 120/2/2 117/2/2 121/2/2
f 118/3/2 119/3/2 126/3/2
f 126/3/2 119/3/2 127/3/2
f 124/1/2 125/1/2 128/1/2
f 122/1/2 123/1/2 128/1/2
f 123/1/2 124/1/2 128/1/2
f 128/1/2 125/1/2 129/1/2
f 129/1/2 125/1/2 130/1/2
f 130/1/2 131/1/2 132/1/2
f 129/1/2 130/1/2 132/1/2
f 132/1/2 131/1/2 133/1/2
f 133/1/2 131/1/2 134/1/2
f 134/1/2 135/1/2 136/1/2
f 133/1/2 134/1/2 136/1/2
f 136/1/2 135/1/2 137/1/2
f 137/1/2 135/1/2 138/1/2
f 138/1/2 139/1/2 140/1/2
f 137/1/2 138/1/2 140/1/2
f 140/1/2 139/1/2 141/1/2
f 141/1/2 139/1/2 142/1/2
f 142/1/2 143/1/2 144/1/2
f 141/1/2 142/1/2 144/1/2
f 144/1/2 143/1/2 145/1/2
f 145/1/2 143/1/2 146/1/2
f 146/1/2 147/1/2 148/1/2
f 145/1/2 146/1/2 148/1/2
f 148/1/2 147/1/2 149/1/2
f 149/1/2 147/1/2 150/1/2
f 150/1/2 151/1/2 152/1/2
f 149/1/2 150/1/2 152/1/2
f 152/1/2 151/1/2 153/1/2
f 153/1/2 151/1/2 154/1/2
f 154/1/2 151/1/2 155/1/2
f 153/1/2 154/1/2 156/1/2
f 156/1/2 154/1/2 157/1/2
f 157/1/2 154/1/2 161/1/2
f 161/1/2 154/1/2 162/1/2
f 159/7/2 160/7/2 164/7/2
f 158/7/2 159/7/2 164/7/2
f 164/7/2 160/7/2 165/7/2
f 165/7/2 160/7/2 166/7/2
f 163/7/2 164/7/2 167/7/2
f 164/7/2 165/7/2 167/7/2
f 167/7/2 165/7/2 168/7/2
f 169/5/2 170/5/2 177/5/2
f 170/7/2 171/7/2 178/7/2
f 177/5/2 170/5/2 178/5/2
f 171/6/2 172/6/2 179/6/2
f 178/7/2 171/7/2 179/7/2
f 172/5/2 173/5/2 180/5/2
f 179/6/2 172/6/2 180/6/2
f 173/6/2 174/6/2 181/6/2
f 180/5/2 173/5/2 181/5/2
f 174/5/2 175/5/2 182/5/2
f 181/6/2 174/6/2 182/6/2
f 175/6/2 176/6/2 183/6/2
f 182/5/2 175/5/2 183/5/2
f 183/6/2 176/6/2 184/6/2
f 185/7/2 186/7/2 187/7/2
f 187/7/2 186/7/2 188/7/2
f 185/7/2 187/7/2 189/7/2
f 189/7/2 187/7/2 190/7/2
f 185/7/2 189/7/2 191/7/2
f 191/7/2 189/7/2 192/7/2
f 193/4/2 194/4/2 197/4/2
f 194/2/2 195/2/2 198/2/2
f 197/4/2 194/4/2 198/4/2
f 195/4/2 196/4/2 199/4/2
f 198/2/2 195/2/2 199/2/2
f 199/4/2 196/4/2 200/4/2
f 198/2/2 199/2/2 201/2/2
f 201/2/2 199/2/2 202/2/2
f 205/4/3 204/4/3 203/4/3
f 206/4/3 204/4/3 205/4/3
f 208/2/3 206/2/3 205/2/3
f 208/2/3 207/2/3 206/2/3
f 209/2/3 207/2/3 208/2/3
f 210/2/3 207/2/3 209/2/3
f 211/4/3 209/4/3 208/4/3
f 212/4/3 209/4/3 211/4/3
f 215/6/3 214/6/3 213/6/3
f 216/6/3 214/6/3 215/6/3
f 217/5/3 216/5/3 215/5/3
f 218/5/3 216/5/3 217/5/3
f 219/6/3 218/6/3 217/6/3
f 220/6/3 218/6/3 219/6/3
f 221/5/3 220/5/3 219/5/3
f 222/5/3 220/5/3 221/5/3
f 225/2/3 224/2/3 223/2/3
f 226/2/3 224/2/3 225/2/3
f 229/1/3 228/1/3 227/1/3
f 230/1/3 228/1/3 229/1/3
f 231/1/3 228/1/3 230/1/3
f 234/2/3 233/2/3 232/2/3
f 235/2/3 233/2/3 234/2/3
f 238/1/3 237/1/3 236/1/3
f 239/1/3 237/1/3 238/1/3
f 242/1/3 241/1/3 240/1/3
f 243/1/3 241/1/3 242/1/3
f 246/1/3 245/1/3 244/1/3
f 247/1/3 245/1/3 246/1/3
f 250/1/3 249/1/3 248/1/3
f 251/1/3 249/1/3 250/1/3
f 254/1/3 253/1/3 252/1/3
f 255/1/3 253/1/3 254/1/3
f 258/1/3 257/1/3 256/1/3
f 259/1/3 257/1/3 258/1/3
f 262/1/3 261/1/3 260/1/3
f 263/1/3 261/1/3 262/1/3
f 266/1/3 265/1/3 264/1/3
f 267/1/3 265/1/3 266/1/3
f 270/7/3 269/7/3 268/7/3
f 271/7/3 269/7/3 270/7/3
f 274/7/3 272/7/3 271/7/3
f 275/7/3 274/7/3 273/7/3
f 276/7/3 272/7/3 274/7/3
f 276/7/3 274/7/3 275/7/3
f 279/7/3 278/7/3 277/7/3
f 280/7/3 278/7/3 279/7/3
f 283/7/3 282/7/3 281/7/3
f 284/7/3 282/7/3 283/7/3
f 287/3/3 286/3/3 285/3/3
f 288/3/3 286/3/3 287/3/3
f 289/2/4 290/2/4 291/2/4
f 291/2/4 290/2/4 292/2/4
f 293/1/4 294/1/4 295/1/4
f 295/1/4 294/1/4 296/1/4
f 296/1/4 294/1/4 297/1/4
f 298/2/4 299/2/4 300/2/4
f 300/2/4 299/2/4 301/2/4
f 302/1/4 303/1/4 304/1/4
f 304/1/4 303/1/4 305/1/4
f 306/2/4 307/2/4 308/2/4
f 308/2/4 307/2/4 309/2/4
f 310/1/4 311/1/4 312/1/4
f 312/1/4 311/1/4 313/1/4
f 314/1/4 315/1/4 316/1/4
f 316/1/4 315/1/4 317/1/4
f 318/7/4 319/7/4 320/7/4
f 320/7/4 319/7/4 321/7/4
f 320/6/4 321/6/4 324/6/4
f 324/6/4 321/6/4 325/6/4
f 324/5/4 325/5/4 326/5/4
f 326/5/4 325/5/4 327/5/4
f 322/1/4 323/1/4 328/1/4
f 328/1/4 323/1/4 329/1/4
f 326/6/4 327/6/4 330/6/4
f 330/6/4 327/6/4 331/6/4
f 332/1/4 333/1/4 334/1/4
f 334/1/4 333/1/4 335/1/4
f 332/1/4 334/1/4 336/1/4
f 336/1/4 334/1/4 337/1/4
f 338/7/4 339/7/4 340/7/4
f 340/7/4 339/7/4 341/7/4
f 342/7/4 343/7/4 344/7/4
f 344/7/4 343/7/4 345/7/4
f 346/1/4 347/1/4 348/1/4
f 348/1/4 347/1/4 349/1/4
f 350/7/4 351/7/4 352/7/4
f 352/7/4 351/7/4 353/7/4
f 356/7/4 357/7/4 358/7/4
f 358/7/4 357/7/4 359/7/4
f 354/7/4 355/7/4 360/7/4
f 360/7/4 355/7/4 361/7/4
f 362/7/4 363/7/4 364/7/4
f 364/7/4 363/7/4 365/7/4
f 365/7/4 363/7/4 366/7/4
f 366/7/4 367/7/4 368/7/4
f 365/7/4 366/7/4 368/7/4
f 368/7/4 367/7/4 369/7/4
f 362/7/4 364/7/4 370/7/4
f 365/7/4 368/7/4 371/7/4
f 371/7/4 368/7/4 372/7/4
f 362/7/4 370/7/4 373/7/4
f 373/7/4 370/7/4 374/7/4
f 375/4/4 376/4/4 377/4/4
f 377/4/4 376/4/4 378/4/4
f 377/3/4 378/3/4 382/3/4
f 378/3/4 379/3/4 382/3/4
f 382/3/4 379/3/4 383/3/4
f 383/3/4 379/3/4 384/3/4
f 380/7/4 381/7/4 385/7/4
f 385/7/4 381/7/4 386/7/4
f 382/4/4 383/4/4 387/4/4
f 387/4/4 383/4/4 388/4/4
f 393/4/5 390/4/5 389/4/5
f 393/2/5 391/2/5 390/2/5
f 394/4/5 392/4/5 391/4/5
f 394/2/5 391/2/5 393/2/5
f 395/4/5 393/4/5 389/4/5
f 395/4/5 394/4/5 393/4/5
f 396/4/5 394/4/5 395/4/5
f 397/4/5 392/4/5 394/4/5
f 397/4/5 394/4/5 396/4/5
f 398/4/5 392/4/5 397/4/5
f 399/2/5 396/2/5 395/2/5
f 400/4/5 397/4/5 396/4/5
f 400/2/5 396/2/5 399/2/5
f 401/2/5 398/2/5 397/2/5
f 401/4/5 397/4/5 400/4/5
f 402/2/5 398/2/5 401/2/5
f 403/4/5 400/4/5 399/4/5
f 403/4/5 401/4/5 400/4/5
f 403/4/5 402/4/5 401/4/5
f 404/4/5 402/4/5 403/4/5
f 405/4/5 403/4/5 399/4/5
f 406/3/5 404/3/5 403/3/5
f 406/4/5 403/4/5 405/4/5
f 407/4/5 402/4/5 404/4/5
f 407/3/5 404/3/5 406/3/5
f 408/4/5 402/4/5 407/4/5
f 411/1/5 410/1/5 409/1/5
f 412/1/5 410/1/5 411/1/5
f 415/1/5 414/1/5 413/1/5
f 416/1/5 414/1/5 415/1/5
f 419/1/5 418/1/5 417/1/5
f 420/1/5 418/1/5 419/1/5
f 423/1/5 422/1/5 421/1/5
f 424/1/5 422/1/5 423/1/5
f 427/1/5 426/1/5 425/1/5
f 428/1/5 426/1/5 427/1/5
f 432/1/5 430/1/5 429/1/5
f 433/1/5 430/1/5 432/1/5
f 434/7/5 432/7/5 431/7/5
f 435/7/5 432/7/5 434/7/5
f 440/7/5 437/7/5 436/7/5
f 442/7/5 440/7/5 436/7/5
f 443/1/5 441/1/5 440/1/5
f 443/7/5 440/7/5 442/7/5
f 444/1/5 441/1/5 443/1/5
f 445/7/5 439/7/5 438/7/5
f 447/7/5 445/7/5 444/7/5
f 448/7/5 447/7/5 446/7/5
f 449/7/5 439/7/5 445/7/5
f 449/7/5 447/7/5 448/7/5
f 449/7/5 445/7/5 447/7/5
f 452/7/5 451/7/5 450/7/5
f 453/7/5 451/7/5 452/7/5
f 454/4/6 455/4/6 458/4/6
f 456/4/6 457/4/6 459/4/6
f 458/4/6 459/4/6 460/4/6
f 460/4/6 459/4/6 461/4/6
f 461/4/6 459/4/6 462/4/6
f 459/4/6 457/4/6 463/4/6
f 462/4/6 459/4/6 463/4/6
f 463/4/6 457/4/6 464/4/6
f 464/4/6 457/4/6 465/4/6
f 458/4/6 460/4/6 466/4/6
f 465/4/6 457/4/6 467/4/6
f 454/4/6 458/4/6 468/4/6
f 458/4/6 466/4/6 468/4/6
f 468/4/6 466/4/6 469/4/6
f 469/4/6 466/4/6 470/4/6
f 467/4/6 457/4/6 471/4/6
f 471/4/6 457/4/6 472/4/6
f 467/4/6 471/4/6 473/4/6
f 469/4/6 470/4/6 474/4/6
f 469/4/6 474/4/6 475/4/6
f 473/4/6 471/4/6 476/4/6
f 469/4/6 475/4/6 478/4/6
f 478/4/6 475/4/6 479/4/6
f 476/4/6 471/4/6 480/4/6
f 480/4/6 471/4/6 481/4/6
f 478/4/6 479/4/6 483/4/6
f 477/4/6 478/4/6 483/4/6
f 477/4/6 483/4/6 484/4/6
f 481/4/6 482/4/6 485/4/6
f 480/4/6 481/4/6 485/4/6
f 477/4/6 484/4/6 486/4/6
f 485/4/6 482/4/6 490/4/6
f 488/4/6 489/4/6 491/4/6
f 489/4/6 490/4/6 491/4/6
f 477/4/6 486/4/6 491/4/6
f 486/4/6 487/4/6 491/4/6
f 487/4/6 488/4/6 491/4/6
f 491/4/6 490/4/6 492/4/6
f 477/4/6 491/4/6 493/4/6
f 493/4/6 491/4/6 494/4/6
f 492/4/6 490/4/6 495/4/6
f 490/4/6 482/4/6 496/4/6
f 495/4/6 490/4/6 496/4/6
f 497/2/6 498/2/6 499/2/6
f 499/2/6 498/2/6 500/2/6
f 501/6/6 502/6/6 506/6/6
f 502/5/6 503/5/6 507/5/6
f 506/6/6 502/6/6 507/6/6
f 503/6/6 504/6/6 508/6/6
f 507/5/6 503/5/6 508/5/6
f 504/5/6 505/5/6 509/5/6
f 508/6/6 504/6/6 509/6/6
f 509/5/6 505/5/6 510/5/6
f 501/6/6 506/6/6 511/6/6
f 506/7/6 507/7/6 512/7/6
f 511/6/6 506/6/6 512/6/6
f 512/7/6 507/7/6 513/7/6
f 507/6/6 508/6/6 514/6/6
f 513/7/6 507/7/6 514/7/6
f 508/5/6 509/5/6 515/5/6
f 514/6/6 508/6/6 515/6/6
f 509/7/6 510/7/6 516/7/6
f 515/5/6 509/5/6 516/5/6
f 516/7/6 510/7/6 517/7/6
f 512/7/6 513/7/6 520/7/6
f 511/7/6 512/7/6 520/7/6
f 520/7/6 513/7/6 521/7/6
f 513/6/6 514/6/6 522/6/6
f 521/7/6 513/7/6 522/7/6
f 514/5/6 515/5/6 523/5/6
f 522/6/6 514/6/6 523/6/6
f 515/5/6 516/5/6 523/5/6
f 516/6/6 517/6/6 524/6/6
f 523/5/6 516/5/6 524/5/6
f 520/5/6 521/5/6 527/5/6
f 521/6/6 522/6/6 527/6/6
f 527/6/6 522/6/6 528/6/6
f 524/6/6 517/6/6 529/6/6
f 529/6/6 517/6/6 530/6/6
f 527/7/6 528/7/6 531/7/6
f 520/5/6 527/5/6 531/5/6
f 531/7/6 528/7/6 532/7/6
f 520/5/6 531/5/6 533/5/6
f 531/5/6 532/5/6 533/5/6
f 533/5/6 532/5/6 534/5/6
f 534/5/6 532/5/6 535/5/6
f 533/7/6 534/7/6 536/7/6
f 534/6/6 535/6/6 537/6/6
f 536/7/6 534/7/6 537/7/6
f 529/5/6 530/5/6 538/5/6
f 538/5/6 530/5/6 539/5/6
f 537/6/6 535/6/6 540/6/6
f 536/6/6 537/6/6 540/6/6
f 538/6/6 539/6/6 542/6/6
f 518/2/6 519/2/6 543/2/6
f 543/2/6 519/2/6 544/2/6
f 536/6/6 540/6/6 545/6/6
f 545/6/6 540/6/6 546/6/6
f 541/6/6 542/6/6 547/6/6
f 540/5/6 541/5/6 547/5/6
f 542/6/6 539/6/6 548/6/6
f 547/6/6 542/6/6 548/6/6
f 525/2/6 526/2/6 549/2/6
f 549/2/6 526/2/6 550/2/6
f 545/7/6 546/7/6 551/7/6
f 546/6/6 540/6/6 552/6/6
f 551/7/6 546/7/6 552/7/6
f 547/5/6 548/5/6 553/5/6
f 552/6/6 540/6/6 553/6/6
f 540/5/6 547/5/6 553/5/6
f 553/5/6 548/5/6 554/5/6
f 554/5/6 548/5/6 555/5/6
f 555/5/6 548/5/6 556/5/6
f 551/5/6 552/5/6 557/5/6
f 552/5/6 553/5/6 557/5/6
f 557/5/6 553/5/6 558/5/6
f 553/6/6 554/6/6 559/6/6
f 558/5/6 553/5/6 559/5/6
f 554/7/6 555/7/6 560/7/6
f 559/6/6 554/6/6 560/6/6
f 555/6/6 556/6/6 561/6/6
f 560/7/6 555/7/6 561/7/6
f 556/5/6 548/5/6 562/5/6
f 561/6/6 556/6/6 562/6/6
f 562/5/6 548/5/6 563/5/6
f 557/7/6 558/7/6 564/7/6
f 559/6/6 560/6/6 565/6/6
f 564/7/6 558/7/6 565/7/6
f 558/6/6 559/6/6 565/6/6
f 560/5/6 561/5/6 566/5/6
f 565/6/6 560/6/6 566/6/6
f 562/6/6 563/6/6 567/6/6
f 566/5/6 561/5/6 567/5/6
f 561/6/6 562/6/6 567/6/6
f 567/6/6 563/6/6 568/6/6
f 569/3/6 570/3/6 571/3/6
f 571/3/6 570/3/6 572/3/6
f 573/1/6 574/1/6 575/1/6
f 575/1/6 574/1/6 576/1/6
f 577/1/6 578/1/6 579/1/6
f 579/1/6 578/1/6 580/1/6
f 581/1/6 582/1/6 583/1/6
f 583/1/6 582/1/6 584/1/6
f 585/1/6 586/1/6 587/1/6
f 587/1/6 586/1/6 588/1/6
f 589/1/6 590/1/6 591/1/6
f 591/1/6 590/1/6 592/1/6
f 593/1/6 594/1/6 595/1/6
f 595/1/6 594/1/6 596/1/6
f 597/1/6 598/1/6 599/1/6
f 599/1/6 598/1/6 600/1/6
f 601/1/6 602/1/6 603/1/6
f 603/1/6 602/1/6 604/1/6
f 605/7/6 606/7/6 607/7/6
f 607/7/6 606/7/6 608/7/6
f 609/1/6 610/1/6 612/1/6
f 612/1/6 610/1/6 613/1/6
f 611/7/6 612/7/6 616/7/6
f 616/7/6 612/7/6 617/7/6
f 614/7/6 615/7/6 618/7/6
f 618/7/6 615/7/6 619/7/6
f 620/7/6 621/7/6 622/7/6
f 622/7/6 621/7/6 623/7/6
f 624/7/6 625/7/6 626/7/6
f 626/7/6 625/7/6 627/7/6
f 627/7/6 625/7/6 628/7/6
f 628/7/6 625/7/6 629/7/6
f 630/7/6 631/7/6 632/7/6
f 632/7/6 631/7/6 633/7/6
f 627/7/6 628/7/6 634/7/6
f 634/7/6 628/7/6 635/7/6
f 636/7/6 637/7/6 638/7/6
f 638/7/6 637/7/6 639/7/6
f 639/7/6 637/7/6 640/7/6
f 640/7/6 637/7/6 641/7/6
