# MagicaVoxel @ Ephtracy

# group
o 

# material
mtllib switchtile [on].mtl
usemtl palette

# normals
vn -1 0 0
vn 1 0 0
vn 0 0 1
vn 0 0 -1
vn 0 -1 0
vn 0 1 0

# texcoords
vt 0.369141 0.5
vt 0.400391 0.5
vt 0.404297 0.5
vt 0.587891 0.5
vt 0.974609 0.5
vt 0.978516 0.5
vt 0.986328 0.5

# verts
v 1.4 2 -1
v 1.4 2 -1.8
v 1.4 2 -2.4
v 1.4 2 -3.2
v 1.4 2.1 -1
v 1.4 2.1 -1.8
v 1.4 2.1 -2.4
v 1.4 2.1 -3.2
v 1.4 2.2 -1.8
v 1.4 2.2 -2.4
v 2 2.1 -1
v 2 2.1 -1.2
v 2 2.1 -3
v 2 2.1 -3.2
v 2 2.2 -1
v 2 2.2 -1.2
v 2 2.2 -3
v 2 2.2 -3.2
v 2.1 2.1 -1.5
v 2.1 2.1 -1.7
v 2.1 2.1 -1.8
v 2.1 2.1 -2.1
v 2.1 2.1 -2.2
v 2.1 2.1 -2.4
v 2.1 2.1 -2.5
v 2.1 2.1 -2.6
v 2.1 2.1 -2.7
v 2.1 2.2 -1.5
v 2.1 2.2 -1.7
v 2.1 2.2 -1.8
v 2.1 2.2 -2.1
v 2.1 2.2 -2.2
v 2.1 2.2 -2.4
v 2.1 2.2 -2.5
v 2.1 2.2 -2.6
v 2.1 2.2 -2.7
v 2.1 2.9 -1.2
v 2.1 2.9 -1.4
v 2.1 3.1 -1.2
v 2.1 3.1 -1.4
v 2.2 2.2 -1.8
v 2.2 2.2 -2.1
v 2.2 2.2 -2.2
v 2.2 2.2 -2.3
v 2.2 2.3 -1.7
v 2.2 2.3 -1.8
v 2.2 2.3 -2.2
v 2.2 2.3 -2.3
v 2.2 2.4 -1.6
v 2.2 2.4 -1.7
v 2.2 2.4 -2.1
v 2.2 2.4 -2.2
v 2.2 2.5 -1.5
v 2.2 2.5 -1.6
v 2.2 2.5 -2
v 2.2 2.5 -2.1
v 2.2 2.6 -1.4
v 2.2 2.6 -1.5
v 2.2 2.6 -1.9
v 2.2 2.6 -2
v 2.2 2.7 -1.3
v 2.2 2.7 -1.4
v 2.2 2.7 -1.8
v 2.2 2.7 -1.9
v 2.2 2.8 -1.1
v 2.2 2.8 -1.2
v 2.2 2.8 -1.7
v 2.2 2.8 -1.8
v 2.2 2.9 -1
v 2.2 2.9 -1.1
v 2.2 2.9 -1.2
v 2.2 2.9 -1.3
v 2.2 2.9 -1.4
v 2.2 2.9 -1.6
v 2.2 2.9 -1.7
v 2.2 3 -1.5
v 2.2 3 -1.6
v 2.2 3.1 -1.2
v 2.2 3.1 -1.4
v 2.2 3.1 -1.5
v 2.2 3.2 -1
v 2.2 3.2 -1.1
v 2.2 3.2 -1.3
v 2.2 3.2 -1.4
v 2.2 3.3 -1.1
v 2.2 3.3 -1.3
v 2.3 3 -0.9
v 2.3 3 -1
v 2.3 3.1 -0.9
v 2.3 3.1 -1
v 2.3 3.2 -1
v 2.3 3.2 -1.1
v 2.3 3.3 -1
v 2.3 3.3 -1.1
v 2.4 2.8 -1.2
v 2.4 2.8 -1.3
v 2.4 2.9 -1.2
v 2.4 2.9 -1.3
v 3.2 2.1 -1.8
v 3.2 2.1 -2.4
v 3.2 2.2 -1.8
v 3.2 2.2 -2.4
v 1.6 2.1 -1.8
v 1.6 2.1 -2.4
v 1.6 2.2 -1.8
v 1.6 2.2 -2.4
v 2.4 2.8 -1.1
v 2.4 2.8 -1.2
v 2.4 2.9 -1.1
v 2.4 2.9 -1.2
v 2.4 3.2 -1
v 2.4 3.2 -1.3
v 2.4 3.3 -1
v 2.4 3.3 -1.3
v 2.5 2.2 -1.8
v 2.5 2.2 -1.9
v 2.5 2.2 -2.2
v 2.5 2.2 -2.3
v 2.5 2.3 -1.7
v 2.5 2.3 -1.8
v 2.5 2.3 -2.2
v 2.5 2.3 -2.3
v 2.5 2.4 -1.6
v 2.5 2.4 -1.7
v 2.5 2.4 -2.1
v 2.5 2.4 -2.2
v 2.5 2.5 -1.5
v 2.5 2.5 -1.6
v 2.5 2.5 -2
v 2.5 2.5 -2.1
v 2.5 2.6 -1.4
v 2.5 2.6 -1.5
v 2.5 2.6 -1.9
v 2.5 2.6 -2
v 2.5 2.7 -1.3
v 2.5 2.7 -1.4
v 2.5 2.7 -1.8
v 2.5 2.7 -1.9
v 2.5 2.8 -1.2
v 2.5 2.8 -1.3
v 2.5 2.8 -1.7
v 2.5 2.8 -1.8
v 2.5 2.9 -1.2
v 2.5 2.9 -1.4
v 2.5 2.9 -1.6
v 2.5 2.9 -1.7
v 2.5 3 -0.9
v 2.5 3 -1
v 2.5 3 -1.2
v 2.5 3 -1.5
v 2.5 3 -1.6
v 2.5 3.1 -0.9
v 2.5 3.1 -1
v 2.5 3.1 -1.2
v 2.5 3.1 -1.3
v 2.5 3.1 -1.4
v 2.5 3.1 -1.5
v 2.5 3.2 -1
v 2.5 3.2 -1.3
v 2.6 2.1 -1
v 2.6 2.1 -1.2
v 2.6 2.1 -3
v 2.6 2.1 -3.2
v 2.6 2.2 -1
v 2.6 2.2 -1.2
v 2.6 2.2 -3
v 2.6 2.2 -3.2
v 2.6 2.9 -1
v 2.6 2.9 -1.4
v 2.6 3 -1
v 2.6 3 -1.2
v 2.6 3.1 -1.2
v 2.6 3.1 -1.3
v 2.6 3.2 -1.3
v 2.6 3.2 -1.4
v 2.7 2.1 -1.5
v 2.7 2.1 -1.6
v 2.7 2.1 -1.7
v 2.7 2.1 -1.9
v 2.7 2.1 -2.2
v 2.7 2.1 -2.4
v 2.7 2.1 -2.6
v 2.7 2.1 -2.7
v 2.7 2.2 -1.5
v 2.7 2.2 -1.6
v 2.7 2.2 -1.7
v 2.7 2.2 -1.9
v 2.7 2.2 -2.2
v 2.7 2.2 -2.4
v 2.7 2.2 -2.6
v 2.7 2.2 -2.7
v 3.4 2 -1
v 3.4 2 -1.8
v 3.4 2 -2.4
v 3.4 2 -3.2
v 3.4 2.1 -1
v 3.4 2.1 -1.8
v 3.4 2.1 -2.4
v 3.4 2.1 -3.2
v 3.4 2.2 -1.8
v 3.4 2.2 -2.4
v 2.3 3 -0.9
v 2.3 3.1 -0.9
v 2.5 3 -0.9
v 2.5 3.1 -0.9
v 1.4 2 -1
v 1.4 2.1 -1
v 2 2 -1
v 2 2.1 -1
v 2 2.2 -1
v 2.2 2.9 -1
v 2.2 3.2 -1
v 2.3 3 -1
v 2.3 3.1 -1
v 2.3 3.2 -1
v 2.3 3.3 -1
v 2.4 3.2 -1
v 2.4 3.3 -1
v 2.5 3 -1
v 2.5 3.1 -1
v 2.5 3.2 -1
v 2.6 2 -1
v 2.6 2.1 -1
v 2.6 2.2 -1
v 2.6 2.9 -1
v 2.6 3 -1
v 3.4 2 -1
v 3.4 2.1 -1
v 2.2 2.8 -1.1
v 2.2 2.9 -1.1
v 2.2 3.2 -1.1
v 2.2 3.3 -1.1
v 2.3 3.2 -1.1
v 2.3 3.3 -1.1
v 2.4 2.8 -1.1
v 2.4 2.9 -1.1
v 2.1 2.9 -1.2
v 2.1 3.1 -1.2
v 2.2 2.9 -1.2
v 2.2 3.1 -1.2
v 2.4 2.8 -1.2
v 2.4 2.9 -1.2
v 2.5 2.8 -1.2
v 2.5 2.9 -1.2
v 2.5 3 -1.2
v 2.5 3.1 -1.2
v 2.6 3 -1.2
v 2.6 3.1 -1.2
v 2.2 2.7 -1.3
v 2.2 2.9 -1.3
v 2.4 2.8 -1.3
v 2.4 2.9 -1.3
v 2.5 2.7 -1.3
v 2.5 2.8 -1.3
v 2.5 3.1 -1.3
v 2.5 3.2 -1.3
v 2.6 3.1 -1.3
v 2.6 3.2 -1.3
v 2.2 2.6 -1.4
v 2.2 2.7 -1.4
v 2.5 2.6 -1.4
v 2.5 2.7 -1.4
v 2.1 2.1 -1.5
v 2.1 2.2 -1.5
v 2.2 2.5 -1.5
v 2.2 2.6 -1.5
v 2.4 2.1 -1.5
v 2.4 2.2 -1.5
v 2.5 2.1 -1.5
v 2.5 2.2 -1.5
v 2.5 2.5 -1.5
v 2.5 2.6 -1.5
v 2.6 2.1 -1.5
v 2.6 2.2 -1.5
v 2.7 2.1 -1.5
v 2.7 2.2 -1.5
v 2.2 2.4 -1.6
v 2.2 2.5 -1.6
v 2.5 2.4 -1.6
v 2.5 2.5 -1.6
v 2.2 2.3 -1.7
v 2.2 2.4 -1.7
v 2.5 2.3 -1.7
v 2.5 2.4 -1.7
v 1.4 2.1 -1.8
v 1.4 2.2 -1.8
v 1.6 2.1 -1.8
v 1.6 2.2 -1.8
v 2.2 2.2 -1.8
v 2.2 2.3 -1.8
v 2.3 2.2 -1.8
v 2.4 2.2 -1.8
v 2.5 2.2 -1.8
v 2.5 2.3 -1.8
v 3.2 2.1 -1.8
v 3.2 2.2 -1.8
v 3.4 2.1 -1.8
v 3.4 2.2 -1.8
v 2 2.1 -3
v 2 2.2 -3
v 2.6 2.1 -3
v 2.6 2.2 -3
v 2 2.1 -1.2
v 2 2.2 -1.2
v 2.2 2.8 -1.2
v 2.2 2.9 -1.2
v 2.4 2.8 -1.2
v 2.4 2.9 -1.2
v 2.6 2.1 -1.2
v 2.6 2.2 -1.2
v 2.2 3.2 -1.3
v 2.2 3.3 -1.3
v 2.4 3.2 -1.3
v 2.4 3.3 -1.3
v 2.1 2.9 -1.4
v 2.1 3.1 -1.4
v 2.2 2.9 -1.4
v 2.2 3.1 -1.4
v 2.2 3.2 -1.4
v 2.5 2.9 -1.4
v 2.5 3.1 -1.4
v 2.6 2.9 -1.4
v 2.6 3.2 -1.4
v 2.2 3 -1.5
v 2.2 3.1 -1.5
v 2.5 3 -1.5
v 2.5 3.1 -1.5
v 2.2 2.9 -1.6
v 2.2 3 -1.6
v 2.5 2.9 -1.6
v 2.5 3 -1.6
v 2.2 2.8 -1.7
v 2.2 2.9 -1.7
v 2.5 2.8 -1.7
v 2.5 2.9 -1.7
v 2.2 2.7 -1.8
v 2.2 2.8 -1.8
v 2.5 2.7 -1.8
v 2.5 2.8 -1.8
v 2.2 2.6 -1.9
v 2.2 2.7 -1.9
v 2.5 2.6 -1.9
v 2.5 2.7 -1.9
v 2.2 2.5 -2
v 2.2 2.6 -2
v 2.5 2.5 -2
v 2.5 2.6 -2
v 2.2 2.4 -2.1
v 2.2 2.5 -2.1
v 2.5 2.4 -2.1
v 2.5 2.5 -2.1
v 2.2 2.3 -2.2
v 2.2 2.4 -2.2
v 2.5 2.3 -2.2
v 2.5 2.4 -2.2
v 2.2 2.2 -2.3
v 2.2 2.3 -2.3
v 2.3 2.2 -2.3
v 2.5 2.2 -2.3
v 2.5 2.3 -2.3
v 1.4 2.1 -2.4
v 1.4 2.2 -2.4
v 1.6 2.1 -2.4
v 1.6 2.2 -2.4
v 3.2 2.1 -2.4
v 3.2 2.2 -2.4
v 3.4 2.1 -2.4
v 3.4 2.2 -2.4
v 2.1 2.1 -2.7
v 2.1 2.2 -2.7
v 2.2 2.1 -2.7
v 2.2 2.2 -2.7
v 2.4 2.1 -2.7
v 2.4 2.2 -2.7
v 2.5 2.1 -2.7
v 2.5 2.2 -2.7
v 2.7 2.1 -2.7
v 2.7 2.2 -2.7
v 1.4 2 -3.2
v 1.4 2.1 -3.2
v 2 2 -3.2
v 2 2.1 -3.2
v 2 2.2 -3.2
v 2.6 2 -3.2
v 2.6 2.1 -3.2
v 2.6 2.2 -3.2
v 3.4 2 -3.2
v 3.4 2.1 -3.2
v 1.4 2 -1
v 2 2 -1
v 2.6 2 -1
v 3.4 2 -1
v 2 2 -1.2
v 2.6 2 -1.2
v 1.4 2 -1.8
v 1.5 2 -1.8
v 3.2 2 -1.8
v 3.4 2 -1.8
v 1.4 2 -2.4
v 1.5 2 -2.4
v 3.2 2 -2.4
v 3.4 2 -2.4
v 2 2 -3
v 2.6 2 -3
v 1.4 2 -3.2
v 2 2 -3.2
v 2.6 2 -3.2
v 3.4 2 -3.2
v 2.2 2.3 -1.7
v 2.5 2.3 -1.7
v 2.2 2.3 -1.8
v 2.5 2.3 -1.8
v 2.2 2.4 -1.6
v 2.5 2.4 -1.6
v 2.2 2.4 -1.7
v 2.5 2.4 -1.7
v 2.2 2.5 -1.5
v 2.5 2.5 -1.5
v 2.2 2.5 -1.6
v 2.5 2.5 -1.6
v 2.2 2.6 -1.4
v 2.5 2.6 -1.4
v 2.2 2.6 -1.5
v 2.5 2.6 -1.5
v 2.2 2.7 -1.3
v 2.5 2.7 -1.3
v 2.2 2.7 -1.4
v 2.5 2.7 -1.4
v 2.2 2.8 -1.1
v 2.4 2.8 -1.1
v 2.2 2.8 -1.2
v 2.4 2.8 -1.2
v 2.5 2.8 -1.2
v 2.4 2.8 -1.3
v 2.5 2.8 -1.3
v 2.2 2.9 -1
v 2.6 2.9 -1
v 2.2 2.9 -1.1
v 2.4 2.9 -1.1
v 2.1 2.9 -1.2
v 2.2 2.9 -1.2
v 2.4 2.9 -1.2
v 2.5 2.9 -1.2
v 2.2 2.9 -1.3
v 2.4 2.9 -1.3
v 2.1 2.9 -1.4
v 2.2 2.9 -1.4
v 2.5 2.9 -1.4
v 2.6 2.9 -1.4
v 2.3 3 -0.9
v 2.5 3 -0.9
v 2.3 3 -1
v 2.5 3 -1
v 1.4 2.1 -1
v 2 2.1 -1
v 2.6 2.1 -1
v 3.4 2.1 -1
v 2 2.1 -1.2
v 2.6 2.1 -1.2
v 2.1 2.1 -1.5
v 2.4 2.1 -1.5
v 2.5 2.1 -1.5
v 2.6 2.1 -1.5
v 2.7 2.1 -1.5
v 2.7 2.1 -1.6
v 2.1 2.1 -1.7
v 2.7 2.1 -1.7
v 1.4 2.1 -1.8
v 1.6 2.1 -1.8
v 2.1 2.1 -1.8
v 3.2 2.1 -1.8
v 3.4 2.1 -1.8
v 2.7 2.1 -1.9
v 2.1 2.1 -2.1
v 2.1 2.1 -2.2
v 2.7 2.1 -2.2
v 1.4 2.1 -2.4
v 1.6 2.1 -2.4
v 2.1 2.1 -2.4
v 2.7 2.1 -2.4
v 3.2 2.1 -2.4
v 3.4 2.1 -2.4
v 2.1 2.1 -2.5
v 2.1 2.1 -2.6
v 2.7 2.1 -2.6
v 2.1 2.1 -2.7
v 2.2 2.1 -2.7
v 2.4 2.1 -2.7
v 2.5 2.1 -2.7
v 2.7 2.1 -2.7
v 2 2.1 -3
v 2.6 2.1 -3
v 1.4 2.1 -3.2
v 2 2.1 -3.2
v 2.6 2.1 -3.2
v 3.4 2.1 -3.2
v 2 2.2 -1
v 2.6 2.2 -1
v 2 2.2 -1.2
v 2.6 2.2 -1.2
v 2.1 2.2 -1.5
v 2.4 2.2 -1.5
v 2.5 2.2 -1.5
v 2.6 2.2 -1.5
v 2.7 2.2 -1.5
v 2.2 2.2 -1.6
v 2.4 2.2 -1.6
v 2.5 2.2 -1.6
v 2.6 2.2 -1.6
v 2.7 2.2 -1.6
v 2.1 2.2 -1.7
v 2.2 2.2 -1.7
v 2.3 2.2 -1.7
v 2.4 2.2 -1.7
v 2.5 2.2 -1.7
v 2.6 2.2 -1.7
v 2.7 2.2 -1.7
v 1.4 2.2 -1.8
v 1.6 2.2 -1.8
v 2.1 2.2 -1.8
v 2.2 2.2 -1.8
v 2.3 2.2 -1.8
v 2.4 2.2 -1.8
v 2.5 2.2 -1.8
v 2.6 2.2 -1.8
v 3.2 2.2 -1.8
v 3.4 2.2 -1.8
v 2.5 2.2 -1.9
v 2.7 2.2 -1.9
v 2.1 2.2 -2.1
v 2.2 2.2 -2.1
v 2.1 2.2 -2.2
v 2.2 2.2 -2.2
v 2.5 2.2 -2.2
v 2.7 2.2 -2.2
v 2.2 2.2 -2.3
v 2.3 2.2 -2.3
v 2.5 2.2 -2.3
v 1.4 2.2 -2.4
v 1.6 2.2 -2.4
v 2.1 2.2 -2.4
v 2.2 2.2 -2.4
v 2.5 2.2 -2.4
v 2.7 2.2 -2.4
v 3.2 2.2 -2.4
v 3.4 2.2 -2.4
v 2.1 2.2 -2.5
v 2.2 2.2 -2.5
v 2.3 2.2 -2.5
v 2.4 2.2 -2.5
v 2.5 2.2 -2.5
v 2.6 2.2 -2.5
v 2.1 2.2 -2.6
v 2.2 2.2 -2.6
v 2.3 2.2 -2.6
v 2.4 2.2 -2.6
v 2.5 2.2 -2.6
v 2.6 2.2 -2.6
v 2.7 2.2 -2.6
v 2.1 2.2 -2.7
v 2.2 2.2 -2.7
v 2.4 2.2 -2.7
v 2.5 2.2 -2.7
v 2.7 2.2 -2.7
v 2 2.2 -3
v 2.6 2.2 -3
v 2 2.2 -3.2
v 2.6 2.2 -3.2
v 2.2 2.3 -2.2
v 2.5 2.3 -2.2
v 2.2 2.3 -2.3
v 2.5 2.3 -2.3
v 2.2 2.4 -2.1
v 2.5 2.4 -2.1
v 2.2 2.4 -2.2
v 2.5 2.4 -2.2
v 2.2 2.5 -2
v 2.5 2.5 -2
v 2.2 2.5 -2.1
v 2.5 2.5 -2.1
v 2.2 2.6 -1.9
v 2.5 2.6 -1.9
v 2.2 2.6 -2
v 2.5 2.6 -2
v 2.2 2.7 -1.8
v 2.5 2.7 -1.8
v 2.2 2.7 -1.9
v 2.5 2.7 -1.9
v 2.2 2.8 -1.7
v 2.5 2.8 -1.7
v 2.2 2.8 -1.8
v 2.5 2.8 -1.8
v 2.2 2.9 -1.6
v 2.5 2.9 -1.6
v 2.2 2.9 -1.7
v 2.5 2.9 -1.7
v 2.5 3 -1
v 2.6 3 -1
v 2.5 3 -1.2
v 2.6 3 -1.2
v 2.2 3 -1.5
v 2.5 3 -1.5
v 2.2 3 -1.6
v 2.5 3 -1.6
v 2.3 3.1 -0.9
v 2.5 3.1 -0.9
v 2.3 3.1 -1
v 2.5 3.1 -1
v 2.1 3.1 -1.2
v 2.2 3.1 -1.2
v 2.5 3.1 -1.2
v 2.6 3.1 -1.2
v 2.5 3.1 -1.3
v 2.6 3.1 -1.3
v 2.1 3.1 -1.4
v 2.2 3.1 -1.4
v 2.5 3.1 -1.4
v 2.2 3.1 -1.5
v 2.5 3.1 -1.5
v 2.2 3.2 -1
v 2.3 3.2 -1
v 2.4 3.2 -1
v 2.5 3.2 -1
v 2.2 3.2 -1.1
v 2.3 3.2 -1.1
v 2.2 3.2 -1.3
v 2.4 3.2 -1.3
v 2.5 3.2 -1.3
v 2.6 3.2 -1.3
v 2.2 3.2 -1.4
v 2.6 3.2 -1.4
v 2.3 3.3 -1
v 2.4 3.3 -1
v 2.2 3.3 -1.1
v 2.3 3.3 -1.1
v 2.2 3.3 -1.3
v 2.4 3.3 -1.3

# faces
f 5/4/1 2/4/1 1/4/1
f 6/2/1 3/2/1 2/2/1
f 6/4/1 2/4/1 5/4/1
f 7/4/1 4/4/1 3/4/1
f 7/2/1 3/2/1 6/2/1
f 8/4/1 4/4/1 7/4/1
f 9/2/1 7/2/1 6/2/1
f 10/2/1 7/2/1 9/2/1
f 15/2/1 12/2/1 11/2/1
f 16/2/1 12/2/1 15/2/1
f 17/3/1 14/3/1 13/3/1
f 18/3/1 14/3/1 17/3/1
f 28/6/1 20/6/1 19/6/1
f 29/7/1 21/7/1 20/7/1
f 29/6/1 20/6/1 28/6/1
f 30/5/1 22/5/1 21/5/1
f 30/7/1 21/7/1 29/7/1
f 31/7/1 23/7/1 22/7/1
f 31/5/1 22/5/1 30/5/1
f 32/6/1 24/6/1 23/6/1
f 32/7/1 23/7/1 31/7/1
f 33/7/1 25/7/1 24/7/1
f 33/6/1 24/6/1 32/6/1
f 34/5/1 26/5/1 25/5/1
f 34/7/1 25/7/1 33/7/1
f 35/7/1 27/7/1 26/7/1
f 35/5/1 26/5/1 34/5/1
f 36/7/1 27/7/1 35/7/1
f 39/7/1 38/7/1 37/7/1
f 40/7/1 38/7/1 39/7/1
f 46/1/1 42/1/1 41/1/1
f 46/1/1 44/1/1 43/1/1
f 46/1/1 43/1/1 42/1/1
f 47/1/1 44/1/1 46/1/1
f 48/1/1 44/1/1 47/1/1
f 50/1/1 46/1/1 45/1/1
f 50/1/1 47/1/1 46/1/1
f 51/1/1 47/1/1 50/1/1
f 52/1/1 47/1/1 51/1/1
f 54/1/1 50/1/1 49/1/1
f 54/1/1 51/1/1 50/1/1
f 55/1/1 51/1/1 54/1/1
f 56/1/1 51/1/1 55/1/1
f 58/1/1 54/1/1 53/1/1
f 58/1/1 55/1/1 54/1/1
f 59/1/1 55/1/1 58/1/1
f 60/1/1 55/1/1 59/1/1
f 62/1/1 58/1/1 57/1/1
f 62/1/1 59/1/1 58/1/1
f 63/1/1 59/1/1 62/1/1
f 64/1/1 59/1/1 63/1/1
f 67/1/1 62/1/1 61/1/1
f 67/1/1 63/1/1 62/1/1
f 68/1/1 63/1/1 67/1/1
f 70/7/1 66/7/1 65/7/1
f 71/7/1 66/7/1 70/7/1
f 72/1/1 67/1/1 61/1/1
f 73/1/1 67/1/1 72/1/1
f 74/1/1 67/1/1 73/1/1
f 75/1/1 67/1/1 74/1/1
f 76/1/1 74/1/1 73/1/1
f 77/1/1 74/1/1 76/1/1
f 78/7/1 71/7/1 70/7/1
f 78/7/1 70/7/1 69/7/1
f 79/1/1 76/1/1 73/1/1
f 80/1/1 76/1/1 79/1/1
f 81/7/1 78/7/1 69/7/1
f 81/7/1 79/7/1 78/7/1
f 82/7/1 79/7/1 81/7/1
f 83/7/1 79/7/1 82/7/1
f 84/7/1 79/7/1 83/7/1
f 85/7/1 83/7/1 82/7/1
f 86/7/1 83/7/1 85/7/1
f 89/7/1 88/7/1 87/7/1
f 90/7/1 88/7/1 89/7/1
f 93/7/1 92/7/1 91/7/1
f 94/7/1 92/7/1 93/7/1
f 97/1/1 96/1/1 95/1/1
f 98/1/1 96/1/1 97/1/1
f 101/2/1 100/2/1 99/2/1
f 102/2/1 100/2/1 101/2/1
f 103/2/2 104/2/2 105/2/2
f 105/2/2 104/2/2 106/2/2
f 107/7/2 108/7/2 109/7/2
f 109/7/2 108/7/2 110/7/2
f 111/7/2 112/7/2 113/7/2
f 113/7/2 112/7/2 114/7/2
f 115/1/2 116/1/2 120/1/2
f 117/1/2 118/1/2 120/1/2
f 116/1/2 117/1/2 120/1/2
f 120/1/2 118/1/2 121/1/2
f 121/1/2 118/1/2 122/1/2
f 119/1/2 120/1/2 124/1/2
f 120/1/2 121/1/2 124/1/2
f 124/1/2 121/1/2 125/1/2
f 125/1/2 121/1/2 126/1/2
f 123/1/2 124/1/2 128/1/2
f 124/1/2 125/1/2 128/1/2
f 128/1/2 125/1/2 129/1/2
f 129/1/2 125/1/2 130/1/2
f 127/1/2 128/1/2 132/1/2
f 128/1/2 129/1/2 132/1/2
f 132/1/2 129/1/2 133/1/2
f 133/1/2 129/1/2 134/1/2
f 131/1/2 132/1/2 136/1/2
f 132/1/2 133/1/2 136/1/2
f 136/1/2 133/1/2 137/1/2
f 137/1/2 133/1/2 138/1/2
f 135/1/2 136/1/2 140/1/2
f 136/1/2 137/1/2 140/1/2
f 140/1/2 137/1/2 141/1/2
f 141/1/2 137/1/2 142/1/2
f 139/1/2 140/1/2 143/1/2
f 140/1/2 141/1/2 143/1/2
f 143/1/2 141/1/2 144/1/2
f 144/1/2 141/1/2 145/1/2
f 145/1/2 141/1/2 146/1/2
f 144/1/2 145/1/2 150/1/2
f 150/1/2 145/1/2 151/1/2
f 148/7/2 149/7/2 152/7/2
f 147/7/2 148/7/2 152/7/2
f 152/7/2 149/7/2 153/7/2
f 153/7/2 149/7/2 154/7/2
f 144/1/2 150/1/2 156/1/2
f 156/1/2 150/1/2 157/1/2
f 154/7/2 155/7/2 158/7/2
f 153/7/2 154/7/2 158/7/2
f 158/7/2 155/7/2 159/7/2
f 160/2/2 161/2/2 164/2/2
f 164/2/2 161/2/2 165/2/2
f 162/3/2 163/3/2 166/3/2
f 166/3/2 163/3/2 167/3/2
f 168/7/2 169/7/2 170/7/2
f 170/7/2 169/7/2 171/7/2
f 171/7/2 169/7/2 172/7/2
f 172/7/2 169/7/2 173/7/2
f 173/7/2 169/7/2 174/7/2
f 174/7/2 169/7/2 175/7/2
f 176/5/2 177/5/2 184/5/2
f 177/7/2 178/7/2 185/7/2
f 184/5/2 177/5/2 185/5/2
f 178/6/2 179/6/2 186/6/2
f 185/7/2 178/7/2 186/7/2
f 179/5/2 180/5/2 187/5/2
f 186/6/2 179/6/2 187/6/2
f 180/6/2 181/6/2 188/6/2
f 187/5/2 180/5/2 188/5/2
f 181/5/2 182/5/2 189/5/2
f 188/6/2 181/6/2 189/6/2
f 182/6/2 183/6/2 190/6/2
f 189/5/2 182/5/2 190/5/2
f 190/6/2 183/6/2 191/6/2
f 192/4/2 193/4/2 196/4/2
f 193/2/2 194/2/2 197/2/2
f 196/4/2 193/4/2 197/4/2
f 194/4/2 195/4/2 198/4/2
f 197/2/2 194/2/2 198/2/2
f 198/4/2 195/4/2 199/4/2
f 197/2/2 198/2/2 200/2/2
f 200/2/2 198/2/2 201/2/2
f 204/7/3 203/7/3 202/7/3
f 205/7/3 203/7/3 204/7/3
f 208/4/3 207/4/3 206/4/3
f 209/4/3 207/4/3 208/4/3
f 213/7/3 212/7/3 211/7/3
f 214/7/3 212/7/3 213/7/3
f 215/7/3 212/7/3 214/7/3
f 217/7/3 216/7/3 215/7/3
f 217/7/3 215/7/3 214/7/3
f 218/7/3 216/7/3 217/7/3
f 219/7/3 213/7/3 211/7/3
f 220/7/3 217/7/3 214/7/3
f 221/7/3 217/7/3 220/7/3
f 222/2/3 209/2/3 208/2/3
f 222/2/3 210/2/3 209/2/3
f 223/2/3 210/2/3 222/2/3
f 224/2/3 210/2/3 223/2/3
f 225/7/3 219/7/3 211/7/3
f 226/7/3 219/7/3 225/7/3
f 227/4/3 223/4/3 222/4/3
f 228/4/3 223/4/3 227/4/3
f 233/7/3 232/7/3 231/7/3
f 234/7/3 232/7/3 233/7/3
f 235/7/3 230/7/3 229/7/3
f 236/7/3 230/7/3 235/7/3
f 239/7/3 238/7/3 237/7/3
f 240/7/3 238/7/3 239/7/3
f 243/1/3 242/1/3 241/1/3
f 244/1/3 242/1/3 243/1/3
f 247/7/3 246/7/3 245/7/3
f 248/7/3 246/7/3 247/7/3
f 251/1/3 250/1/3 249/1/3
f 252/1/3 250/1/3 251/1/3
f 253/1/3 251/1/3 249/1/3
f 254/1/3 251/1/3 253/1/3
f 257/7/3 256/7/3 255/7/3
f 258/7/3 256/7/3 257/7/3
f 261/1/3 260/1/3 259/1/3
f 262/1/3 260/1/3 261/1/3
f 267/6/3 264/6/3 263/6/3
f 268/6/3 264/6/3 267/6/3
f 269/5/3 268/5/3 267/5/3
f 270/5/3 268/5/3 269/5/3
f 271/1/3 266/1/3 265/1/3
f 272/1/3 266/1/3 271/1/3
f 273/6/3 270/6/3 269/6/3
f 274/6/3 270/6/3 273/6/3
f 275/5/3 274/5/3 273/5/3
f 276/5/3 274/5/3 275/5/3
f 279/1/3 278/1/3 277/1/3
f 280/1/3 278/1/3 279/1/3
f 283/1/3 282/1/3 281/1/3
f 284/1/3 282/1/3 283/1/3
f 287/2/3 286/2/3 285/2/3
f 288/2/3 286/2/3 287/2/3
f 291/1/3 290/1/3 289/1/3
f 292/1/3 290/1/3 291/1/3
f 293/1/3 290/1/3 292/1/3
f 294/1/3 290/1/3 293/1/3
f 297/2/3 296/2/3 295/2/3
f 298/2/3 296/2/3 297/2/3
f 301/3/3 300/3/3 299/3/3
f 302/3/3 300/3/3 301/3/3
f 305/7/4 306/7/4 307/7/4
f 307/7/4 306/7/4 308/7/4
f 303/2/4 304/2/4 309/2/4
f 309/2/4 304/2/4 310/2/4
f 311/7/4 312/7/4 313/7/4
f 313/7/4 312/7/4 314/7/4
f 315/7/4 316/7/4 317/7/4
f 317/7/4 316/7/4 318/7/4
f 318/7/4 319/7/4 321/7/4
f 320/7/4 321/7/4 322/7/4
f 321/7/4 319/7/4 323/7/4
f 322/7/4 321/7/4 323/7/4
f 324/1/4 325/1/4 326/1/4
f 326/1/4 325/1/4 327/1/4
f 328/1/4 329/1/4 330/1/4
f 330/1/4 329/1/4 331/1/4
f 332/1/4 333/1/4 334/1/4
f 334/1/4 333/1/4 335/1/4
f 336/1/4 337/1/4 338/1/4
f 338/1/4 337/1/4 339/1/4
f 340/1/4 341/1/4 342/1/4
f 342/1/4 341/1/4 343/1/4
f 344/1/4 345/1/4 346/1/4
f 346/1/4 345/1/4 347/1/4
f 348/1/4 349/1/4 350/1/4
f 350/1/4 349/1/4 351/1/4
f 352/1/4 353/1/4 354/1/4
f 354/1/4 353/1/4 355/1/4
f 356/1/4 357/1/4 358/1/4
f 358/1/4 357/1/4 359/1/4
f 359/1/4 357/1/4 360/1/4
f 361/2/4 362/2/4 363/2/4
f 363/2/4 362/2/4 364/2/4
f 365/2/4 366/2/4 367/2/4
f 367/2/4 366/2/4 368/2/4
f 369/7/4 370/7/4 371/7/4
f 371/7/4 370/7/4 372/7/4
f 371/6/4 372/6/4 373/6/4
f 373/6/4 372/6/4 374/6/4
f 373/5/4 374/5/4 375/5/4
f 375/5/4 374/5/4 376/5/4
f 375/6/4 376/6/4 377/6/4
f 377/6/4 376/6/4 378/6/4
f 379/4/4 380/4/4 381/4/4
f 381/4/4 380/4/4 382/4/4
f 381/3/4 382/3/4 384/3/4
f 382/3/4 383/3/4 384/3/4
f 384/3/4 383/3/4 385/3/4
f 385/3/4 383/3/4 386/3/4
f 384/4/4 385/4/4 387/4/4
f 387/4/4 385/4/4 388/4/4
f 393/4/5 390/4/5 389/4/5
f 393/2/5 391/2/5 390/2/5
f 394/4/5 392/4/5 391/4/5
f 394/2/5 391/2/5 393/2/5
f 395/4/5 393/4/5 389/4/5
f 395/4/5 394/4/5 393/4/5
f 396/4/5 394/4/5 395/4/5
f 397/4/5 392/4/5 394/4/5
f 397/4/5 394/4/5 396/4/5
f 398/4/5 392/4/5 397/4/5
f 399/2/5 396/2/5 395/2/5
f 400/4/5 397/4/5 396/4/5
f 400/2/5 396/2/5 399/2/5
f 401/2/5 398/2/5 397/2/5
f 401/4/5 397/4/5 400/4/5
f 402/2/5 398/2/5 401/2/5
f 403/4/5 400/4/5 399/4/5
f 403/4/5 401/4/5 400/4/5
f 403/4/5 402/4/5 401/4/5
f 404/4/5 402/4/5 403/4/5
f 405/4/5 403/4/5 399/4/5
f 406/3/5 404/3/5 403/3/5
f 406/4/5 403/4/5 405/4/5
f 407/4/5 402/4/5 404/4/5
f 407/3/5 404/3/5 406/3/5
f 408/4/5 402/4/5 407/4/5
f 411/1/5 410/1/5 409/1/5
f 412/1/5 410/1/5 411/1/5
f 415/1/5 414/1/5 413/1/5
f 416/1/5 414/1/5 415/1/5
f 419/1/5 418/1/5 417/1/5
f 420/1/5 418/1/5 419/1/5
f 423/1/5 422/1/5 421/1/5
f 424/1/5 422/1/5 423/1/5
f 427/1/5 426/1/5 425/1/5
f 428/1/5 426/1/5 427/1/5
f 431/7/5 430/7/5 429/7/5
f 432/7/5 430/7/5 431/7/5
f 434/1/5 433/1/5 432/1/5
f 435/1/5 433/1/5 434/1/5
f 438/7/5 437/7/5 436/7/5
f 439/7/5 437/7/5 438/7/5
f 442/7/5 437/7/5 439/7/5
f 443/7/5 437/7/5 442/7/5
f 444/7/5 441/7/5 440/7/5
f 444/1/5 442/1/5 441/1/5
f 445/1/5 442/1/5 444/1/5
f 446/7/5 444/7/5 440/7/5
f 447/7/5 444/7/5 446/7/5
f 448/7/5 437/7/5 443/7/5
f 449/7/5 437/7/5 448/7/5
f 452/7/5 451/7/5 450/7/5
f 453/7/5 451/7/5 452/7/5
f 454/4/6 455/4/6 458/4/6
f 456/4/6 457/4/6 459/4/6
f 458/4/6 459/4/6 460/4/6
f 460/4/6 459/4/6 461/4/6
f 461/4/6 459/4/6 462/4/6
f 459/4/6 457/4/6 463/4/6
f 462/4/6 459/4/6 463/4/6
f 463/4/6 457/4/6 464/4/6
f 464/4/6 457/4/6 465/4/6
f 458/4/6 460/4/6 466/4/6
f 465/4/6 457/4/6 467/4/6
f 454/4/6 458/4/6 468/4/6
f 458/4/6 466/4/6 468/4/6
f 468/4/6 466/4/6 469/4/6
f 469/4/6 466/4/6 470/4/6
f 467/4/6 457/4/6 471/4/6
f 471/4/6 457/4/6 472/4/6
f 467/4/6 471/4/6 473/4/6
f 469/4/6 470/4/6 474/4/6
f 469/4/6 474/4/6 475/4/6
f 473/4/6 471/4/6 476/4/6
f 469/4/6 475/4/6 478/4/6
f 478/4/6 475/4/6 479/4/6
f 476/4/6 471/4/6 480/4/6
f 480/4/6 471/4/6 481/4/6
f 478/4/6 479/4/6 483/4/6
f 477/4/6 478/4/6 483/4/6
f 477/4/6 483/4/6 484/4/6
f 481/4/6 482/4/6 485/4/6
f 480/4/6 481/4/6 485/4/6
f 477/4/6 484/4/6 486/4/6
f 485/4/6 482/4/6 490/4/6
f 488/4/6 489/4/6 491/4/6
f 489/4/6 490/4/6 491/4/6
f 477/4/6 486/4/6 491/4/6
f 486/4/6 487/4/6 491/4/6
f 487/4/6 488/4/6 491/4/6
f 491/4/6 490/4/6 492/4/6
f 477/4/6 491/4/6 493/4/6
f 493/4/6 491/4/6 494/4/6
f 492/4/6 490/4/6 495/4/6
f 490/4/6 482/4/6 496/4/6
f 495/4/6 490/4/6 496/4/6
f 497/2/6 498/2/6 499/2/6
f 499/2/6 498/2/6 500/2/6
f 501/6/6 502/6/6 506/6/6
f 502/5/6 503/5/6 507/5/6
f 506/6/6 502/6/6 507/6/6
f 503/6/6 504/6/6 508/6/6
f 507/5/6 503/5/6 508/5/6
f 504/5/6 505/5/6 509/5/6
f 508/6/6 504/6/6 509/6/6
f 509/5/6 505/5/6 510/5/6
f 501/6/6 506/6/6 511/6/6
f 506/7/6 507/7/6 512/7/6
f 511/6/6 506/6/6 512/6/6
f 512/7/6 507/7/6 513/7/6
f 507/6/6 508/6/6 514/6/6
f 513/7/6 507/7/6 514/7/6
f 508/5/6 509/5/6 515/5/6
f 514/6/6 508/6/6 515/6/6
f 509/7/6 510/7/6 516/7/6
f 515/5/6 509/5/6 516/5/6
f 516/7/6 510/7/6 517/7/6
f 512/7/6 513/7/6 520/7/6
f 511/7/6 512/7/6 520/7/6
f 520/7/6 513/7/6 521/7/6
f 513/6/6 514/6/6 522/6/6
f 521/7/6 513/7/6 522/7/6
f 514/5/6 515/5/6 523/5/6
f 522/6/6 514/6/6 523/6/6
f 515/5/6 516/5/6 523/5/6
f 523/5/6 516/5/6 524/5/6
f 516/6/6 517/6/6 525/6/6
f 524/5/6 516/5/6 525/5/6
f 524/6/6 525/6/6 528/6/6
f 525/6/6 517/6/6 529/6/6
f 528/6/6 525/6/6 529/6/6
f 520/5/6 521/5/6 530/5/6
f 530/5/6 521/5/6 531/5/6
f 530/7/6 531/7/6 532/7/6
f 532/7/6 531/7/6 533/7/6
f 528/5/6 529/5/6 534/5/6
f 534/5/6 529/5/6 535/5/6
f 532/6/6 533/6/6 536/6/6
f 534/6/6 535/6/6 538/6/6
f 518/2/6 519/2/6 539/2/6
f 539/2/6 519/2/6 540/2/6
f 536/6/6 537/6/6 541/6/6
f 532/6/6 536/6/6 541/6/6
f 541/6/6 537/6/6 542/6/6
f 537/5/6 538/5/6 543/5/6
f 538/6/6 535/6/6 543/6/6
f 543/6/6 535/6/6 544/6/6
f 526/2/6 527/2/6 545/2/6
f 545/2/6 527/2/6 546/2/6
f 541/7/6 542/7/6 547/7/6
f 542/6/6 537/6/6 548/6/6
f 547/7/6 542/7/6 548/7/6
f 543/5/6 544/5/6 549/5/6
f 548/6/6 537/6/6 549/6/6
f 537/5/6 543/5/6 549/5/6
f 549/5/6 544/5/6 550/5/6
f 550/5/6 544/5/6 551/5/6
f 551/5/6 544/5/6 552/5/6
f 547/5/6 548/5/6 553/5/6
f 548/5/6 549/5/6 553/5/6
f 553/5/6 549/5/6 554/5/6
f 549/6/6 550/6/6 555/6/6
f 554/5/6 549/5/6 555/5/6
f 550/7/6 551/7/6 556/7/6
f 555/6/6 550/6/6 556/6/6
f 551/6/6 552/6/6 557/6/6
f 556/7/6 551/7/6 557/7/6
f 552/5/6 544/5/6 558/5/6
f 557/6/6 552/6/6 558/6/6
f 558/5/6 544/5/6 559/5/6
f 553/7/6 554/7/6 560/7/6
f 555/6/6 556/6/6 561/6/6
f 560/7/6 554/7/6 561/7/6
f 554/6/6 555/6/6 561/6/6
f 556/5/6 557/5/6 562/5/6
f 561/6/6 556/6/6 562/6/6
f 558/6/6 559/6/6 563/6/6
f 562/5/6 557/5/6 563/5/6
f 557/6/6 558/6/6 563/6/6
f 563/6/6 559/6/6 564/6/6
f 565/3/6 566/3/6 567/3/6
f 567/3/6 566/3/6 568/3/6
f 569/1/6 570/1/6 571/1/6
f 571/1/6 570/1/6 572/1/6
f 573/1/6 574/1/6 575/1/6
f 575/1/6 574/1/6 576/1/6
f 577/1/6 578/1/6 579/1/6
f 579/1/6 578/1/6 580/1/6
f 581/1/6 582/1/6 583/1/6
f 583/1/6 582/1/6 584/1/6
f 585/1/6 586/1/6 587/1/6
f 587/1/6 586/1/6 588/1/6
f 589/1/6 590/1/6 591/1/6
f 591/1/6 590/1/6 592/1/6
f 593/1/6 594/1/6 595/1/6
f 595/1/6 594/1/6 596/1/6
f 597/7/6 598/7/6 599/7/6
f 599/7/6 598/7/6 600/7/6
f 601/1/6 602/1/6 603/1/6
f 603/1/6 602/1/6 604/1/6
f 605/7/6 606/7/6 607/7/6
f 607/7/6 606/7/6 608/7/6
f 611/7/6 612/7/6 613/7/6
f 613/7/6 612/7/6 614/7/6
f 609/7/6 610/7/6 615/7/6
f 615/7/6 610/7/6 616/7/6
f 616/1/6 617/1/6 618/1/6
f 618/1/6 617/1/6 619/1/6
f 620/7/6 621/7/6 624/7/6
f 624/7/6 621/7/6 625/7/6
f 622/7/6 623/7/6 627/7/6
f 627/7/6 623/7/6 628/7/6
f 626/7/6 627/7/6 630/7/6
f 628/7/6 629/7/6 630/7/6
f 627/7/6 628/7/6 630/7/6
f 630/7/6 629/7/6 631/7/6
f 632/7/6 633/7/6 635/7/6
f 634/7/6 635/7/6 636/7/6
f 635/7/6 633/7/6 637/7/6
f 636/7/6 635/7/6 637/7/6
