# Blender v2.79 (sub 0) OBJ File: 'Axel.blend'
# www.blender.org
mtllib Axel.mtl
o Cylinder.002_Cylinder.005
v 1.434381 -1.489509 -0.914969
v 1.434381 -0.489509 -0.914969
v 1.824562 -1.489509 -0.876540
v 1.824562 -0.489509 -0.876540
v 2.199749 -1.489509 -0.762728
v 2.199749 -0.489509 -0.762728
v 2.545522 -1.489509 -0.577908
v 2.545522 -0.489509 -0.577908
v 2.848595 -1.489509 -0.329183
v 2.848595 -0.489509 -0.329183
v 3.097321 -1.489509 -0.026110
v 3.097321 -0.489509 -0.026110
v 3.282140 -1.489509 0.319664
v 3.282140 -0.489509 0.319664
v 3.395952 -1.489509 0.694850
v 3.395952 -0.489509 0.694850
v 3.434381 -1.489509 1.085031
v 3.434381 -0.489509 1.085031
v 3.395952 -1.489509 1.475211
v 3.395952 -0.489509 1.475211
v 3.282141 -1.489509 1.850397
v 3.282141 -0.489509 1.850397
v 3.097321 -1.489509 2.196171
v 3.097321 -0.489509 2.196171
v 2.848595 -1.489509 2.499244
v 2.848595 -0.489509 2.499244
v 2.545522 -1.489509 2.747970
v 2.545522 -0.489509 2.747970
v 2.199748 -1.489509 2.932790
v 2.199748 -0.489509 2.932790
v 1.824562 -1.489509 3.046601
v 1.824562 -0.489509 3.046601
v 1.434381 -1.489509 3.085031
v 1.434381 -0.489509 3.085031
v 1.044200 -1.489509 3.046601
v 1.044200 -0.489509 3.046601
v 0.669014 -1.489509 2.932789
v 0.669014 -0.489509 2.932789
v 0.323240 -1.489509 2.747969
v 0.323240 -0.489509 2.747969
v 0.020167 -1.489509 2.499243
v 0.020167 -0.489509 2.499243
v -0.228559 -1.489509 2.196170
v -0.228559 -0.489509 2.196170
v -0.413378 -1.489509 1.850396
v -0.413378 -0.489509 1.850396
v -0.527189 -1.489509 1.475210
v -0.527189 -0.489509 1.475210
v -0.565619 -1.489509 1.085029
v -0.565619 -0.489509 1.085029
v -0.527189 -1.489509 0.694848
v -0.527189 -0.489509 0.694848
v -0.413377 -1.489509 0.319662
v -0.413377 -0.489509 0.319662
v -0.228556 -1.489509 -0.026112
v -0.228556 -0.489509 -0.026112
v 0.020170 -1.489509 -0.329185
v 0.020170 -0.489509 -0.329185
v 0.323243 -1.489509 -0.577910
v 0.323243 -0.489509 -0.577910
v 0.669017 -1.489509 -0.762729
v 0.669017 -0.489509 -0.762729
v 1.044204 -1.489509 -0.876540
v 1.044204 -0.489509 -0.876540
v 1.434381 7.709853 -0.914969
v 1.434381 8.709853 -0.914969
v 1.824562 7.709853 -0.876540
v 1.824562 8.709853 -0.876540
v 2.199749 7.709853 -0.762728
v 2.199749 8.709853 -0.762728
v 2.545522 7.709853 -0.577909
v 2.545522 8.709853 -0.577909
v 2.848595 7.709853 -0.329183
v 2.848595 8.709853 -0.329183
v 3.097321 7.709853 -0.026110
v 3.097321 8.709853 -0.026110
v 3.282140 7.709853 0.319664
v 3.282140 8.709853 0.319664
v 3.395952 7.709853 0.694850
v 3.395952 8.709853 0.694850
v 3.434381 7.709853 1.085031
v 3.434381 8.709853 1.085031
v 3.395952 7.709853 1.475211
v 3.395952 8.709853 1.475211
v 3.282141 7.709853 1.850397
v 3.282141 8.709853 1.850397
v 3.097321 7.709853 2.196171
v 3.097321 8.709853 2.196171
v 2.848595 7.709853 2.499244
v 2.848595 8.709853 2.499244
v 2.545522 7.709853 2.747970
v 2.545522 8.709853 2.747970
v 2.199748 7.709853 2.932790
v 2.199748 8.709853 2.932790
v 1.824562 7.709853 3.046601
v 1.824562 8.709853 3.046601
v 1.434381 7.709853 3.085031
v 1.434381 8.709853 3.085031
v 1.044200 7.709853 3.046601
v 1.044200 8.709853 3.046601
v 0.669014 7.709853 2.932789
v 0.669014 8.709853 2.932789
v 0.323240 7.709853 2.747969
v 0.323240 8.709853 2.747969
v 0.020167 7.709853 2.499243
v 0.020167 8.709853 2.499243
v -0.228559 7.709853 2.196170
v -0.228559 8.709853 2.196170
v -0.413378 7.709853 1.850396
v -0.413378 8.709853 1.850396
v -0.527189 7.709853 1.475210
v -0.527189 8.709853 1.475210
v -0.565619 7.709853 1.085029
v -0.565619 8.709853 1.085029
v -0.527189 7.709853 0.694848
v -0.527189 8.709853 0.694848
v -0.413377 7.709853 0.319662
v -0.413377 8.709853 0.319662
v -0.228556 7.709853 -0.026112
v -0.228556 8.709853 -0.026112
v 0.020170 7.709853 -0.329185
v 0.020170 8.709853 -0.329185
v 0.323243 7.709853 -0.577910
v 0.323243 8.709853 -0.577910
v 0.669017 7.709853 -0.762730
v 0.669017 8.709853 -0.762730
v 1.044204 7.709853 -0.876540
v 1.044204 8.709853 -0.876540
v 1.436618 -1.325931 -0.408634
v 1.436618 8.674069 -0.408634
v 1.729253 -1.325931 -0.379812
v 1.729253 8.674069 -0.379812
v 2.010643 -1.325931 -0.294453
v 2.010643 8.674069 -0.294453
v 2.269973 -1.325931 -0.155838
v 2.269973 8.674069 -0.155838
v 2.497278 -1.325931 0.030706
v 2.497278 8.674069 0.030706
v 2.683822 -1.325931 0.258011
v 2.683822 8.674069 0.258011
v 2.822437 -1.325931 0.517341
v 2.822437 8.674069 0.517341
v 2.907795 -1.325931 0.798731
v 2.907795 8.674069 0.798731
v 2.936618 -1.325931 1.091366
v 2.936618 8.674069 1.091366
v 2.907795 -1.325931 1.384001
v 2.907795 8.674069 1.384001
v 2.822437 -1.325931 1.665391
v 2.822437 8.674069 1.665391
v 2.683822 -1.325931 1.924721
v 2.683822 8.674069 1.924721
v 2.497278 -1.325931 2.152026
v 2.497278 8.674069 2.152026
v 2.269973 -1.325931 2.338571
v 2.269973 8.674069 2.338571
v 2.010643 -1.325931 2.477186
v 2.010643 8.674069 2.477186
v 1.729253 -1.325931 2.562544
v 1.729253 8.674069 2.562544
v 1.436617 -1.325931 2.591366
v 1.436617 8.674069 2.591366
v 1.143981 -1.325931 2.562544
v 1.143981 8.674069 2.562544
v 0.862592 -1.325931 2.477185
v 0.862592 8.674069 2.477185
v 0.603262 -1.325931 2.338570
v 0.603262 8.674069 2.338570
v 0.375957 -1.325931 2.152026
v 0.375957 8.674069 2.152026
v 0.189413 -1.325931 1.924721
v 0.189413 8.674069 1.924721
v 0.050798 -1.325931 1.665390
v 0.050798 8.674069 1.665390
v -0.034561 -1.325931 1.384000
v -0.034561 8.674069 1.384000
v -0.063382 -1.325931 1.091365
v -0.063382 8.674069 1.091365
v -0.034560 -1.325931 0.798729
v -0.034560 8.674069 0.798729
v 0.050799 -1.325931 0.517339
v 0.050799 8.674069 0.517339
v 0.189414 -1.325931 0.258009
v 0.189414 8.674069 0.258009
v 0.375959 -1.325931 0.030705
v 0.375959 8.674069 0.030705
v 0.603264 -1.325931 -0.155839
v 0.603264 8.674069 -0.155839
v 0.862594 -1.325931 -0.294454
v 0.862594 8.674069 -0.294454
v 1.143984 -1.325931 -0.379812
v 1.143984 8.674069 -0.379812
vt 0.633750 0.000611
vt 0.633750 0.154485
vt 0.625266 0.154485
vt 0.625266 0.000611
vt 0.624044 0.465900
vt 0.624044 0.619774
vt 0.615560 0.619774
vt 0.615560 0.465900
vt 0.624044 0.155707
vt 0.624044 0.309581
vt 0.615560 0.309581
vt 0.615560 0.155707
vt 0.203232 0.309322
vt 0.203232 0.463196
vt 0.194748 0.463196
vt 0.194748 0.309322
vt 0.098577 0.271039
vt 0.098576 0.424913
vt 0.090092 0.424913
vt 0.090093 0.271039
vt 0.088870 0.271039
vt 0.088870 0.424913
vt 0.080386 0.424913
vt 0.080386 0.271039
vt 0.127697 0.271039
vt 0.127697 0.424913
vt 0.119213 0.424913
vt 0.119213 0.271039
vt 0.023042 0.154967
vt 0.023040 0.308841
vt 0.014557 0.308841
vt 0.014558 0.154966
vt 0.212938 0.464418
vt 0.212938 0.618293
vt 0.204454 0.618293
vt 0.204454 0.464418
vt 0.164402 0.426135
vt 0.164402 0.580009
vt 0.155918 0.580009
vt 0.155918 0.426135
vt 0.232350 0.464418
vt 0.232350 0.618293
vt 0.223866 0.618293
vt 0.223866 0.464418
vt 0.174108 0.271039
vt 0.174108 0.424913
vt 0.165624 0.424913
vt 0.165625 0.271039
vt 0.137403 0.271039
vt 0.137403 0.424913
vt 0.128919 0.424913
vt 0.128919 0.271039
vt 0.164402 0.271039
vt 0.164402 0.424913
vt 0.155918 0.424913
vt 0.155918 0.271039
vt 0.013335 0.154967
vt 0.013333 0.308841
vt 0.004849 0.308841
vt 0.004851 0.154966
vt 0.032750 0.154967
vt 0.032748 0.308841
vt 0.024264 0.308841
vt 0.024266 0.154966
vt 0.042458 0.154967
vt 0.042456 0.308841
vt 0.033972 0.308841
vt 0.033974 0.154966
vt 0.117991 0.271039
vt 0.117989 0.424913
vt 0.109505 0.424913
vt 0.109507 0.271039
vt 0.108283 0.271039
vt 0.108282 0.424913
vt 0.099799 0.424913
vt 0.099799 0.271039
vt 0.147109 0.271039
vt 0.147109 0.424913
vt 0.138625 0.424913
vt 0.138625 0.271039
vt 0.088870 0.426135
vt 0.088870 0.580009
vt 0.080386 0.580009
vt 0.080386 0.426135
vt 0.079164 0.271039
vt 0.079164 0.424913
vt 0.070680 0.424913
vt 0.070680 0.271039
vt 0.032746 0.465159
vt 0.032746 0.619033
vt 0.024263 0.619033
vt 0.024263 0.465159
vt 0.069458 0.426135
vt 0.069458 0.580009
vt 0.060974 0.580009
vt 0.060974 0.426135
vt 0.193526 0.309322
vt 0.193526 0.463196
vt 0.185042 0.463196
vt 0.185042 0.309322
vt 0.624044 0.000611
vt 0.624044 0.154485
vt 0.615560 0.154485
vt 0.615560 0.000611
vt 0.174108 0.426135
vt 0.174108 0.580009
vt 0.165624 0.580009
vt 0.165624 0.426135
vt 0.624044 0.310804
vt 0.624044 0.464678
vt 0.615560 0.464678
vt 0.615560 0.310804
vt 0.042452 0.465159
vt 0.042452 0.619033
vt 0.033969 0.619033
vt 0.033969 0.465159
vt 0.193526 0.464418
vt 0.193526 0.618293
vt 0.185042 0.618293
vt 0.185042 0.464418
vt 0.135281 0.153744
vt 0.126798 0.153744
vt 0.118477 0.150802
vt 0.110639 0.145030
vt 0.103585 0.136651
vt 0.097586 0.125986
vt 0.092873 0.113446
vt 0.089626 0.099512
vt 0.087971 0.084719
vt 0.087971 0.069637
vt 0.089626 0.054844
vt 0.092872 0.040910
vt 0.097586 0.028369
vt 0.103585 0.017705
vt 0.110639 0.009325
vt 0.118477 0.003554
vt 0.126798 0.000611
vt 0.135281 0.000611
vt 0.143602 0.003554
vt 0.151440 0.009325
vt 0.158494 0.017705
vt 0.164493 0.028370
vt 0.169207 0.040910
vt 0.172453 0.054845
vt 0.174108 0.069637
vt 0.174108 0.084719
vt 0.172453 0.099512
vt 0.169207 0.113446
vt 0.164493 0.125986
vt 0.158494 0.136651
vt 0.151440 0.145030
vt 0.143602 0.150802
vt 0.242056 0.464418
vt 0.242056 0.618293
vt 0.233572 0.618293
vt 0.233572 0.464418
vt 0.643455 0.155707
vt 0.643455 0.309582
vt 0.634972 0.309582
vt 0.634972 0.155707
vt 0.214158 0.000611
vt 0.222641 0.000611
vt 0.230962 0.003554
vt 0.238800 0.009325
vt 0.245854 0.017705
vt 0.251853 0.028369
vt 0.256566 0.040910
vt 0.259813 0.054844
vt 0.261468 0.069636
vt 0.261468 0.084719
vt 0.259813 0.099511
vt 0.256566 0.113445
vt 0.251853 0.125986
vt 0.245854 0.136651
vt 0.238800 0.145030
vt 0.230962 0.150802
vt 0.222641 0.153744
vt 0.214157 0.153744
vt 0.205837 0.150802
vt 0.197998 0.145030
vt 0.190944 0.136651
vt 0.184946 0.125986
vt 0.180232 0.113445
vt 0.176986 0.099511
vt 0.175331 0.084718
vt 0.175331 0.069636
vt 0.176986 0.054844
vt 0.180232 0.040910
vt 0.184946 0.028369
vt 0.190945 0.017704
vt 0.197999 0.009325
vt 0.205837 0.003553
vt 0.059752 0.426135
vt 0.059752 0.580009
vt 0.051268 0.580009
vt 0.051268 0.426135
vt 0.212938 0.309322
vt 0.212938 0.463196
vt 0.204454 0.463196
vt 0.204454 0.309322
vt 0.633750 0.465900
vt 0.633750 0.619774
vt 0.625266 0.619774
vt 0.625266 0.465900
vt 0.633750 0.155707
vt 0.633750 0.309581
vt 0.625266 0.309581
vt 0.625266 0.155707
vt 0.242056 0.309322
vt 0.242056 0.463196
vt 0.233572 0.463196
vt 0.233572 0.309322
vt 0.127697 0.426135
vt 0.127697 0.580009
vt 0.119213 0.580009
vt 0.119213 0.426135
vt 0.042456 0.310063
vt 0.042456 0.463937
vt 0.033972 0.463937
vt 0.033972 0.310063
vt 0.633750 0.310804
vt 0.633750 0.464678
vt 0.625266 0.464678
vt 0.625266 0.310804
vt 0.203232 0.464418
vt 0.203232 0.618293
vt 0.194748 0.618293
vt 0.194748 0.464418
vt 0.032748 0.310063
vt 0.032748 0.463937
vt 0.024264 0.463937
vt 0.024264 0.310063
vt 0.183820 0.464418
vt 0.183820 0.618293
vt 0.175336 0.618293
vt 0.175336 0.464418
vt 0.023041 0.310063
vt 0.023040 0.463937
vt 0.014557 0.463937
vt 0.014557 0.310063
vt 0.251762 0.309322
vt 0.251762 0.463196
vt 0.243278 0.463196
vt 0.243278 0.309322
vt 0.108283 0.426135
vt 0.108282 0.580009
vt 0.099799 0.580009
vt 0.099799 0.426135
vt 0.013335 0.465159
vt 0.013334 0.619033
vt 0.004851 0.619033
vt 0.004851 0.465159
vt 0.261468 0.309322
vt 0.261468 0.463196
vt 0.252984 0.463196
vt 0.252984 0.309322
vt 0.023041 0.465159
vt 0.023040 0.619033
vt 0.014557 0.619033
vt 0.014557 0.465159
vt 0.147109 0.426135
vt 0.147109 0.580009
vt 0.138625 0.580009
vt 0.138625 0.426135
vt 0.183814 0.309322
vt 0.183814 0.463196
vt 0.175331 0.463196
vt 0.175331 0.309322
vt 0.013335 0.310063
vt 0.013334 0.463937
vt 0.004851 0.463937
vt 0.004851 0.310063
vt 0.261468 0.464418
vt 0.261468 0.618293
vt 0.252984 0.618293
vt 0.252984 0.464418
vt 0.232350 0.309322
vt 0.232350 0.463196
vt 0.223866 0.463196
vt 0.223866 0.309322
vt 0.222644 0.464418
vt 0.222644 0.618293
vt 0.214160 0.618293
vt 0.214160 0.464418
vt 0.117989 0.426135
vt 0.117989 0.580009
vt 0.109505 0.580009
vt 0.109505 0.426135
vt 0.137403 0.426135
vt 0.137403 0.580009
vt 0.128919 0.580009
vt 0.128919 0.426135
vt 0.222644 0.309322
vt 0.222644 0.463196
vt 0.214160 0.463196
vt 0.214160 0.309322
vt 0.059752 0.271039
vt 0.059752 0.424913
vt 0.051268 0.424913
vt 0.051268 0.271039
vt 0.098576 0.426135
vt 0.098576 0.580009
vt 0.090092 0.580009
vt 0.090092 0.426135
vt 0.079164 0.426135
vt 0.079164 0.580009
vt 0.070680 0.580009
vt 0.070680 0.426135
vt 0.069458 0.271039
vt 0.069458 0.424913
vt 0.060974 0.424913
vt 0.060974 0.271039
vt 0.031117 0.150802
vt 0.023279 0.145031
vt 0.016225 0.136651
vt 0.010226 0.125987
vt 0.005513 0.113446
vt 0.002266 0.099512
vt 0.000611 0.084719
vt 0.000611 0.069637
vt 0.002266 0.054844
vt 0.005513 0.040910
vt 0.010226 0.028369
vt 0.016225 0.017704
vt 0.023279 0.009325
vt 0.031117 0.003553
vt 0.039438 0.000611
vt 0.047922 0.000611
vt 0.056243 0.003554
vt 0.064081 0.009325
vt 0.071135 0.017705
vt 0.077134 0.028370
vt 0.081847 0.040910
vt 0.085093 0.054844
vt 0.086749 0.069637
vt 0.086748 0.084719
vt 0.085093 0.099512
vt 0.081847 0.113446
vt 0.077133 0.125986
vt 0.071134 0.136651
vt 0.064080 0.145030
vt 0.056242 0.150802
vt 0.047922 0.153745
vt 0.039438 0.153745
vt 0.251762 0.464418
vt 0.251762 0.618293
vt 0.243278 0.618293
vt 0.243278 0.464418
vt 0.643455 0.465900
vt 0.643455 0.619774
vt 0.634972 0.619774
vt 0.634972 0.465900
vt 0.222641 0.154966
vt 0.230962 0.157909
vt 0.238800 0.163680
vt 0.245854 0.172060
vt 0.251853 0.182724
vt 0.256566 0.195265
vt 0.259813 0.209199
vt 0.261468 0.223992
vt 0.261468 0.239074
vt 0.259813 0.253867
vt 0.256566 0.267801
vt 0.251853 0.280342
vt 0.245854 0.291007
vt 0.238800 0.299386
vt 0.230962 0.305158
vt 0.222641 0.308100
vt 0.214157 0.308100
vt 0.205837 0.305157
vt 0.197999 0.299386
vt 0.190945 0.291006
vt 0.184946 0.280342
vt 0.180232 0.267801
vt 0.176986 0.253867
vt 0.175331 0.239074
vt 0.175331 0.223992
vt 0.176986 0.209199
vt 0.180232 0.195265
vt 0.184946 0.182725
vt 0.190945 0.172060
vt 0.197999 0.163681
vt 0.205837 0.157909
vt 0.214157 0.154966
vt 0.404832 0.000611
vt 0.404834 0.999263
vt 0.395030 0.999389
vt 0.395028 0.000736
vt 0.382776 0.000611
vt 0.382778 0.999263
vt 0.372974 0.999389
vt 0.372972 0.000736
vt 0.603311 0.000611
vt 0.603311 0.999263
vt 0.593507 0.999389
vt 0.593507 0.000736
vt 0.581259 0.000611
vt 0.581259 0.999263
vt 0.571455 0.999389
vt 0.571455 0.000736
vt 0.526128 0.000611
vt 0.526128 0.999264
vt 0.516324 0.999389
vt 0.516324 0.000736
vt 0.592285 0.000611
vt 0.592285 0.999263
vt 0.582481 0.999389
vt 0.582481 0.000736
vt 0.426889 0.000611
vt 0.426891 0.999263
vt 0.417087 0.999389
vt 0.417085 0.000736
vt 0.614338 0.000611
vt 0.614338 0.999263
vt 0.604533 0.999389
vt 0.604533 0.000736
vt 0.415861 0.000611
vt 0.415863 0.999263
vt 0.406059 0.999389
vt 0.406057 0.000736
vt 0.393804 0.000611
vt 0.393806 0.999263
vt 0.384002 0.999389
vt 0.384000 0.000736
vt 0.294551 0.000611
vt 0.294553 0.999264
vt 0.284749 0.999389
vt 0.284747 0.000736
vt 0.327635 0.000611
vt 0.327637 0.999264
vt 0.317833 0.999389
vt 0.317831 0.000736
vt 0.548181 0.000611
vt 0.548181 0.999264
vt 0.538377 0.999389
vt 0.538377 0.000736
vt 0.448945 0.000611
vt 0.448945 0.999264
vt 0.439141 0.999389
vt 0.439141 0.000736
vt 0.515102 0.000611
vt 0.515102 0.999264
vt 0.505298 0.999389
vt 0.505298 0.000736
vt 0.493050 0.000611
vt 0.493050 0.999264
vt 0.483246 0.999389
vt 0.483246 0.000736
vt 0.470997 0.000611
vt 0.470997 0.999264
vt 0.461193 0.999389
vt 0.461193 0.000736
vt 0.537154 0.000611
vt 0.537154 0.999264
vt 0.527350 0.999389
vt 0.527350 0.000736
vt 0.459971 0.000611
vt 0.459971 0.999264
vt 0.450167 0.999389
vt 0.450167 0.000736
vt 0.349692 0.000611
vt 0.349694 0.999264
vt 0.339890 0.999389
vt 0.339888 0.000736
vt 0.283523 0.000611
vt 0.283525 0.999264
vt 0.273721 0.999389
vt 0.273719 0.000736
vt 0.305579 0.000611
vt 0.305581 0.999264
vt 0.295777 0.999389
vt 0.295775 0.000736
vt 0.338663 0.000611
vt 0.338665 0.999264
vt 0.328861 0.999389
vt 0.328859 0.000736
vt 0.272494 0.000611
vt 0.272496 0.999264
vt 0.262692 0.999389
vt 0.262690 0.000736
vt 0.316607 0.000611
vt 0.316609 0.999264
vt 0.306805 0.999389
vt 0.306803 0.000736
vt 0.482024 0.000611
vt 0.482024 0.999264
vt 0.472220 0.999389
vt 0.472220 0.000736
vt 0.504076 0.000611
vt 0.504076 0.999264
vt 0.494272 0.999389
vt 0.494272 0.000736
vt 0.559207 0.000611
vt 0.559207 0.999264
vt 0.549403 0.999389
vt 0.549403 0.000736
vt 0.570233 0.000611
vt 0.570233 0.999264
vt 0.560429 0.999389
vt 0.560429 0.000736
vt 0.360720 0.000611
vt 0.360722 0.999264
vt 0.350918 0.999389
vt 0.350916 0.000736
vt 0.132385 0.267609
vt 0.126506 0.263281
vt 0.121216 0.256996
vt 0.116717 0.248998
vt 0.113182 0.239592
vt 0.110747 0.229142
vt 0.109505 0.218047
vt 0.109505 0.206736
vt 0.110747 0.195641
vt 0.113181 0.185191
vt 0.116716 0.175785
vt 0.121216 0.167787
vt 0.126506 0.161502
vt 0.132385 0.157173
vt 0.138625 0.154966
vt 0.144988 0.154966
vt 0.151229 0.157173
vt 0.157107 0.161502
vt 0.162398 0.167787
vt 0.166897 0.175785
vt 0.170432 0.185191
vt 0.172867 0.195641
vt 0.174108 0.206736
vt 0.174108 0.218047
vt 0.172867 0.229142
vt 0.170432 0.239592
vt 0.166897 0.248998
vt 0.162398 0.256996
vt 0.157107 0.263281
vt 0.151229 0.267610
vt 0.144988 0.269816
vt 0.138625 0.269816
vt 0.371748 0.000611
vt 0.371750 0.999264
vt 0.361946 0.999389
vt 0.361944 0.000736
vt 0.437917 0.000611
vt 0.437919 0.999260
vt 0.428115 0.999385
vt 0.428113 0.000736
vt 0.055390 0.167786
vt 0.060681 0.161502
vt 0.066560 0.157173
vt 0.072800 0.154966
vt 0.079163 0.154966
vt 0.085404 0.157173
vt 0.091282 0.161502
vt 0.096573 0.167786
vt 0.101072 0.175785
vt 0.104607 0.185190
vt 0.107042 0.195641
vt 0.108283 0.206735
vt 0.108283 0.218047
vt 0.107042 0.229142
vt 0.104607 0.239592
vt 0.101072 0.248998
vt 0.096572 0.256997
vt 0.091282 0.263281
vt 0.085403 0.267610
vt 0.079163 0.269817
vt 0.072800 0.269816
vt 0.066559 0.267610
vt 0.060681 0.263281
vt 0.055390 0.256996
vt 0.050891 0.248998
vt 0.047356 0.239592
vt 0.044921 0.229142
vt 0.043680 0.218047
vt 0.043680 0.206735
vt 0.044921 0.195641
vt 0.047356 0.185190
vt 0.050891 0.175785
vn 0.0980 0.0000 -0.9952
vn 0.2903 0.0000 -0.9569
vn 0.4714 0.0000 -0.8819
vn 0.6344 0.0000 -0.7730
vn 0.7730 0.0000 -0.6344
vn 0.8819 0.0000 -0.4714
vn 0.9569 0.0000 -0.2903
vn 0.9952 0.0000 -0.0980
vn 0.9952 0.0000 0.0980
vn 0.9569 0.0000 0.2903
vn 0.8819 0.0000 0.4714
vn 0.7730 0.0000 0.6344
vn 0.6344 0.0000 0.7730
vn 0.4714 0.0000 0.8819
vn 0.2903 0.0000 0.9569
vn 0.0980 0.0000 0.9952
vn -0.0980 0.0000 0.9952
vn -0.2903 0.0000 0.9569
vn -0.4714 0.0000 0.8819
vn -0.6344 0.0000 0.7730
vn -0.7730 0.0000 0.6344
vn -0.8819 0.0000 0.4714
vn -0.9569 0.0000 0.2903
vn -0.9952 0.0000 0.0980
vn -0.9952 0.0000 -0.0980
vn -0.9569 0.0000 -0.2903
vn -0.8819 0.0000 -0.4714
vn -0.7730 0.0000 -0.6344
vn -0.6344 0.0000 -0.7730
vn -0.4714 0.0000 -0.8819
vn 0.0000 1.0000 0.0000
vn -0.2903 0.0000 -0.9569
vn -0.0980 0.0000 -0.9952
vn 0.0000 -1.0000 -0.0000
usemtl None
s off
f 1/1/1 2/2/1 4/3/1 3/4/1
f 3/5/2 4/6/2 6/7/2 5/8/2
f 5/9/3 6/10/3 8/11/3 7/12/3
f 7/13/4 8/14/4 10/15/4 9/16/4
f 9/17/5 10/18/5 12/19/5 11/20/5
f 11/21/6 12/22/6 14/23/6 13/24/6
f 13/25/7 14/26/7 16/27/7 15/28/7
f 15/29/8 16/30/8 18/31/8 17/32/8
f 17/33/9 18/34/9 20/35/9 19/36/9
f 19/37/10 20/38/10 22/39/10 21/40/10
f 21/41/11 22/42/11 24/43/11 23/44/11
f 23/45/12 24/46/12 26/47/12 25/48/12
f 25/49/13 26/50/13 28/51/13 27/52/13
f 27/53/14 28/54/14 30/55/14 29/56/14
f 29/57/15 30/58/15 32/59/15 31/60/15
f 31/61/16 32/62/16 34/63/16 33/64/16
f 33/65/17 34/66/17 36/67/17 35/68/17
f 35/69/18 36/70/18 38/71/18 37/72/18
f 37/73/19 38/74/19 40/75/19 39/76/19
f 39/77/20 40/78/20 42/79/20 41/80/20
f 41/81/21 42/82/21 44/83/21 43/84/21
f 43/85/22 44/86/22 46/87/22 45/88/22
f 45/89/23 46/90/23 48/91/23 47/92/23
f 47/93/24 48/94/24 50/95/24 49/96/24
f 49/97/25 50/98/25 52/99/25 51/100/25
f 51/101/26 52/102/26 54/103/26 53/104/26
f 53/105/27 54/106/27 56/107/27 55/108/27
f 55/109/28 56/110/28 58/111/28 57/112/28
f 57/113/29 58/114/29 60/115/29 59/116/29
f 59/117/30 60/118/30 62/119/30 61/120/30
f 4/121/31 2/122/31 64/123/31 62/124/31 60/125/31 58/126/31 56/127/31 54/128/31 52/129/31 50/130/31 48/131/31 46/132/31 44/133/31 42/134/31 40/135/31 38/136/31 36/137/31 34/138/31 32/139/31 30/140/31 28/141/31 26/142/31 24/143/31 22/144/31 20/145/31 18/146/31 16/147/31 14/148/31 12/149/31 10/150/31 8/151/31 6/152/31
f 61/153/32 62/154/32 64/155/32 63/156/32
f 63/157/33 64/158/33 2/159/33 1/160/33
f 1/161/34 3/162/34 5/163/34 7/164/34 9/165/34 11/166/34 13/167/34 15/168/34 17/169/34 19/170/34 21/171/34 23/172/34 25/173/34 27/174/34 29/175/34 31/176/34 33/177/34 35/178/34 37/179/34 39/180/34 41/181/34 43/182/34 45/183/34 47/184/34 49/185/34 51/186/34 53/187/34 55/188/34 57/189/34 59/190/34 61/191/34 63/192/34
f 65/193/1 66/194/1 68/195/1 67/196/1
f 67/197/2 68/198/2 70/199/2 69/200/2
f 69/201/3 70/202/3 72/203/3 71/204/3
f 71/205/4 72/206/4 74/207/4 73/208/4
f 73/209/5 74/210/5 76/211/5 75/212/5
f 75/213/6 76/214/6 78/215/6 77/216/6
f 77/217/7 78/218/7 80/219/7 79/220/7
f 79/221/8 80/222/8 82/223/8 81/224/8
f 81/225/9 82/226/9 84/227/9 83/228/9
f 83/229/10 84/230/10 86/231/10 85/232/10
f 85/233/11 86/234/11 88/235/11 87/236/11
f 87/237/12 88/238/12 90/239/12 89/240/12
f 89/241/13 90/242/13 92/243/13 91/244/13
f 91/245/14 92/246/14 94/247/14 93/248/14
f 93/249/15 94/250/15 96/251/15 95/252/15
f 95/253/16 96/254/16 98/255/16 97/256/16
f 97/257/17 98/258/17 100/259/17 99/260/17
f 99/261/18 100/262/18 102/263/18 101/264/18
f 101/265/19 102/266/19 104/267/19 103/268/19
f 103/269/20 104/270/20 106/271/20 105/272/20
f 105/273/21 106/274/21 108/275/21 107/276/21
f 107/277/22 108/278/22 110/279/22 109/280/22
f 109/281/23 110/282/23 112/283/23 111/284/23
f 111/285/24 112/286/24 114/287/24 113/288/24
f 113/289/25 114/290/25 116/291/25 115/292/25
f 115/293/26 116/294/26 118/295/26 117/296/26
f 117/297/27 118/298/27 120/299/27 119/300/27
f 119/301/28 120/302/28 122/303/28 121/304/28
f 121/305/29 122/306/29 124/307/29 123/308/29
f 123/309/30 124/310/30 126/311/30 125/312/30
f 68/313/31 66/314/31 128/315/31 126/316/31 124/317/31 122/318/31 120/319/31 118/320/31 116/321/31 114/322/31 112/323/31 110/324/31 108/325/31 106/326/31 104/327/31 102/328/31 100/329/31 98/330/31 96/331/31 94/332/31 92/333/31 90/334/31 88/335/31 86/336/31 84/337/31 82/338/31 80/339/31 78/340/31 76/341/31 74/342/31 72/343/31 70/344/31
f 125/345/32 126/346/32 128/347/32 127/348/32
f 127/349/33 128/350/33 66/351/33 65/352/33
f 65/353/34 67/354/34 69/355/34 71/356/34 73/357/34 75/358/34 77/359/34 79/360/34 81/361/34 83/362/34 85/363/34 87/364/34 89/365/34 91/366/34 93/367/34 95/368/34 97/369/34 99/370/34 101/371/34 103/372/34 105/373/34 107/374/34 109/375/34 111/376/34 113/377/34 115/378/34 117/379/34 119/380/34 121/381/34 123/382/34 125/383/34 127/384/34
f 129/385/1 130/386/1 132/387/1 131/388/1
f 131/389/2 132/390/2 134/391/2 133/392/2
f 133/393/3 134/394/3 136/395/3 135/396/3
f 135/397/4 136/398/4 138/399/4 137/400/4
f 137/401/5 138/402/5 140/403/5 139/404/5
f 139/405/6 140/406/6 142/407/6 141/408/6
f 141/409/7 142/410/7 144/411/7 143/412/7
f 143/413/8 144/414/8 146/415/8 145/416/8
f 145/417/9 146/418/9 148/419/9 147/420/9
f 147/421/10 148/422/10 150/423/10 149/424/10
f 149/425/11 150/426/11 152/427/11 151/428/11
f 151/429/12 152/430/12 154/431/12 153/432/12
f 153/433/13 154/434/13 156/435/13 155/436/13
f 155/437/14 156/438/14 158/439/14 157/440/14
f 157/441/15 158/442/15 160/443/15 159/444/15
f 159/445/16 160/446/16 162/447/16 161/448/16
f 161/449/17 162/450/17 164/451/17 163/452/17
f 163/453/18 164/454/18 166/455/18 165/456/18
f 165/457/19 166/458/19 168/459/19 167/460/19
f 167/461/20 168/462/20 170/463/20 169/464/20
f 169/465/21 170/466/21 172/467/21 171/468/21
f 171/469/22 172/470/22 174/471/22 173/472/22
f 173/473/23 174/474/23 176/475/23 175/476/23
f 175/477/24 176/478/24 178/479/24 177/480/24
f 177/481/25 178/482/25 180/483/25 179/484/25
f 179/485/26 180/486/26 182/487/26 181/488/26
f 181/489/27 182/490/27 184/491/27 183/492/27
f 183/493/28 184/494/28 186/495/28 185/496/28
f 185/497/29 186/498/29 188/499/29 187/500/29
f 187/501/30 188/502/30 190/503/30 189/504/30
f 132/505/31 130/506/31 192/507/31 190/508/31 188/509/31 186/510/31 184/511/31 182/512/31 180/513/31 178/514/31 176/515/31 174/516/31 172/517/31 170/518/31 168/519/31 166/520/31 164/521/31 162/522/31 160/523/31 158/524/31 156/525/31 154/526/31 152/527/31 150/528/31 148/529/31 146/530/31 144/531/31 142/532/31 140/533/31 138/534/31 136/535/31 134/536/31
f 189/537/32 190/538/32 192/539/32 191/540/32
f 191/541/33 192/542/33 130/543/33 129/544/33
f 129/545/34 131/546/34 133/547/34 135/548/34 137/549/34 139/550/34 141/551/34 143/552/34 145/553/34 147/554/34 149/555/34 151/556/34 153/557/34 155/558/34 157/559/34 159/560/34 161/561/34 163/562/34 165/563/34 167/564/34 169/565/34 171/566/34 173/567/34 175/568/34 177/569/34 179/570/34 181/571/34 183/572/34 185/573/34 187/574/34 189/575/34 191/576/34
