# MagicaVoxel @ Ephtracy

# group
o 

# material
mtllib iftile [equals].mtl
usemtl palette

# normals
vn -1 0 0
vn 1 0 0
vn 0 0 1
vn 0 0 -1
vn 0 -1 0
vn 0 1 0

# texcoords
vt 0.400391 0.5
vt 0.404297 0.5
vt 0.587891 0.5
vt 0.716797 0.5

# verts
v 1.4 2 -0.9
v 1.4 2 -3.1
v 1.4 2.1 -0.9
v 1.4 2.1 -3.1
v 1.5 2.1 -1.5
v 1.5 2.1 -1.7
v 1.5 2.1 -2.1
v 1.5 2.1 -2.7
v 1.5 2.2 -1.5
v 1.5 2.2 -1.7
v 1.5 2.2 -2.1
v 1.5 2.2 -2.7
v 1.5 2.3 -1.5
v 1.5 2.3 -1.7
v 1.5 2.3 -2.1
v 1.5 2.3 -2.7
v 1.9 2.1 -2.3
v 1.9 2.1 -2.5
v 1.9 2.2 -2.3
v 1.9 2.2 -2.5
v 1.9 2.3 -2.3
v 1.9 2.3 -2.5
v 2 2.1 -0.9
v 2 2.1 -1.1
v 2 2.1 -2.9
v 2 2.1 -3.1
v 2 2.2 -0.9
v 2 2.2 -1.1
v 2 2.2 -2.9
v 2 2.2 -3.1
v 2.5 2.1 -1.7
v 2.5 2.1 -2.3
v 2.5 2.2 -1.7
v 2.5 2.2 -2.3
v 2.5 2.3 -1.7
v 2.5 2.3 -2.3
v 2.9 2.1 -1.7
v 2.9 2.1 -2.3
v 2.9 2.2 -1.7
v 2.9 2.2 -2.3
v 2.9 2.3 -1.7
v 2.9 2.3 -2.3
v 3.2 2.1 -1.7
v 3.2 2.1 -2.3
v 3.2 2.2 -1.7
v 3.2 2.2 -2.3
v 1.7 2.1 -2.3
v 1.7 2.1 -2.7
v 1.7 2.2 -2.3
v 1.7 2.2 -2.7
v 1.7 2.3 -2.3
v 1.7 2.3 -2.7
v 2.1 2.1 -2.3
v 2.1 2.1 -2.5
v 2.1 2.2 -2.3
v 2.1 2.2 -2.5
v 2.1 2.3 -2.3
v 2.1 2.3 -2.5
v 2.3 2.1 -1.5
v 2.3 2.1 -1.7
v 2.3 2.1 -2.1
v 2.3 2.1 -2.3
v 2.3 2.2 -1.5
v 2.3 2.2 -1.7
v 2.3 2.2 -2.1
v 2.3 2.2 -2.3
v 2.3 2.3 -1.5
v 2.3 2.3 -1.7
v 2.3 2.3 -2.1
v 2.3 2.3 -2.3
v 2.6 2.1 -0.9
v 2.6 2.1 -1.1
v 2.6 2.1 -2.9
v 2.6 2.1 -3.1
v 2.6 2.2 -0.9
v 2.6 2.2 -1.1
v 2.6 2.2 -2.9
v 2.6 2.2 -3.1
v 2.7 2.1 -1.7
v 2.7 2.1 -2.3
v 2.7 2.2 -1.7
v 2.7 2.2 -2.3
v 2.7 2.3 -1.7
v 2.7 2.3 -2.3
v 3.1 2.1 -1.7
v 3.1 2.1 -2.3
v 3.1 2.2 -1.7
v 3.1 2.2 -2.3
v 3.1 2.3 -1.7
v 3.1 2.3 -2.3
v 3.4 2 -0.9
v 3.4 2 -1.7
v 3.4 2 -2.3
v 3.4 2 -3.1
v 3.4 2.1 -0.9
v 3.4 2.1 -1.7
v 3.4 2.1 -2.3
v 3.4 2.1 -3.1
v 3.4 2.2 -1.7
v 3.4 2.2 -2.3
v 1.4 2 -0.9
v 1.4 2.1 -0.9
v 2 2 -0.9
v 2 2.1 -0.9
v 2 2.2 -0.9
v 2.6 2 -0.9
v 2.6 2.1 -0.9
v 2.6 2.2 -0.9
v 3.4 2 -0.9
v 3.4 2.1 -0.9
v 1.5 2.1 -1.5
v 1.5 2.2 -1.5
v 1.5 2.3 -1.5
v 2.3 2.1 -1.5
v 2.3 2.2 -1.5
v 2.3 2.3 -1.5
v 2.5 2.1 -1.7
v 2.5 2.2 -1.7
v 2.5 2.3 -1.7
v 2.7 2.1 -1.7
v 2.7 2.2 -1.7
v 2.7 2.3 -1.7
v 2.9 2.1 -1.7
v 2.9 2.2 -1.7
v 2.9 2.3 -1.7
v 3.1 2.1 -1.7
v 3.1 2.2 -1.7
v 3.1 2.3 -1.7
v 3.2 2.1 -1.7
v 3.2 2.2 -1.7
v 3.4 2.1 -1.7
v 3.4 2.2 -1.7
v 1.5 2.1 -2.1
v 1.5 2.2 -2.1
v 1.5 2.3 -2.1
v 2.3 2.1 -2.1
v 2.3 2.2 -2.1
v 2.3 2.3 -2.1
v 2 2.1 -2.9
v 2 2.2 -2.9
v 2.6 2.1 -2.9
v 2.6 2.2 -2.9
v 2 2.1 -1.1
v 2 2.2 -1.1
v 2.6 2.1 -1.1
v 2.6 2.2 -1.1
v 1.5 2.1 -1.7
v 1.5 2.2 -1.7
v 1.5 2.3 -1.7
v 2.3 2.1 -1.7
v 2.3 2.2 -1.7
v 2.3 2.3 -1.7
v 1.7 2.1 -2.3
v 1.7 2.2 -2.3
v 1.7 2.3 -2.3
v 1.9 2.1 -2.3
v 1.9 2.2 -2.3
v 1.9 2.3 -2.3
v 2.1 2.1 -2.3
v 2.1 2.2 -2.3
v 2.1 2.3 -2.3
v 2.3 2.1 -2.3
v 2.3 2.2 -2.3
v 2.3 2.3 -2.3
v 2.5 2.1 -2.3
v 2.5 2.2 -2.3
v 2.5 2.3 -2.3
v 2.7 2.1 -2.3
v 2.7 2.2 -2.3
v 2.7 2.3 -2.3
v 2.9 2.1 -2.3
v 2.9 2.2 -2.3
v 2.9 2.3 -2.3
v 3.1 2.1 -2.3
v 3.1 2.2 -2.3
v 3.1 2.3 -2.3
v 3.2 2.1 -2.3
v 3.2 2.2 -2.3
v 3.4 2.1 -2.3
v 3.4 2.2 -2.3
v 1.9 2.1 -2.5
v 1.9 2.2 -2.5
v 1.9 2.3 -2.5
v 2.1 2.1 -2.5
v 2.1 2.2 -2.5
v 2.1 2.3 -2.5
v 1.5 2.1 -2.7
v 1.5 2.2 -2.7
v 1.5 2.3 -2.7
v 1.7 2.1 -2.7
v 1.7 2.2 -2.7
v 1.7 2.3 -2.7
v 1.4 2 -3.1
v 1.4 2.1 -3.1
v 2 2 -3.1
v 2 2.1 -3.1
v 2 2.2 -3.1
v 2.6 2 -3.1
v 2.6 2.1 -3.1
v 2.6 2.2 -3.1
v 3.4 2 -3.1
v 3.4 2.1 -3.1
v 1.4 2 -0.9
v 2 2 -0.9
v 2.6 2 -0.9
v 3.4 2 -0.9
v 2 2 -1.1
v 2.6 2 -1.1
v 3.2 2 -1.7
v 3.4 2 -1.7
v 3.2 2 -2.3
v 3.4 2 -2.3
v 2 2 -2.9
v 2.6 2 -2.9
v 1.4 2 -3.1
v 2 2 -3.1
v 2.6 2 -3.1
v 3.4 2 -3.1
v 1.4 2.1 -0.9
v 2 2.1 -0.9
v 2.6 2.1 -0.9
v 3.4 2.1 -0.9
v 2 2.1 -1.1
v 2.6 2.1 -1.1
v 1.5 2.1 -1.5
v 2.3 2.1 -1.5
v 1.5 2.1 -1.7
v 2.3 2.1 -1.7
v 2.5 2.1 -1.7
v 2.7 2.1 -1.7
v 2.9 2.1 -1.7
v 3.1 2.1 -1.7
v 3.2 2.1 -1.7
v 3.4 2.1 -1.7
v 1.5 2.1 -2.1
v 2.3 2.1 -2.1
v 1.7 2.1 -2.3
v 1.9 2.1 -2.3
v 2.1 2.1 -2.3
v 2.3 2.1 -2.3
v 2.5 2.1 -2.3
v 2.7 2.1 -2.3
v 2.9 2.1 -2.3
v 3.1 2.1 -2.3
v 3.2 2.1 -2.3
v 3.4 2.1 -2.3
v 1.9 2.1 -2.5
v 2.1 2.1 -2.5
v 1.5 2.1 -2.7
v 1.7 2.1 -2.7
v 2 2.1 -2.9
v 2.6 2.1 -2.9
v 1.4 2.1 -3.1
v 2 2.1 -3.1
v 2.6 2.1 -3.1
v 3.4 2.1 -3.1
v 2 2.2 -0.9
v 2.6 2.2 -0.9
v 2 2.2 -1.1
v 2.6 2.2 -1.1
v 3.2 2.2 -1.7
v 3.4 2.2 -1.7
v 3.2 2.2 -2.3
v 3.4 2.2 -2.3
v 2 2.2 -2.9
v 2.6 2.2 -2.9
v 2 2.2 -3.1
v 2.6 2.2 -3.1
v 1.5 2.3 -1.5
v 2.3 2.3 -1.5
v 1.5 2.3 -1.7
v 2.3 2.3 -1.7
v 2.5 2.3 -1.7
v 2.7 2.3 -1.7
v 2.9 2.3 -1.7
v 3.1 2.3 -1.7
v 1.5 2.3 -2.1
v 2.3 2.3 -2.1
v 1.7 2.3 -2.3
v 1.9 2.3 -2.3
v 2.1 2.3 -2.3
v 2.3 2.3 -2.3
v 2.5 2.3 -2.3
v 2.7 2.3 -2.3
v 2.9 2.3 -2.3
v 3.1 2.3 -2.3
v 1.9 2.3 -2.5
v 2.1 2.3 -2.5
v 1.5 2.3 -2.7
v 1.7 2.3 -2.7

# faces
f 3/3/1 2/3/1 1/3/1
f 4/3/1 2/3/1 3/3/1
f 9/3/1 6/3/1 5/3/1
f 10/3/1 6/3/1 9/3/1
f 11/3/1 8/3/1 7/3/1
f 12/3/1 8/3/1 11/3/1
f 13/4/1 10/4/1 9/4/1
f 14/4/1 10/4/1 13/4/1
f 15/4/1 12/4/1 11/4/1
f 16/4/1 12/4/1 15/4/1
f 19/3/1 18/3/1 17/3/1
f 20/3/1 18/3/1 19/3/1
f 21/4/1 20/4/1 19/4/1
f 22/4/1 20/4/1 21/4/1
f 27/1/1 24/1/1 23/1/1
f 28/1/1 24/1/1 27/1/1
f 29/2/1 26/2/1 25/2/1
f 30/2/1 26/2/1 29/2/1
f 33/3/1 32/3/1 31/3/1
f 34/3/1 32/3/1 33/3/1
f 35/4/1 34/4/1 33/4/1
f 36/4/1 34/4/1 35/4/1
f 39/3/1 38/3/1 37/3/1
f 40/3/1 38/3/1 39/3/1
f 41/4/1 40/4/1 39/4/1
f 42/4/1 40/4/1 41/4/1
f 45/1/1 44/1/1 43/1/1
f 46/1/1 44/1/1 45/1/1
f 47/3/2 48/3/2 49/3/2
f 49/3/2 48/3/2 50/3/2
f 49/4/2 50/4/2 51/4/2
f 51/4/2 50/4/2 52/4/2
f 53/3/2 54/3/2 55/3/2
f 55/3/2 54/3/2 56/3/2
f 55/4/2 56/4/2 57/4/2
f 57/4/2 56/4/2 58/4/2
f 59/3/2 60/3/2 63/3/2
f 63/3/2 60/3/2 64/3/2
f 61/3/2 62/3/2 65/3/2
f 65/3/2 62/3/2 66/3/2
f 63/4/2 64/4/2 67/4/2
f 67/4/2 64/4/2 68/4/2
f 65/4/2 66/4/2 69/4/2
f 69/4/2 66/4/2 70/4/2
f 71/1/2 72/1/2 75/1/2
f 75/1/2 72/1/2 76/1/2
f 73/2/2 74/2/2 77/2/2
f 77/2/2 74/2/2 78/2/2
f 79/3/2 80/3/2 81/3/2
f 81/3/2 80/3/2 82/3/2
f 81/4/2 82/4/2 83/4/2
f 83/4/2 82/4/2 84/4/2
f 85/3/2 86/3/2 87/3/2
f 87/3/2 86/3/2 88/3/2
f 87/4/2 88/4/2 89/4/2
f 89/4/2 88/4/2 90/4/2
f 91/3/2 92/3/2 95/3/2
f 92/1/2 93/1/2 96/1/2
f 95/3/2 92/3/2 96/3/2
f 93/3/2 94/3/2 97/3/2
f 96/1/2 93/1/2 97/1/2
f 97/3/2 94/3/2 98/3/2
f 96/1/2 97/1/2 99/1/2
f 99/1/2 97/1/2 100/1/2
f 103/3/3 102/3/3 101/3/3
f 104/3/3 102/3/3 103/3/3
f 106/1/3 104/1/3 103/1/3
f 106/1/3 105/1/3 104/1/3
f 107/1/3 105/1/3 106/1/3
f 108/1/3 105/1/3 107/1/3
f 109/3/3 107/3/3 106/3/3
f 110/3/3 107/3/3 109/3/3
f 114/3/3 112/3/3 111/3/3
f 115/4/3 113/4/3 112/4/3
f 115/3/3 112/3/3 114/3/3
f 116/4/3 113/4/3 115/4/3
f 120/3/3 118/3/3 117/3/3
f 121/4/3 119/4/3 118/4/3
f 121/3/3 118/3/3 120/3/3
f 122/4/3 119/4/3 121/4/3
f 126/3/3 124/3/3 123/3/3
f 127/4/3 125/4/3 124/4/3
f 127/3/3 124/3/3 126/3/3
f 128/4/3 125/4/3 127/4/3
f 131/1/3 130/1/3 129/1/3
f 132/1/3 130/1/3 131/1/3
f 136/3/3 134/3/3 133/3/3
f 137/4/3 135/4/3 134/4/3
f 137/3/3 134/3/3 136/3/3
f 138/4/3 135/4/3 137/4/3
f 141/2/3 140/2/3 139/2/3
f 142/2/3 140/2/3 141/2/3
f 143/1/4 144/1/4 145/1/4
f 145/1/4 144/1/4 146/1/4
f 147/3/4 148/3/4 150/3/4
f 148/4/4 149/4/4 151/4/4
f 150/3/4 148/3/4 151/3/4
f 151/4/4 149/4/4 152/4/4
f 153/3/4 154/3/4 156/3/4
f 154/4/4 155/4/4 157/4/4
f 156/3/4 154/3/4 157/3/4
f 157/4/4 155/4/4 158/4/4
f 159/3/4 160/3/4 162/3/4
f 160/4/4 161/4/4 163/4/4
f 162/3/4 160/3/4 163/3/4
f 163/4/4 161/4/4 164/4/4
f 165/3/4 166/3/4 168/3/4
f 166/4/4 167/4/4 169/4/4
f 168/3/4 166/3/4 169/3/4
f 169/4/4 167/4/4 170/4/4
f 171/3/4 172/3/4 174/3/4
f 172/4/4 173/4/4 175/4/4
f 174/3/4 172/3/4 175/3/4
f 175/4/4 173/4/4 176/4/4
f 177/1/4 178/1/4 179/1/4
f 179/1/4 178/1/4 180/1/4
f 181/3/4 182/3/4 184/3/4
f 182/4/4 183/4/4 185/4/4
f 184/3/4 182/3/4 185/3/4
f 185/4/4 183/4/4 186/4/4
f 187/3/4 188/3/4 190/3/4
f 188/4/4 189/4/4 191/4/4
f 190/3/4 188/3/4 191/3/4
f 191/4/4 189/4/4 192/4/4
f 193/3/4 194/3/4 195/3/4
f 195/3/4 194/3/4 196/3/4
f 195/2/4 196/2/4 198/2/4
f 196/2/4 197/2/4 198/2/4
f 198/2/4 197/2/4 199/2/4
f 199/2/4 197/2/4 200/2/4
f 198/3/4 199/3/4 201/3/4
f 201/3/4 199/3/4 202/3/4
f 207/3/5 204/3/5 203/3/5
f 207/1/5 205/1/5 204/1/5
f 208/3/5 206/3/5 205/3/5
f 208/1/5 205/1/5 207/1/5
f 209/3/5 208/3/5 207/3/5
f 209/3/5 206/3/5 208/3/5
f 210/3/5 206/3/5 209/3/5
f 211/3/5 209/3/5 207/3/5
f 211/1/5 210/1/5 209/1/5
f 212/1/5 210/1/5 211/1/5
f 213/3/5 207/3/5 203/3/5
f 213/3/5 211/3/5 207/3/5
f 213/3/5 212/3/5 211/3/5
f 214/3/5 212/3/5 213/3/5
f 215/3/5 213/3/5 203/3/5
f 216/2/5 214/2/5 213/2/5
f 216/3/5 213/3/5 215/3/5
f 217/3/5 212/3/5 214/3/5
f 217/2/5 214/2/5 216/2/5
f 218/3/5 212/3/5 217/3/5
f 219/3/6 220/3/6 223/3/6
f 221/3/6 222/3/6 224/3/6
f 219/3/6 223/3/6 225/3/6
f 223/3/6 224/3/6 225/3/6
f 225/3/6 224/3/6 226/3/6
f 219/3/6 225/3/6 227/3/6
f 226/3/6 224/3/6 228/3/6
f 228/3/6 224/3/6 229/3/6
f 224/3/6 222/3/6 230/3/6
f 229/3/6 224/3/6 230/3/6
f 230/3/6 222/3/6 231/3/6
f 231/3/6 222/3/6 232/3/6
f 232/3/6 222/3/6 233/3/6
f 233/3/6 222/3/6 234/3/6
f 228/3/6 229/3/6 235/3/6
f 219/3/6 227/3/6 235/3/6
f 227/3/6 228/3/6 235/3/6
f 235/3/6 229/3/6 236/3/6
f 236/3/6 229/3/6 240/3/6
f 240/3/6 229/3/6 241/3/6
f 230/3/6 231/3/6 242/3/6
f 242/3/6 231/3/6 243/3/6
f 232/3/6 233/3/6 244/3/6
f 244/3/6 233/3/6 245/3/6
f 237/3/6 238/3/6 247/3/6
f 242/3/6 243/3/6 248/3/6
f 240/3/6 241/3/6 248/3/6
f 244/3/6 245/3/6 248/3/6
f 243/3/6 244/3/6 248/3/6
f 245/3/6 246/3/6 248/3/6
f 241/3/6 242/3/6 248/3/6
f 239/3/6 240/3/6 248/3/6
f 219/3/6 235/3/6 249/3/6
f 237/3/6 247/3/6 250/3/6
f 247/3/6 248/3/6 250/3/6
f 250/3/6 248/3/6 251/3/6
f 249/3/6 250/3/6 251/3/6
f 248/3/6 246/3/6 252/3/6
f 251/3/6 248/3/6 252/3/6
f 219/3/6 249/3/6 253/3/6
f 249/3/6 251/3/6 253/3/6
f 253/3/6 251/3/6 254/3/6
f 252/3/6 246/3/6 255/3/6
f 255/3/6 246/3/6 256/3/6
f 257/1/6 258/1/6 259/1/6
f 259/1/6 258/1/6 260/1/6
f 261/1/6 262/1/6 263/1/6
f 263/1/6 262/1/6 264/1/6
f 265/2/6 266/2/6 267/2/6
f 267/2/6 266/2/6 268/2/6
f 269/4/6 270/4/6 271/4/6
f 271/4/6 270/4/6 272/4/6
f 277/4/6 278/4/6 279/4/6
f 279/4/6 278/4/6 280/4/6
f 280/4/6 278/4/6 281/4/6
f 281/4/6 278/4/6 282/4/6
f 273/4/6 274/4/6 283/4/6
f 283/4/6 274/4/6 284/4/6
f 275/4/6 276/4/6 285/4/6
f 285/4/6 276/4/6 286/4/6
f 280/4/6 281/4/6 287/4/6
f 287/4/6 281/4/6 288/4/6
f 277/4/6 279/4/6 289/4/6
f 289/4/6 279/4/6 290/4/6
